<?xml version="1.0" encoding="UTF-8"?>
<svg width="1032px" height="76px" viewBox="0 0 1032 76" version="1.1" xmlns="http://www.w3.org/2000/svg" xmlns:xlink="http://www.w3.org/1999/xlink">
    <!-- Generator: Sketch 52.6 (67491) - http://www.bohemiancoding.com/sketch -->
    <title>Your Restaurant, the</title>
    <desc>Created with Sketch.</desc>
    <defs>
        <path d="M206.998,328.448 L213.73,328.448 L229.166,352.112 L244.602,328.448 L251.334,328.448 L231.954,357.28 L231.954,377 L226.378,377 L226.378,357.28 L206.998,328.448 Z M271.598,340.892 C276.834,340.892 281.05,342.66 284.178,346.332 C287.17,349.8 288.666,354.152 288.666,359.456 C288.666,364.692 287.17,369.044 284.246,372.444 C281.05,376.116 276.834,377.952 271.598,377.952 C266.294,377.952 262.146,376.116 259.018,372.444 C256.026,369.044 254.53,364.692 254.53,359.456 C254.53,354.152 256.026,349.8 259.018,346.332 C262.146,342.66 266.294,340.892 271.598,340.892 Z M271.598,345.448 C267.858,345.448 264.934,346.876 262.894,349.732 C260.99,352.316 260.106,355.512 260.106,359.456 C260.106,363.332 260.99,366.528 262.894,369.112 C264.934,371.968 267.858,373.396 271.598,373.396 C275.27,373.396 278.194,371.968 280.37,369.112 C282.206,366.528 283.158,363.264 283.158,359.456 C283.158,355.512 282.206,352.316 280.37,349.732 C278.194,346.876 275.27,345.448 271.598,345.448 Z M295.738,341.844 L301.178,341.844 L301.178,363.332 C301.178,366.664 301.858,369.18 303.286,370.812 C304.714,372.444 307.026,373.328 310.222,373.328 C312.534,373.328 314.642,372.376 316.478,370.608 C318.382,368.704 319.538,366.256 319.946,363.264 L319.946,341.844 L325.386,341.844 L325.386,377 L319.946,377 L319.946,371.56 C317.09,375.776 313.282,377.952 308.522,377.952 C299.954,377.952 295.738,373.124 295.738,363.604 L295.738,341.844 Z M349.254,340.892 C351.158,340.892 352.79,341.164 354.082,341.708 L354.082,347.148 C352.314,346.604 350.546,346.4 348.846,346.4 C346.126,346.4 343.814,347.556 341.978,350.004 C340.074,352.316 339.19,355.104 339.19,358.368 L339.19,377 L333.818,377 L333.818,341.844 L339.19,341.844 L339.19,347.964 C340.142,345.924 341.366,344.292 342.862,343.136 C344.698,341.64 346.806,340.892 349.254,340.892 Z M381.962,328.448 L402.906,328.448 C407.734,328.448 411.542,329.536 414.33,331.78 C417.186,334.092 418.682,337.492 418.682,341.98 C418.682,344.7 417.934,347.08 416.438,349.188 C414.806,351.364 412.63,352.724 409.842,353.404 L409.842,353.54 C414.466,354.56 417.05,357.484 417.594,362.38 L418.342,369.86 C418.614,372.852 419.498,375.232 420.926,377 L414.874,377 C413.786,375.368 413.106,373.26 412.902,370.54 L412.29,364.08 C412.018,361.224 410.998,359.116 409.23,357.892 C407.598,356.668 405.286,356.124 402.226,356.124 L387.538,356.124 L387.538,377 L381.962,377 L381.962,328.448 Z M387.538,333.276 L387.538,351.296 L402.226,351.296 C405.762,351.296 408.55,350.412 410.454,348.78 C412.154,347.216 413.038,345.04 413.038,342.184 C413.038,339.192 412.154,336.948 410.522,335.52 C408.754,334.024 405.966,333.276 402.226,333.276 L387.538,333.276 Z M441.734,340.892 C447.378,340.892 451.662,342.796 454.518,346.604 C457.102,350.004 458.462,354.832 458.598,360.952 L430.854,360.952 C431.126,364.896 432.146,367.956 434.05,370.132 C435.954,372.308 438.606,373.396 441.938,373.396 C444.794,373.396 447.174,372.648 448.942,371.22 C450.438,369.996 451.594,368.16 452.478,365.712 L457.918,365.712 C457.102,369.112 455.538,371.832 453.158,374.008 C450.234,376.592 446.494,377.952 441.938,377.952 C436.906,377.952 432.826,376.252 429.834,372.988 C426.706,369.588 425.21,365.1 425.21,359.388 C425.21,354.22 426.638,349.868 429.63,346.4 C432.622,342.728 436.634,340.892 441.734,340.892 Z M441.87,345.448 C438.742,345.448 436.226,346.468 434.322,348.508 C432.418,350.548 431.33,353.268 430.99,356.736 L452.954,356.736 C452.274,349.188 448.534,345.448 441.87,345.448 Z M477.434,340.892 C486.138,340.892 490.898,344.496 491.85,351.84 L486.546,351.84 C486.07,349.664 485.186,348.032 483.826,347.08 C482.33,345.992 480.154,345.448 477.366,345.448 C474.918,345.448 473.014,345.856 471.654,346.808 C470.158,347.692 469.41,348.916 469.41,350.48 C469.41,351.976 470.362,353.268 472.402,354.288 C473.694,354.9 476.142,355.648 479.678,356.6 C483.894,357.62 486.886,358.708 488.722,359.864 C491.51,361.632 492.938,364.012 492.938,367.072 C492.938,374.28 487.974,377.952 478.046,377.952 C468.798,377.952 463.766,373.872 462.95,365.78 L468.254,365.78 C468.662,368.568 469.682,370.54 471.178,371.764 C472.674,372.852 474.918,373.396 477.91,373.396 C484.166,373.396 487.362,371.356 487.362,367.412 C487.362,365.44 486.206,363.944 484.03,362.856 C482.874,362.312 480.358,361.564 476.55,360.612 C472.402,359.592 469.478,358.572 467.846,357.484 C465.126,355.852 463.834,353.608 463.834,350.616 C463.834,347.624 465.126,345.312 467.778,343.544 C470.226,341.776 473.49,340.892 477.434,340.892 Z M508.714,330.488 L508.714,341.844 L517.418,341.844 L517.418,346.4 L508.714,346.4 L508.714,368.772 C508.714,370.064 508.918,371.016 509.462,371.56 C509.938,372.104 510.822,372.444 512.046,372.444 L516.534,372.444 L516.534,377 L511.23,377 C508.374,377 506.266,376.252 505.042,374.756 C503.886,373.396 503.342,371.424 503.342,368.772 L503.342,346.4 L496.27,346.4 L496.27,341.844 L503.342,341.844 L503.342,332.732 L508.714,330.488 Z M538.77,340.892 C543.802,340.892 547.474,342.184 549.922,344.836 C551.962,347.148 553.05,350.344 553.05,354.424 L553.05,377 L547.95,377 L547.95,371.084 C546.59,372.988 544.754,374.552 542.578,375.776 C539.994,377.204 537.07,377.952 533.806,377.952 C530.27,377.952 527.482,377.068 525.374,375.3 C523.198,373.464 522.11,371.084 522.11,368.228 C522.11,364.216 523.674,361.224 526.938,359.184 C529.794,357.28 533.874,356.26 539.178,356.192 L547.61,356.056 L547.61,354.22 C547.61,348.304 544.55,345.38 538.43,345.38 C535.846,345.38 533.738,345.856 532.106,346.944 C530.27,348.032 529.114,349.732 528.57,351.976 L523.198,351.568 C523.946,347.896 525.782,345.108 528.638,343.34 C531.222,341.708 534.554,340.892 538.77,340.892 Z M547.61,360.136 L539.518,360.272 C531.63,360.408 527.686,362.992 527.686,368.092 C527.686,369.724 528.298,371.016 529.658,372.104 C531.018,373.124 532.786,373.668 534.962,373.668 C538.294,373.668 541.218,372.58 543.802,370.404 C546.318,368.296 547.61,365.848 547.61,363.128 L547.61,360.136 Z M561.482,341.844 L566.922,341.844 L566.922,363.332 C566.922,366.664 567.602,369.18 569.03,370.812 C570.458,372.444 572.77,373.328 575.966,373.328 C578.278,373.328 580.386,372.376 582.222,370.608 C584.126,368.704 585.282,366.256 585.69,363.264 L585.69,341.844 L591.13,341.844 L591.13,377 L585.69,377 L585.69,371.56 C582.834,375.776 579.026,377.952 574.266,377.952 C565.698,377.952 561.482,373.124 561.482,363.604 L561.482,341.844 Z M614.998,340.892 C616.902,340.892 618.534,341.164 619.826,341.708 L619.826,347.148 C618.058,346.604 616.29,346.4 614.59,346.4 C611.87,346.4 609.558,347.556 607.722,350.004 C605.818,352.316 604.934,355.104 604.934,358.368 L604.934,377 L599.562,377 L599.562,341.844 L604.934,341.844 L604.934,347.964 C605.886,345.924 607.11,344.292 608.606,343.136 C610.442,341.64 612.55,340.892 614.998,340.892 Z M639.682,340.892 C644.714,340.892 648.386,342.184 650.834,344.836 C652.874,347.148 653.962,350.344 653.962,354.424 L653.962,377 L648.862,377 L648.862,371.084 C647.502,372.988 645.666,374.552 643.49,375.776 C640.906,377.204 637.982,377.952 634.718,377.952 C631.182,377.952 628.394,377.068 626.286,375.3 C624.11,373.464 623.022,371.084 623.022,368.228 C623.022,364.216 624.586,361.224 627.85,359.184 C630.706,357.28 634.786,356.26 640.09,356.192 L648.522,356.056 L648.522,354.22 C648.522,348.304 645.462,345.38 639.342,345.38 C636.758,345.38 634.65,345.856 633.018,346.944 C631.182,348.032 630.026,349.732 629.482,351.976 L624.11,351.568 C624.858,347.896 626.694,345.108 629.55,343.34 C632.134,341.708 635.466,340.892 639.682,340.892 Z M648.522,360.136 L640.43,360.272 C632.542,360.408 628.598,362.992 628.598,368.092 C628.598,369.724 629.21,371.016 630.57,372.104 C631.93,373.124 633.698,373.668 635.874,373.668 C639.206,373.668 642.13,372.58 644.714,370.404 C647.23,368.296 648.522,365.848 648.522,363.128 L648.522,360.136 Z M678.85,340.892 C687.554,340.892 691.974,345.72 691.974,355.376 L691.974,377 L686.534,377 L686.534,355.784 C686.534,348.916 683.406,345.516 677.286,345.516 C674.838,345.516 672.73,346.4 670.962,348.168 C669.058,350.072 668.038,352.588 667.834,355.784 L667.834,377 L662.394,377 L662.394,341.844 L667.834,341.844 L667.834,347.012 C669.058,345.04 670.622,343.544 672.526,342.524 C674.43,341.436 676.538,340.892 678.85,340.892 Z M709.79,330.488 L709.79,341.844 L718.494,341.844 L718.494,346.4 L709.79,346.4 L709.79,368.772 C709.79,370.064 709.994,371.016 710.538,371.56 C711.014,372.104 711.898,372.444 713.122,372.444 L717.61,372.444 L717.61,377 L712.306,377 C709.45,377 707.342,376.252 706.118,374.756 C704.962,373.396 704.418,371.424 704.418,368.772 L704.418,346.4 L697.346,346.4 L697.346,341.844 L704.418,341.844 L704.418,332.732 L709.79,330.488 Z M729.306,368.908 C730.802,368.908 732.094,369.52 733.046,370.812 C733.93,372.036 734.406,373.6 734.406,375.572 C734.406,378.564 733.522,381.216 731.754,383.528 C729.986,385.704 727.606,387.2 724.682,387.948 L724.682,384.616 C726.45,384.004 727.946,382.984 729.034,381.624 C730.054,380.196 730.53,378.7 730.53,377.068 C730.19,377.204 729.714,377.34 729.034,377.34 C727.878,377.34 726.926,376.932 726.11,376.116 C725.294,375.3 724.886,374.28 724.886,373.124 C724.886,371.832 725.294,370.812 726.178,370.064 C726.926,369.248 727.946,368.908 729.306,368.908 Z M774.526,330.488 L774.526,341.844 L783.23,341.844 L783.23,346.4 L774.526,346.4 L774.526,368.772 C774.526,370.064 774.73,371.016 775.274,371.56 C775.75,372.104 776.634,372.444 777.858,372.444 L782.346,372.444 L782.346,377 L777.042,377 C774.186,377 772.078,376.252 770.854,374.756 C769.698,373.396 769.154,371.424 769.154,368.772 L769.154,346.4 L762.082,346.4 L762.082,341.844 L769.154,341.844 L769.154,332.732 L774.526,330.488 Z M789.282,327.496 L794.722,327.496 L794.722,347.624 C795.946,345.38 797.578,343.68 799.618,342.524 C801.522,341.436 803.63,340.892 806.01,340.892 C810.09,340.892 813.286,342.048 815.462,344.496 C817.638,346.876 818.726,350.344 818.726,354.832 L818.726,377 L813.286,377 L813.286,355.648 C813.286,352.384 812.47,349.868 810.974,348.1 C809.342,346.332 807.098,345.448 804.174,345.448 C801.454,345.448 799.21,346.536 797.442,348.712 C795.606,350.888 794.722,353.676 794.722,356.94 L794.722,377 L789.282,377 L789.282,327.496 Z M841.574,340.892 C847.218,340.892 851.502,342.796 854.358,346.604 C856.942,350.004 858.302,354.832 858.438,360.952 L830.694,360.952 C830.966,364.896 831.986,367.956 833.89,370.132 C835.794,372.308 838.446,373.396 841.778,373.396 C844.634,373.396 847.014,372.648 848.782,371.22 C850.278,369.996 851.434,368.16 852.318,365.712 L857.758,365.712 C856.942,369.112 855.378,371.832 852.998,374.008 C850.074,376.592 846.334,377.952 841.778,377.952 C836.746,377.952 832.666,376.252 829.674,372.988 C826.546,369.588 825.05,365.1 825.05,359.388 C825.05,354.22 826.478,349.868 829.47,346.4 C832.462,342.728 836.474,340.892 841.574,340.892 Z M841.71,345.448 C838.582,345.448 836.066,346.468 834.162,348.508 C832.258,350.548 831.17,353.268 830.83,356.736 L852.794,356.736 C852.114,349.188 848.374,345.448 841.71,345.448 Z M869.318,328.584 C870.474,328.584 871.426,328.924 872.242,329.74 C873.058,330.42 873.466,331.372 873.466,332.596 C873.466,333.752 873.058,334.704 872.242,335.52 C871.426,336.268 870.474,336.676 869.318,336.676 C868.162,336.676 867.21,336.268 866.394,335.52 C865.578,334.704 865.238,333.752 865.238,332.596 C865.238,331.372 865.578,330.42 866.394,329.74 C867.21,328.924 868.162,328.584 869.318,328.584 Z M866.598,341.844 L872.038,341.844 L872.038,377 L866.598,377 L866.598,341.844 Z M897.674,340.892 C899.578,340.892 901.21,341.164 902.502,341.708 L902.502,347.148 C900.734,346.604 898.966,346.4 897.266,346.4 C894.546,346.4 892.234,347.556 890.398,350.004 C888.494,352.316 887.61,355.104 887.61,358.368 L887.61,377 L882.238,377 L882.238,341.844 L887.61,341.844 L887.61,347.964 C888.562,345.924 889.786,344.292 891.282,343.136 C893.118,341.64 895.226,340.892 897.674,340.892 Z M930.79,327.496 L936.162,327.496 L936.162,377 L930.79,377 L930.79,327.496 Z M960.982,340.892 C966.014,340.892 969.686,342.184 972.134,344.836 C974.174,347.148 975.262,350.344 975.262,354.424 L975.262,377 L970.162,377 L970.162,371.084 C968.802,372.988 966.966,374.552 964.79,375.776 C962.206,377.204 959.282,377.952 956.018,377.952 C952.482,377.952 949.694,377.068 947.586,375.3 C945.41,373.464 944.322,371.084 944.322,368.228 C944.322,364.216 945.886,361.224 949.15,359.184 C952.006,357.28 956.086,356.26 961.39,356.192 L969.822,356.056 L969.822,354.22 C969.822,348.304 966.762,345.38 960.642,345.38 C958.058,345.38 955.95,345.856 954.318,346.944 C952.482,348.032 951.326,349.732 950.782,351.976 L945.41,351.568 C946.158,347.896 947.994,345.108 950.85,343.34 C953.434,341.708 956.766,340.892 960.982,340.892 Z M969.822,360.136 L961.73,360.272 C953.842,360.408 949.898,362.992 949.898,368.092 C949.898,369.724 950.51,371.016 951.87,372.104 C953.23,373.124 954.998,373.668 957.174,373.668 C960.506,373.668 963.43,372.58 966.014,370.404 C968.53,368.296 969.822,365.848 969.822,363.128 L969.822,360.136 Z M1000.15,340.892 C1008.854,340.892 1013.274,345.72 1013.274,355.376 L1013.274,377 L1007.834,377 L1007.834,355.784 C1007.834,348.916 1004.706,345.516 998.586,345.516 C996.138,345.516 994.03,346.4 992.262,348.168 C990.358,350.072 989.338,352.588 989.134,355.784 L989.134,377 L983.694,377 L983.694,341.844 L989.134,341.844 L989.134,347.012 C990.358,345.04 991.922,343.544 993.826,342.524 C995.73,341.436 997.838,340.892 1000.15,340.892 Z M1036.19,340.892 C1041.494,340.892 1045.438,343.204 1048.022,347.896 L1048.022,341.844 L1053.462,341.844 L1053.462,374.552 C1053.462,385.772 1048.09,391.416 1037.414,391.416 C1032.654,391.416 1028.982,390.464 1026.534,388.56 C1024.018,386.656 1022.454,383.8 1021.842,379.992 L1027.282,379.992 C1027.69,382.372 1028.71,384.14 1030.274,385.228 C1031.838,386.384 1034.218,386.996 1037.414,386.996 C1044.486,386.996 1048.022,383.052 1048.022,375.3 L1048.022,369.112 C1045.438,373.804 1041.494,376.184 1036.19,376.184 C1031.294,376.184 1027.418,374.484 1024.562,371.152 C1021.706,367.888 1020.346,363.74 1020.346,358.64 C1020.346,353.472 1021.706,349.324 1024.562,346.06 C1027.418,342.592 1031.294,340.892 1036.19,340.892 Z M1037.006,345.38 C1033.47,345.38 1030.75,346.604 1028.778,349.188 C1026.874,351.5 1025.922,354.696 1025.922,358.64 C1025.922,362.312 1026.738,365.372 1028.438,367.684 C1030.342,370.268 1033.13,371.628 1036.938,371.628 C1040.474,371.628 1043.194,370.404 1045.234,367.956 C1047.138,365.576 1048.09,362.448 1048.09,358.64 C1048.09,354.696 1047.138,351.5 1045.234,349.188 C1043.194,346.604 1040.474,345.38 1037.006,345.38 Z M1061.894,341.844 L1067.334,341.844 L1067.334,363.332 C1067.334,366.664 1068.014,369.18 1069.442,370.812 C1070.87,372.444 1073.182,373.328 1076.378,373.328 C1078.69,373.328 1080.798,372.376 1082.634,370.608 C1084.538,368.704 1085.694,366.256 1086.102,363.264 L1086.102,341.844 L1091.542,341.844 L1091.542,377 L1086.102,377 L1086.102,371.56 C1083.246,375.776 1079.438,377.952 1074.678,377.952 C1066.11,377.952 1061.894,373.124 1061.894,363.604 L1061.894,341.844 Z M1115.274,340.892 C1120.306,340.892 1123.978,342.184 1126.426,344.836 C1128.466,347.148 1129.554,350.344 1129.554,354.424 L1129.554,377 L1124.454,377 L1124.454,371.084 C1123.094,372.988 1121.258,374.552 1119.082,375.776 C1116.498,377.204 1113.574,377.952 1110.31,377.952 C1106.774,377.952 1103.986,377.068 1101.878,375.3 C1099.702,373.464 1098.614,371.084 1098.614,368.228 C1098.614,364.216 1100.178,361.224 1103.442,359.184 C1106.298,357.28 1110.378,356.26 1115.682,356.192 L1124.114,356.056 L1124.114,354.22 C1124.114,348.304 1121.054,345.38 1114.934,345.38 C1112.35,345.38 1110.242,345.856 1108.61,346.944 C1106.774,348.032 1105.618,349.732 1105.074,351.976 L1099.702,351.568 C1100.45,347.896 1102.286,345.108 1105.142,343.34 C1107.726,341.708 1111.058,340.892 1115.274,340.892 Z M1124.114,360.136 L1116.022,360.272 C1108.134,360.408 1104.19,362.992 1104.19,368.092 C1104.19,369.724 1104.802,371.016 1106.162,372.104 C1107.522,373.124 1109.29,373.668 1111.466,373.668 C1114.798,373.668 1117.722,372.58 1120.306,370.404 C1122.822,368.296 1124.114,365.848 1124.114,363.128 L1124.114,360.136 Z M1152.47,340.892 C1157.774,340.892 1161.718,343.204 1164.302,347.896 L1164.302,341.844 L1169.742,341.844 L1169.742,374.552 C1169.742,385.772 1164.37,391.416 1153.694,391.416 C1148.934,391.416 1145.262,390.464 1142.814,388.56 C1140.298,386.656 1138.734,383.8 1138.122,379.992 L1143.562,379.992 C1143.97,382.372 1144.99,384.14 1146.554,385.228 C1148.118,386.384 1150.498,386.996 1153.694,386.996 C1160.766,386.996 1164.302,383.052 1164.302,375.3 L1164.302,369.112 C1161.718,373.804 1157.774,376.184 1152.47,376.184 C1147.574,376.184 1143.698,374.484 1140.842,371.152 C1137.986,367.888 1136.626,363.74 1136.626,358.64 C1136.626,353.472 1137.986,349.324 1140.842,346.06 C1143.698,342.592 1147.574,340.892 1152.47,340.892 Z M1153.286,345.38 C1149.75,345.38 1147.03,346.604 1145.058,349.188 C1143.154,351.5 1142.202,354.696 1142.202,358.64 C1142.202,362.312 1143.018,365.372 1144.718,367.684 C1146.622,370.268 1149.41,371.628 1153.218,371.628 C1156.754,371.628 1159.474,370.404 1161.514,367.956 C1163.418,365.576 1164.37,362.448 1164.37,358.64 C1164.37,354.696 1163.418,351.5 1161.514,349.188 C1159.474,346.604 1156.754,345.38 1153.286,345.38 Z M1192.658,340.892 C1198.302,340.892 1202.586,342.796 1205.442,346.604 C1208.026,350.004 1209.386,354.832 1209.522,360.952 L1181.778,360.952 C1182.05,364.896 1183.07,367.956 1184.974,370.132 C1186.878,372.308 1189.53,373.396 1192.862,373.396 C1195.718,373.396 1198.098,372.648 1199.866,371.22 C1201.362,369.996 1202.518,368.16 1203.402,365.712 L1208.842,365.712 C1208.026,369.112 1206.462,371.832 1204.082,374.008 C1201.158,376.592 1197.418,377.952 1192.862,377.952 C1187.83,377.952 1183.75,376.252 1180.758,372.988 C1177.63,369.588 1176.134,365.1 1176.134,359.388 C1176.134,354.22 1177.562,349.868 1180.554,346.4 C1183.546,342.728 1187.558,340.892 1192.658,340.892 Z M1192.794,345.448 C1189.666,345.448 1187.15,346.468 1185.246,348.508 C1183.342,350.548 1182.254,353.268 1181.914,356.736 L1203.878,356.736 C1203.198,349.188 1199.458,345.448 1192.794,345.448 Z M1219.858,328.448 L1226.182,328.448 L1225.162,363.944 L1220.946,363.944 L1219.858,328.448 Z M1222.986,368.908 C1224.21,368.908 1225.162,369.248 1225.978,370.064 C1226.726,370.812 1227.134,371.764 1227.134,372.92 C1227.134,374.144 1226.726,375.096 1225.978,375.844 C1225.162,376.592 1224.142,377 1222.986,377 C1221.83,377 1220.878,376.592 1220.13,375.844 C1219.314,375.028 1218.906,374.076 1218.906,372.92 C1218.906,371.764 1219.314,370.812 1220.13,370.064 C1220.878,369.248 1221.83,368.908 1222.986,368.908 Z" id="path-1"></path>
        <filter x="-1.0%" y="-12.5%" width="102.0%" height="131.3%" filterUnits="objectBoundingBox" id="filter-2">
            <feOffset dx="0" dy="2" in="SourceAlpha" result="shadowOffsetOuter1"></feOffset>
            <feGaussianBlur stdDeviation="3" in="shadowOffsetOuter1" result="shadowBlurOuter1"></feGaussianBlur>
            <feColorMatrix values="0 0 0 0 0   0 0 0 0 0   0 0 0 0 0  0 0 0 0.5 0" type="matrix" in="shadowBlurOuter1"></feColorMatrix>
        </filter>
    </defs>
    <g id="Page-1" stroke="none" stroke-width="1" fill="none" fill-rule="evenodd">
        <g id="官网主页-copy" transform="translate(-201.000000, -323.000000)">
            <g id="顶部">
                <g id="banner">
                    <g id="Your-Restaurant,-the">
                        <use fill="black" fill-opacity="1" filter="url(#filter-2)" xlink:href="#path-1"></use>
                        <use fill="#FFB541" fill-rule="evenodd" xlink:href="#path-1"></use>
                    </g>
                </g>
            </g>
        </g>
    </g>
</svg>