<?xml version="1.0" encoding="UTF-8"?>
<svg width="176px" height="200px" viewBox="0 0 176 200" version="1.1" xmlns="http://www.w3.org/2000/svg" xmlns:xlink="http://www.w3.org/1999/xlink">
    <!-- Generator: Sketch 52.6 (67491) - http://www.bohemiancoding.com/sketch -->
    <title>3</title>
    <desc>Created with Sketch.</desc>
    <defs>
        <circle id="path-1" cx="68" cy="68" r="68"></circle>
        <filter x="-23.5%" y="-20.6%" width="147.1%" height="147.1%" filterUnits="objectBoundingBox" id="filter-2">
            <feMorphology radius="0.5" operator="dilate" in="SourceAlpha" result="shadowSpreadOuter1"></feMorphology>
            <feOffset dx="0" dy="4" in="shadowSpreadOuter1" result="shadowOffsetOuter1"></feOffset>
            <feGaussianBlur stdDeviation="9.5" in="shadowOffsetOuter1" result="shadowBlurOuter1"></feGaussianBlur>
            <feColorMatrix values="0 0 0 0 0   0 0 0 0 0   0 0 0 0 0  0 0 0 0.08 0" type="matrix" in="shadowBlurOuter1"></feColorMatrix>
        </filter>
        <circle id="path-3" cx="69" cy="138" r="22"></circle>
        <filter x="-72.7%" y="-63.6%" width="245.5%" height="245.5%" filterUnits="objectBoundingBox" id="filter-4">
            <feMorphology radius="0.5" operator="dilate" in="SourceAlpha" result="shadowSpreadOuter1"></feMorphology>
            <feOffset dx="0" dy="4" in="shadowSpreadOuter1" result="shadowOffsetOuter1"></feOffset>
            <feGaussianBlur stdDeviation="9.5" in="shadowOffsetOuter1" result="shadowBlurOuter1"></feGaussianBlur>
            <feComposite in="shadowBlurOuter1" in2="SourceAlpha" operator="out" result="shadowBlurOuter1"></feComposite>
            <feColorMatrix values="0 0 0 0 0   0 0 0 0 0   0 0 0 0 0  0 0 0 0.08 0" type="matrix" in="shadowBlurOuter1"></feColorMatrix>
        </filter>
    </defs>
    <g id="Page-1" stroke="none" stroke-width="1" fill="none" fill-rule="evenodd">
        <g id="官网主页" transform="translate(-1032.000000, -724.000000)">
            <g id="3" transform="translate(1052.000000, 740.000000)">
                <g id="椭圆形-copy-6">
                    <use fill="black" fill-opacity="1" filter="url(#filter-2)" xlink:href="#path-1"></use>
                    <use fill="#FFFFFF" fill-rule="evenodd" xlink:href="#path-1"></use>
                </g>
                <g id="椭圆形-copy-7">
                    <use fill="black" fill-opacity="1" filter="url(#filter-4)" xlink:href="#path-3"></use>
                    <circle stroke="#FFFFFF" stroke-width="4" stroke-linejoin="square" fill="#40976D" fill-rule="evenodd" cx="69" cy="138" r="20"></circle>
                </g>
                <text id="03" font-family="PingFangSC-Medium, PingFang SC" font-size="16" font-weight="400" fill="#FFFFFF">
                    <tspan x="60.4" y="144">03</tspan>
                </text>
                <g id="分组-copy-2" transform="translate(43.000000, 43.000000)">
                    <path d="M22,22 L22,12.0533346 C22,11.0668885 21.8481186,10.1148897 21.579586,9.21612761 C19.9683907,7.24871556 17.5226305,6 14.784851,6 C9.9340412,6 6,9.9340412 6,14.784851 C6,17.5226305 7.25497872,19.9683907 9.21612761,21.579586 C10.1148897,21.8481186 11.0668885,22 12.0525517,22 L22,22 Z" id="Fill-1" fill-opacity="0.5" fill="#40976D"></path>
                    <path d="M45,14.6364785 C45,9.86759685 41.1324795,6 36.363692,6 C33.6722056,6 31.2678008,7.23378264 29.6838491,9.16180853 C29.4198571,10.0453909 29.2705439,10.9805411 29.2705439,11.9510963 L29.2705439,21.7297665 L39.0490212,21.7297665 C40.0187875,21.7297665 40.954689,21.5804504 41.8374842,21.3164532 C43.7662417,19.7324702 45,17.328018 45,14.6364785 Z M29.2705439,29.2702335 L29.2705439,39.0489037 C29.2705439,40.0194589 29.4198571,40.9546091 29.6838491,41.8381915 C31.2678008,43.7662174 33.6722056,45 36.363692,45 C41.1324795,45 45,41.1324031 45,36.3635215 C45,33.671982 43.7662417,31.2675298 41.8374842,29.6835468 C40.954689,29.4195496 40.0187875,29.2702335 39.0490212,29.2702335 L29.2705439,29.2702335 Z M6,36.3635215 C6,41.1324031 9.86829018,45 14.6370777,45 C17.3285641,45 19.7329689,43.7662174 21.3169206,41.8381915 C21.5801429,40.9546091 21.7302258,40.0194589 21.7302258,39.043516 L21.7302258,29.2702335 L11.9517485,29.2702335 C10.9812125,29.2702335 10.0460807,29.4195496 9.16251579,29.6835468 C7.2283707,31.2675298 6,33.671982 6,36.3635215 Z" id="Fill-3" fill="#E0E0E0"></path>
                    <path d="M6.26940253,4 C6.4754639,4 6.68069101,3.945891 6.87340427,3.83136028 C7.01606214,3.7510986 7.15288021,3.6699351 7.29553808,3.58967342 C7.91789347,3.2532958 8.17985003,2.44075899 7.86867233,1.76078922 C7.55749464,1.08803399 6.80499523,0.805765374 6.1759658,1.14214299 C6.00244043,1.23683374 5.82808081,1.33062267 5.6537212,1.43793886 C5.04387966,1.80137097 4.8202989,2.62833685 5.15650429,3.28666302 C5.3925989,3.74388407 5.82140676,4 6.26940253,4" id="Fill-5" fill="#707070"></path>
                    <path d="M38.9733079,26.9372609 L28.0928896,26.9372609 C27.4539453,26.9372609 26.9351378,27.4567712 26.9351378,28.0956389 L26.9351378,38.9686305 C26.9351378,45.6029074 32.332113,51 38.9679515,51 C40.8335159,51 42.6194992,50.5830145 44.279224,49.7681714 C44.8500653,49.4889059 45.0895737,48.7918898 44.8041531,48.2165264 C44.5248541,47.6449885 43.8285196,47.4062739 43.2523219,47.6916603 C41.9116866,48.3527161 40.4685142,48.6901301 38.9618299,48.6901301 C34.5688007,48.6901301 30.8483848,45.7574598 29.6500773,41.7467483 C29.3883779,40.8684009 29.2399286,39.9387911 29.2399286,38.9739862 L29.2399286,29.2478959 L38.9618299,29.2478959 C39.9267506,29.2478959 40.8557068,29.3963275 41.7349248,29.6587605 C45.7461177,30.8569243 48.6783748,34.5761285 48.6783748,38.9686305 C48.6783748,39.9043611 48.5467599,40.834736 48.2842953,41.7245601 C48.1021771,42.3343535 48.4557008,42.979342 49.0663326,43.1614384 C49.6761992,43.3442999 50.3212651,42.9900536 50.5033834,42.3802601 C50.8293598,41.2731446 50.9946436,40.1270084 50.9946436,38.9686305 C51.0061216,32.3343535 45.6083812,26.9372609 38.9733079,26.9372609 M38.9733079,2.30986993 C44.3304926,2.30986993 48.6952092,6.66870696 48.6952092,12.0313695 C48.6952092,16.4238715 45.7629522,20.1430757 41.7517592,21.3412395 C40.8733064,21.6036725 39.9435851,21.7521041 38.9786643,21.7521041 L29.2514066,21.7521041 L29.2514066,12.0313695 C29.2514066,11.0673298 29.399856,10.1369549 29.6623205,9.25937261 C30.8598629,5.24789594 34.5741572,2.30986993 38.9733079,2.30986993 M28.0928896,24.0627391 L38.9679515,24.0627391 C45.6030248,24.0627391 51,18.6656465 51,12.0313695 C51,5.39632747 45.6083812,0 38.9733079,0 C32.3382346,0 26.9404942,5.39632747 26.9404942,12.0313695 L26.9404942,22.9043611 C26.9404942,23.5432288 27.4539453,24.0627391 28.0928896,24.0627391 M12.0320485,48.6840092 C6.67562904,48.6840092 2.31014719,44.3259373 2.31014719,38.9632747 C2.31014719,34.5707728 5.24316944,30.8515685 9.2535972,29.6534047 C10.1328152,29.3909717 11.0625366,29.2425402 12.0266921,29.2425402 L21.7485934,29.2425402 L21.7485934,38.9632747 C21.7485934,39.9273145 21.600144,40.8569243 21.3384447,41.7413925 C20.1454936,45.7521041 16.4258428,48.6840092 12.0320485,48.6840092 M22.9071104,26.9372609 L12.0320485,26.9372609 C5.3969752,26.9372609 0,32.3343535 0,38.9686305 C0,45.6029074 5.3969752,51 12.0320485,51 C18.667887,51 24.0656274,45.6029074 24.0656274,38.9686305 L24.0656274,28.0902831 C24.0656274,27.4506503 23.5460547,26.9372609 22.9071104,26.9372609 M12.0320485,0 C11.3938694,0 10.8742967,0.518745218 10.8742967,1.15837796 C10.8742967,1.7972456 11.3938694,2.31599082 12.0320485,2.31599082 C16.4258428,2.31599082 20.1454936,5.24789594 21.3438011,9.25937261 C21.6062657,10.1369549 21.754715,11.0673298 21.754715,12.0313695 L21.754715,21.7521041 L12.0320485,21.7521041 C11.0686582,21.7521041 10.1381716,21.6036725 9.25971883,21.3412395 C5.24852586,20.1430757 2.31626881,16.4238715 2.31626881,12.0313695 C2.31626881,10.0864575 2.8924665,8.20351951 3.97675884,6.59984698 C4.26141427,6.17214996 4.58662546,5.76740627 4.94014914,5.39097169 C5.38014074,4.92348891 5.35182823,4.19280796 4.88964576,3.75363428 C4.42134166,3.3144606 3.6913382,3.3427697 3.25211181,3.80489671 C2.81824183,4.26702372 2.41344956,4.77505738 2.05916068,5.29992349 C0.71316899,7.29074216 0.00535641945,9.61820964 0.00535641945,12.0260138 C0.00535641945,18.6602907 5.40233162,24.0566182 12.0381701,24.0566182 L22.9124668,24.0566182 C23.5521763,24.0566182 24.0709838,23.537873 24.0709838,22.8990054 L24.0709838,12.0313695 C24.0656274,5.39632747 18.667887,0 12.0320485,0" id="Fill-7" fill="#707070"></path>
                </g>
            </g>
        </g>
    </g>
</svg>