<?xml version="1.0" encoding="UTF-8"?>
<svg width="176px" height="200px" viewBox="0 0 176 200" version="1.1" xmlns="http://www.w3.org/2000/svg" xmlns:xlink="http://www.w3.org/1999/xlink">
    <!-- Generator: Sketch 52.6 (67491) - http://www.bohemiancoding.com/sketch -->
    <title>2</title>
    <desc>Created with Sketch.</desc>
    <defs>
        <circle id="path-1" cx="68" cy="68" r="68"></circle>
        <filter x="-23.5%" y="-20.6%" width="147.1%" height="147.1%" filterUnits="objectBoundingBox" id="filter-2">
            <feMorphology radius="0.5" operator="dilate" in="SourceAlpha" result="shadowSpreadOuter1"></feMorphology>
            <feOffset dx="0" dy="4" in="shadowSpreadOuter1" result="shadowOffsetOuter1"></feOffset>
            <feGaussianBlur stdDeviation="9.5" in="shadowOffsetOuter1" result="shadowBlurOuter1"></feGaussianBlur>
            <feColorMatrix values="0 0 0 0 0   0 0 0 0 0   0 0 0 0 0  0 0 0 0.08 0" type="matrix" in="shadowBlurOuter1"></feColorMatrix>
        </filter>
        <circle id="path-3" cx="69" cy="138" r="22"></circle>
        <filter x="-72.7%" y="-63.6%" width="245.5%" height="245.5%" filterUnits="objectBoundingBox" id="filter-4">
            <feMorphology radius="0.5" operator="dilate" in="SourceAlpha" result="shadowSpreadOuter1"></feMorphology>
            <feOffset dx="0" dy="4" in="shadowSpreadOuter1" result="shadowOffsetOuter1"></feOffset>
            <feGaussianBlur stdDeviation="9.5" in="shadowOffsetOuter1" result="shadowBlurOuter1"></feGaussianBlur>
            <feComposite in="shadowBlurOuter1" in2="SourceAlpha" operator="out" result="shadowBlurOuter1"></feComposite>
            <feColorMatrix values="0 0 0 0 0   0 0 0 0 0   0 0 0 0 0  0 0 0 0.08 0" type="matrix" in="shadowBlurOuter1"></feColorMatrix>
        </filter>
        <polygon id="path-5" points="8.22580645e-05 0.148090909 50.8017581 0.148090909 50.8017581 26.4767727 8.22580645e-05 26.4767727"></polygon>
        <polygon id="path-7" points="0.000164516129 0.148090909 50.8011 0.148090909 50.8011 26.6486727 0.000164516129 26.6486727"></polygon>
        <polygon id="path-9" points="0.791915789 0.146618182 15.8470737 0.146618182 15.8470737 9 0.791915789 9"></polygon>
    </defs>
    <g id="Page-1" stroke="none" stroke-width="1" fill="none" fill-rule="evenodd">
        <g id="官网主页" transform="translate(-589.000000, -724.000000)">
            <g id="2" transform="translate(609.000000, 740.000000)">
                <g id="椭圆形-copy-4">
                    <use fill="black" fill-opacity="1" filter="url(#filter-2)" xlink:href="#path-1"></use>
                    <use fill="#FFFFFF" fill-rule="evenodd" xlink:href="#path-1"></use>
                </g>
                <g id="椭圆形-copy-5">
                    <use fill="black" fill-opacity="1" filter="url(#filter-4)" xlink:href="#path-3"></use>
                    <circle stroke="#FFFFFF" stroke-width="4" stroke-linejoin="square" fill="#40976D" fill-rule="evenodd" cx="69" cy="138" r="20"></circle>
                </g>
                <text id="02" font-family="PingFangSC-Medium, PingFang SC" font-size="16" font-weight="400" fill="#FFFFFF">
                    <tspan x="60.4" y="144">02</tspan>
                </text>
                <g id="分组" transform="translate(43.000000, 41.000000)">
                    <path d="M36,30 C36,35.5227383 31.5227383,40 26,40 C20.4772617,40 16,35.5227383 16,30 C16,24.4772617 20.4772617,20 26,20 C31.5227383,20 36,24.4772617 36,30" id="Fill-1" fill="#E0E0E0"></path>
                    <path d="M38.8623525,26 C38.8623525,33.1733547 32.8498077,38.9125201 25.5004111,38.9125201 C18.1510145,38.9125201 12.1376475,33.0433387 12.1376475,26 C12.1376475,18.8258427 18.1510145,13.0866774 25.5004111,13.0866774 C32.8498077,13.0866774 38.8623525,18.8258427 38.8623525,26 M14.5433232,15.4341894 C11.6032356,18.3041734 10,22.0866774 10,26 C10,30.0433387 11.6032356,33.8258427 14.5433232,36.565008 C17.4834107,39.4341894 21.3574857,41 25.5004111,41 C29.6425143,41 33.5174115,39.4341894 36.457499,36.565008 C39.3967644,33.6950241 41,29.9125201 41,26 C41,21.9558587 39.3967644,18.1741573 36.457499,15.4341894 C33.5174115,12.565008 29.6425143,11 25.5004111,11 C21.3574857,11 17.4834107,12.565008 14.5433232,15.4341894" id="Fill-3" fill="#707070"></path>
                    <path d="M37.9110993,26 C37.9110993,32.6629213 32.3260841,37.9935795 25.5004111,37.9935795 C18.6747381,37.9935795 13.0897228,32.5417335 13.0897228,26 C13.0897228,19.3370787 18.6747381,14.0064205 25.5004111,14.0064205 C32.3260841,14.0064205 37.9110993,19.3370787 37.9110993,26 M14.5433232,15.4341894 C11.6032356,18.3041734 10,22.0866774 10,26 C10,30.0433387 11.6032356,33.8258427 14.5433232,36.565008 C17.4834107,39.4341894 21.3583079,41 25.5004111,41 C29.6425143,41 33.5174115,39.4341894 36.457499,36.565008 C39.3975865,33.6950241 41,29.9125201 41,26 C41,21.9558587 39.3975865,18.1741573 36.457499,15.4341894 C33.5174115,12.565008 29.6425143,11 25.5004111,11 C21.3583079,11 17.4834107,12.565008 14.5433232,15.4341894" id="Fill-5" fill="#707070"></path>
                    <g>
                        <g>
                            <mask id="mask-6" fill="white">
                                <use xlink:href="#path-5"></use>
                            </mask>
                            <g id="Clip-8"></g>
                            <path d="M1.0694371,26.0775 L5.21359839,26.0775 C5.74827581,26.0775 6.28295323,25.5456818 6.28295323,25.0138636 C6.28295323,24.4820455 5.74827581,23.9502273 5.21359839,23.9502273 L1.0694371,23.9502273 C0.534759677,23.9502273 8.22580645e-05,24.4820455 8.22580645e-05,25.0138636 C8.22580645e-05,25.5456818 0.400679032,26.0775 1.0694371,26.0775 Z M25.5346306,6.39777273 C26.0693081,6.39777273 26.6039855,5.86595455 26.6039855,5.33331818 L26.6039855,1.21131818 C26.6039855,0.6795 26.0693081,0.147681818 25.5346306,0.147681818 C24.9999532,0.147681818 24.4652758,0.6795 24.4652758,1.21131818 L24.4652758,5.33331818 C24.4652758,5.86595455 24.9999532,6.39777273 25.5346306,6.39777273 Z M39.8393081,12.2485909 C40.1066468,12.2485909 40.3739855,12.1160455 40.6413242,11.9826818 L43.5828726,9.05686364 C43.7161306,8.92431818 43.8502113,8.65840909 43.8502113,8.25995455 C43.8502113,7.99322727 43.7161306,7.72731818 43.5828726,7.46222727 C43.3147113,7.1955 43.0473726,7.1955 42.7808565,7.1955 C42.5126952,7.1955 42.2453565,7.32804545 41.9780177,7.46222727 L39.0372919,10.3872273 C38.9032113,10.5197727 38.7699532,10.7865 38.7699532,11.1849545 C38.7699532,11.4508636 38.9032113,11.7167727 39.0372919,11.9826818 C39.3046306,12.2485909 39.5719694,12.2485909 39.8393081,12.2485909 Z M10.4271145,11.7167727 C10.6952758,11.9826818 10.9626145,11.9826818 11.2299532,11.9826818 C11.4972919,11.9826818 11.7646306,11.8493182 12.0319694,11.7167727 C12.2993081,11.5834091 12.2993081,11.3175 12.2993081,10.9190455 C12.2993081,10.6523182 12.1652274,10.3864091 12.0319694,10.1213182 L9.09042097,7.1955 C8.68982419,6.79704545 8.02106613,6.79704545 7.62046935,7.1955 C7.48638871,7.32804545 7.35313065,7.59477273 7.35313065,7.99322727 C7.35313065,8.25913636 7.48638871,8.52504545 7.62046935,8.79095455 L10.4271145,11.7167727 Z M49.7316629,24.3486818 L45.5883242,24.3486818 C45.0528242,24.3486818 44.5181468,24.8805 44.5181468,25.4131364 C44.5181468,25.9449545 45.0528242,26.4767727 45.5883242,26.4767727 L49.7316629,26.4767727 C50.2671629,26.4767727 50.8018403,25.9449545 50.8018403,25.4131364 C50.8018403,24.7479545 50.2671629,24.3486818 49.7316629,24.3486818 Z" id="Fill-7" fill="#40976D" mask="url(#mask-6)"></path>
                        </g>
                        <g>
                            <mask id="mask-8" fill="white">
                                <use xlink:href="#path-7"></use>
                            </mask>
                            <g id="Clip-10"></g>
                            <path d="M42.0258097,7.1874 L39.0949548,10.1017636 C38.7173903,10.4781273 38.8391323,11.3511273 39.2166968,11.7274909 C39.5950839,12.1038545 40.4736,12.2249455 40.8511645,11.8485818 L43.7820194,8.93421818 C44.1604065,8.55785455 44.0386645,7.68403636 43.6602774,7.30767273 C43.2818903,6.93212727 42.497971,6.71694545 42.0258097,7.1874 M7.55227742,8.93585455 L10.4831323,11.8502182 C10.8606968,12.2265818 11.7392129,12.1054909 12.1167774,11.7291273 C12.4951645,11.3527636 12.617729,10.4797636 12.2393419,10.1034 L9.3084871,7.18821818 C8.93092258,6.81267273 8.05240645,6.93376364 7.67401935,7.31012727 C7.29645484,7.68649091 7.08011613,8.4654 7.55227742,8.93585455 M1.06951935,26.2494 L5.21368065,26.2494 C5.74835806,26.2494 6.28303548,25.5457636 6.28303548,25.0139455 C6.28303548,24.4821273 5.74835806,23.7784909 5.21368065,23.7784909 L1.06951935,23.7784909 C0.534841935,23.7784909 0.000164516129,24.4821273 0.000164516129,25.0139455 C0.000164516129,25.5457636 0.40076129,26.2494 1.06951935,26.2494 M25.5347129,6.39785455 C26.0693903,6.39785455 26.8623581,5.86603636 26.8623581,5.3334 L26.8623581,1.2114 C26.8623581,0.679581818 26.0693903,0.147763636 25.5347129,0.147763636 C25.0000355,0.147763636 24.2062452,0.679581818 24.2062452,1.2114 L24.2926161,5.3334 C24.2926161,5.86603636 24.7697129,6.39785455 25.5347129,6.39785455 M49.7317452,24.1777636 L45.5884065,24.1777636 C45.0529065,24.1777636 44.518229,24.8805818 44.518229,25.4124 C44.518229,25.9450364 45.0529065,26.6486727 45.5884065,26.6486727 L49.7317452,26.6486727 C50.2672452,26.6486727 50.8011,25.9450364 50.8011,25.4124 C50.8011,24.7480364 50.2672452,24.1777636 49.7317452,24.1777636" id="Fill-9" fill="#40976D" mask="url(#mask-8)"></path>
                        </g>
                    </g>
                    <path d="M31.909274,46 C32.454637,46 33,46.4999039 33,46.9998077 C33,47.4997116 32.454637,48.0003845 31.909274,48.0003845 L19.0915651,48.0003845 C18.545363,48.0003845 18,47.4997116 18,46.9998077 C18,46.4999039 18.545363,46 19.0915651,46 L31.909274,46 Z M29.5910616,51.9996155 C30.1364247,51.9996155 30.6817877,52.4995193 30.6817877,53.0001923 C30.6817877,53.4993271 30.1364247,54 29.5910616,54 L21.4089384,54 C20.8635753,54 20.3182123,53.4993271 20.3182123,53.0001923 C20.3182123,52.4995193 20.8635753,51.9996155 21.4089384,51.9996155 L29.5910616,51.9996155 Z" id="Fill-11" fill="#707070"></path>
                    <g transform="translate(17.000000, 46.000000)">
                        <mask id="mask-10" fill="white">
                            <use xlink:href="#path-9"></use>
                        </mask>
                        <g id="Clip-14"></g>
                    </g>
                </g>
            </g>
        </g>
    </g>
</svg>