<?xml version="1.0" encoding="UTF-8"?>
<svg width="708px" height="77px" viewBox="0 0 708 77" version="1.1" xmlns="http://www.w3.org/2000/svg" xmlns:xlink="http://www.w3.org/1999/xlink">
    <!-- Generator: Sketch 52.6 (67491) - http://www.bohemiancoding.com/sketch -->
    <title>食べ物で世界をつなぐ</title>
    <desc>Created with Sketch.</desc>
    <defs>
        <path d="M30.05,0.6 L35.09,0.6 C43.63,8.51 53.57,14.74 64.77,19.36 L61.13,25.73 C58.05,24.4 55.11,23 52.31,21.53 L52.31,46.1 C53.01,45.33 53.64,44.63 54.2,43.93 L60.36,47.08 C57.84,49.88 55.18,52.47 52.38,54.78 C56.02,56.53 59.31,58.35 62.39,60.17 L57.77,65.7 C50.63,60.87 41.53,56.39 30.33,52.26 L34.46,47.36 C38.66,48.83 42.58,50.37 46.29,51.98 C48.25,50.3 50.07,48.55 51.75,46.73 L20.67,46.73 L20.67,57.72 C25.64,56.81 30.4,55.69 34.95,54.43 L36.35,60.52 C29.91,62.48 21.93,64.16 12.34,65.56 L10.45,59.75 C12.41,59.12 13.46,57.37 13.46,54.43 L13.46,21.6 C10.38,23.28 7.16,24.89 3.8,26.43 L0.23,19.99 C12.13,14.81 22.07,8.37 30.05,0.6 Z M16.19,19.99 L29.91,19.99 C29.35,17.89 28.65,15.86 27.95,13.97 L34.6,12.92 C35.3,15.02 36,17.33 36.63,19.99 L49.58,19.99 C43.14,16.21 37.47,11.94 32.57,7.18 C28.02,11.87 22.56,16.14 16.19,19.99 Z M20.67,36.44 L20.67,40.29 L45.1,40.29 L45.1,36.44 L20.67,36.44 Z M45.1,30.28 L45.1,26.43 L20.67,26.43 L20.67,30.28 L45.1,30.28 Z M120.28,4.94 C123.64,7.95 126.23,11.1 128.05,14.32 L123.92,17.33 C121.89,13.83 119.44,10.68 116.5,7.88 L120.28,4.94 Z M113.56,9.77 C116.71,12.57 119.3,15.79 121.26,19.29 L117.2,22.16 C115.24,18.73 112.72,15.58 109.71,12.71 L113.56,9.77 Z M94.94,14.04 C95.92,14.04 97.04,14.25 98.16,14.81 C99.7,15.51 101.24,16.7 102.92,18.38 C115.1,30.84 126.23,41.34 136.31,49.88 L130.92,55.97 C118.6,45.4 107.75,35.04 98.37,24.89 C97.53,23.91 96.83,23.28 96.27,22.86 C95.71,22.44 95.36,22.23 95.08,22.23 C94.52,22.23 93.96,22.58 93.33,23.42 C86.47,31.4 80.31,38.19 74.78,43.65 L68.69,37.91 C73.59,33.64 79.89,27.06 87.59,18.1 C89.9,15.37 92.35,14.04 94.94,14.04 Z M171.59,0.32 L178.45,2.14 C177.75,5.29 177.05,8.23 176.28,11.03 L202.74,11.03 C202.74,35.39 202.39,50.37 201.69,55.97 C200.85,61.99 196.86,65 189.72,65 C188.74,65 186.92,64.86 184.4,64.65 L182.72,58.14 C184.96,58.35 186.85,58.49 188.53,58.49 C192.24,58.49 194.41,56.53 194.97,52.68 C195.39,49.39 195.6,37.84 195.74,18.03 L193.22,18.03 C191.75,29.23 189.72,38.19 187.06,44.77 C183.84,52.19 179.01,58.91 172.71,64.79 L168.16,58.98 C173.9,53.8 178.17,48.06 181.04,41.62 C183.49,35.67 185.38,27.83 186.71,18.03 L183.21,18.03 C180.27,32.87 175.02,43.79 167.39,50.65 L162.7,45.19 C169.42,39.45 174.11,30.42 176.7,18.03 L173.76,18.03 C172.01,22.16 169.98,25.66 167.67,28.46 L162.35,23.91 C166.69,18.45 169.77,10.54 171.59,0.32 Z M148.07,21.39 C147.51,24.68 146.88,27.9 146.11,30.98 L139.67,29.16 C141.56,21.81 142.61,14.04 142.89,5.92 L149.4,6.41 C149.26,9.07 149.12,11.73 148.91,14.39 L151.92,14.39 L151.92,0.6 L159.06,0.6 L159.06,14.39 L163.82,14.39 L163.82,21.39 L159.06,21.39 L159.06,35.39 C160.53,34.69 162,33.99 163.54,33.29 L163.54,40.15 C162,40.85 160.53,41.48 159.06,42.18 L159.06,65.28 L151.92,65.28 L151.92,45.05 C148.77,46.17 145.55,47.29 142.26,48.27 L140.51,41.2 C144.36,40.43 148.14,39.38 151.92,38.12 L151.92,21.39 L148.07,21.39 Z M265.46,18.24 C268.82,21.25 271.41,24.4 273.23,27.62 L269.1,30.63 C267.07,27.13 264.62,23.98 261.68,21.18 L265.46,18.24 Z M258.6,23 C261.75,25.8 264.34,29.02 266.3,32.52 L262.24,35.39 C260.28,31.96 257.76,28.81 254.75,25.94 L258.6,23 Z M270.92,8.09 L271.06,14.81 L257.83,15.3 C255.94,15.3 253.42,16.42 250.34,18.66 C246.91,21.04 244.11,23.91 241.87,27.27 C239.14,31.19 237.81,35.11 237.81,39.1 C237.81,43.3 239.77,46.73 243.83,49.32 C248.31,52.12 255.1,53.73 264.13,54.01 L262.8,60.87 C251.67,60.73 243.34,58.63 237.74,54.71 C232.63,51.07 230.11,46.03 230.11,39.59 C230.11,34.34 231.72,29.51 235.08,25.17 C237.6,21.74 241.03,18.59 245.51,15.65 C234.31,16.56 223.74,17.61 213.94,18.87 L212.96,11.8 C234.1,9.42 253.42,8.23 270.92,8.09 Z M280.58,16.35 L288.84,16.35 L288.84,1.37 L296.26,1.37 L296.26,16.35 L308.16,16.35 L308.16,0.67 L315.37,0.67 L315.37,16.35 L327.34,16.35 L327.34,0.67 L334.55,0.67 L334.55,16.35 L344.35,16.35 L344.35,23.42 L334.55,23.42 L334.55,45.47 L308.16,45.47 L308.16,23.42 L296.26,23.42 L296.26,55.34 L341.97,55.34 L341.97,62.76 L288.84,62.76 L288.84,23.42 L280.58,23.42 L280.58,16.35 Z M315.37,23.42 L315.37,38.33 L327.34,38.33 L327.34,23.42 L315.37,23.42 Z M357.79,2.7 L407.49,2.7 L407.49,32.1 L395.45,32.1 C399.93,36.51 406.58,40.08 415.33,42.74 L412.18,49.18 C406.16,46.87 401.12,44.28 397.06,41.34 L397.06,65.49 L389.71,65.49 L389.71,38.54 L393.49,38.54 C391.11,36.44 389.08,34.34 387.54,32.1 L377.46,32.1 C375.64,34.34 373.54,36.51 371.16,38.47 L376.41,38.47 C376.41,44.14 375.57,48.97 373.89,52.96 C371.93,58 367.17,62.2 359.61,65.56 L354.78,59.68 C360.87,57.16 364.86,54.08 366.75,50.44 C368.08,47.78 368.85,44.35 368.99,40.15 C364.65,43.3 359.47,46.1 353.45,48.55 L349.53,42.18 C358.35,39.52 364.93,36.16 369.41,32.1 L357.79,32.1 L357.79,2.7 Z M400.42,25.8 L400.42,20.34 L386.07,20.34 L386.07,25.8 L400.42,25.8 Z M378.93,25.8 L378.93,20.34 L364.86,20.34 L364.86,25.8 L378.93,25.8 Z M364.86,14.32 L378.93,14.32 L378.93,9.14 L364.86,9.14 L364.86,14.32 Z M386.07,9.14 L386.07,14.32 L400.42,14.32 L400.42,9.14 L386.07,9.14 Z M475.11,9.35 L475.6,15.93 C467.97,16.7 458.73,17.19 447.88,17.33 C446.13,20.13 444.31,22.58 442.42,24.75 C445.22,22.93 448.02,22.02 450.75,22.02 C454.67,22.02 457.68,23.42 459.64,26.22 C459.92,26.64 460.27,27.2 460.55,27.76 C465.59,26.01 471.33,24.4 477.91,22.86 L479.87,29.58 C473.57,30.77 467.69,32.38 462.16,34.34 C462.23,35.32 462.3,36.44 462.3,37.56 L462.3,49.81 L455.16,49.81 L455.16,37.14 C446.41,40.99 442.07,44.84 442.07,48.62 C442.07,50.79 443.61,52.4 446.76,53.38 C449.21,54.08 452.64,54.5 457.12,54.5 C464.05,54.5 470.42,53.94 476.16,52.82 L476.79,59.75 C470.28,60.73 463.7,61.29 457.12,61.29 C450.12,61.29 444.73,60.38 441.02,58.56 C436.68,56.46 434.58,53.1 434.58,48.62 C434.58,42.74 439.27,37.42 448.72,32.66 C450.19,31.89 451.8,31.12 453.55,30.42 C452.57,28.81 451.24,28.04 449.42,28.04 C443.82,28.04 437.17,32.59 429.47,41.69 L424.29,36.86 C430.03,30.7 434.51,25.24 437.87,20.48 C438.57,19.43 439.2,18.38 439.9,17.33 C436.12,17.33 431.5,17.26 425.9,17.19 L425.97,10.4 C432.41,10.47 438.29,10.54 443.75,10.54 C445.15,7.74 446.48,4.8 447.67,1.79 L454.39,4.31 C453.48,6.41 452.57,8.51 451.66,10.47 C460.97,10.33 468.81,9.98 475.11,9.35 Z M527.89,12.15 C535.45,12.15 541.4,14.04 545.88,17.96 C550.29,21.74 552.53,26.78 552.53,33.08 C552.53,41.9 548.89,48.41 541.75,52.61 C535.17,56.46 525.16,58.63 511.58,59.12 L509.76,51.84 C522.22,51.28 531.18,49.6 536.57,46.66 C541.75,43.72 544.41,39.24 544.41,33.15 C544.41,29.09 543.01,25.87 540.28,23.42 C537.34,20.76 533.21,19.5 527.89,19.5 C520.75,19.5 509.13,21.53 493.1,25.66 L491.07,18.52 C508.15,14.25 520.4,12.15 527.89,12.15 Z M602.72,7.81 C606.5,9.07 610.21,10.68 613.71,12.71 C617.07,14.67 620.36,17.05 623.51,19.85 L618.68,25.17 C615.74,22.65 612.73,20.48 609.58,18.66 C606.43,16.84 603.14,15.44 599.78,14.39 L602.72,7.81 Z M596.14,11.45 L596.63,18.24 C592.01,18.59 587.32,18.87 582.56,19.08 C581.51,22.44 580.39,25.66 579.2,28.88 C575.84,37.28 571.85,44.98 567.23,51.98 L560.86,47.92 C565.34,41.69 569.12,34.34 572.34,25.87 C573.11,23.77 573.88,21.6 574.65,19.36 C570.87,19.43 567.09,19.5 563.24,19.5 L563.24,12.64 C567.86,12.64 572.34,12.57 576.68,12.5 C577.59,8.93 578.43,5.22 579.27,1.44 L586.62,3.12 C585.99,6.2 585.29,9.28 584.52,12.22 C588.58,12.01 592.5,11.73 596.14,11.45 Z M608.67,23.07 C609.02,31.61 609.3,37.98 609.44,42.25 C614.34,44.49 619.45,47.78 624.77,52.12 L620.08,57.65 C616.02,54.29 612.45,51.77 609.37,49.95 C608.88,53.66 607.55,56.53 605.38,58.49 C602.86,60.66 599.36,61.78 594.74,61.78 C590.54,61.78 587.04,60.94 584.24,59.26 C580.81,57.16 579.13,54.22 579.13,50.3 C579.13,46.45 580.67,43.51 583.89,41.41 C586.55,39.59 589.91,38.68 593.97,38.68 C596.49,38.68 599.15,38.96 601.81,39.66 C601.67,35.53 601.46,30.14 601.18,23.42 L608.67,23.07 Z M601.95,46.66 C599.22,45.82 596.56,45.4 593.97,45.4 C591.8,45.4 590.05,45.82 588.72,46.8 C587.32,47.78 586.69,48.9 586.69,50.3 C586.69,51.98 587.6,53.24 589.56,54.08 C590.96,54.71 592.71,55.06 594.74,55.06 C597.12,55.06 598.94,54.29 600.2,52.89 C601.32,51.49 601.95,49.39 601.95,46.66 Z M689.66,1.3 C693.02,4.31 695.61,7.46 697.43,10.68 L693.3,13.69 C691.27,10.19 688.82,7.04 685.88,4.24 L689.66,1.3 Z M683.64,8.72 C686.79,11.52 689.38,14.74 691.34,18.24 L687.28,21.11 C685.32,17.68 682.8,14.53 679.79,11.66 L683.64,8.72 Z M676.22,2.21 L682.31,7.46 C677.34,12.29 672.37,16.7 667.4,20.69 C662.08,24.89 656.76,28.67 651.44,31.96 C650.6,32.45 650.18,32.8 650.18,33.08 C650.18,33.29 650.6,33.64 651.58,34.2 C657.18,37.35 662.92,40.99 668.73,45.19 C674.05,48.97 679.44,53.24 684.9,57.86 L679.3,64.09 C673.42,59.05 667.75,54.43 662.22,50.37 C656.06,45.75 650.04,41.76 644.23,38.4 C641.57,36.86 640.31,35.04 640.31,33.01 C640.31,31.19 641.29,29.65 643.32,28.53 C647.73,25.87 653.19,22.02 659.63,16.91 C666.28,11.59 671.81,6.69 676.22,2.21 Z" id="path-1"></path>
        <filter x="-1.4%" y="-12.2%" width="102.9%" height="130.6%" filterUnits="objectBoundingBox" id="filter-2">
            <feOffset dx="0" dy="2" in="SourceAlpha" result="shadowOffsetOuter1"></feOffset>
            <feGaussianBlur stdDeviation="3" in="shadowOffsetOuter1" result="shadowBlurOuter1"></feGaussianBlur>
            <feColorMatrix values="0 0 0 0 0   0 0 0 0 0   0 0 0 0 0  0 0 0 0.5 0" type="matrix" in="shadowBlurOuter1"></feColorMatrix>
        </filter>
    </defs>
    <g id="Page-1" stroke="none" stroke-width="1" fill="none" fill-rule="evenodd">
        <g id="1主页-切图" transform="translate(-368.000000, -305.000000)">
            <g id="顶部" transform="translate(0.000000, -5.000000)">
                <g id="banner" transform="translate(373.000000, 313.000000)">
                    <g id="食べ物で世界をつなぐ">
                        <use fill="black" fill-opacity="1" filter="url(#filter-2)" xlink:href="#path-1"></use>
                        <use fill="#F7B759" fill-rule="evenodd" xlink:href="#path-1"></use>
                    </g>
                </g>
            </g>
        </g>
    </g>
</svg>