<?xml version="1.0" encoding="UTF-8"?>
<svg width="685px" height="73px" viewBox="0 0 685 73" version="1.1" xmlns="http://www.w3.org/2000/svg" xmlns:xlink="http://www.w3.org/1999/xlink">
    <!-- Generator: Sketch 52.6 (67491) - http://www.bohemiancoding.com/sketch -->
    <title>Enjoy Food Enjoy Tra</title>
    <desc>Created with Sketch.</desc>
    <defs>
        <path d="M414.300781,365.621094 L414.300781,371 L384.617188,371 L384.617188,323.087891 L414.300781,323.087891 L414.300781,328.466797 L390.59375,328.466797 L390.59375,343.839844 L413.072266,343.839844 L413.072266,349.152344 L390.59375,349.152344 L390.59375,365.621094 L414.300781,365.621094 Z M421.40625,371 L421.40625,336.46875 L426.851562,336.46875 L426.851562,341.980469 L426.984375,341.980469 C427.958338,340.121084 429.358389,338.638026 431.18457,337.53125 C433.010751,336.424474 435.263007,335.871094 437.941406,335.871094 C441.726581,335.871094 444.665029,337.011056 446.756836,339.291016 C448.848643,341.570975 449.894531,344.669902 449.894531,348.587891 L449.894531,371 L444.117188,371 L444.117188,349.617188 C444.117188,346.828111 443.458665,344.692065 442.141602,343.208984 C440.824538,341.725904 438.837904,340.984375 436.181641,340.984375 C433.458971,340.984375 431.278654,341.869783 429.640625,343.640625 C428.002596,345.411467 427.183594,347.757798 427.183594,350.679688 L427.183594,371 L421.40625,371 Z M463.474609,336.46875 L463.474609,372.693359 C463.474609,376.190773 462.616871,378.763989 460.901367,380.413086 C459.185864,382.062183 456.479836,382.886719 452.783203,382.886719 L452.21875,382.886719 C451.886717,382.886719 451.709636,382.875651 451.6875,382.853516 L451.6875,378.039062 L452.583984,378.039062 C454.465504,378.039062 455.788082,377.640629 456.551758,376.84375 C457.315434,376.046871 457.697266,374.685557 457.697266,372.759766 L457.697266,336.46875 L463.474609,336.46875 Z M460.585938,330.658203 C459.611974,330.658203 458.770837,330.30404 458.0625,329.595703 C457.354163,328.887366 457,328.046229 457,327.072266 C457,326.076167 457.354163,325.229496 458.0625,324.532227 C458.770837,323.834957 459.611974,323.486328 460.585938,323.486328 C461.582036,323.486328 462.434241,323.834957 463.142578,324.532227 C463.850915,325.229496 464.205078,326.076167 464.205078,327.072266 C464.205078,328.046229 463.850915,328.887366 463.142578,329.595703 C462.434241,330.30404 461.582036,330.658203 460.585938,330.658203 Z M485.6875,371.597656 C480.906226,371.597656 477.043635,369.992855 474.099609,366.783203 C471.155584,363.573552 469.683594,359.223986 469.683594,353.734375 C469.683594,348.222629 471.155584,343.867529 474.099609,340.668945 C477.043635,337.470362 480.906226,335.871094 485.6875,335.871094 C490.446638,335.871094 494.298162,337.470362 497.242188,340.668945 C500.186213,343.867529 501.658203,348.222629 501.658203,353.734375 C501.658203,359.223986 500.186213,363.573552 497.242188,366.783203 C494.298162,369.992855 490.446638,371.597656 485.6875,371.597656 Z M485.6875,366.517578 C488.742203,366.517578 491.188142,365.405285 493.025391,363.180664 C494.862639,360.956044 495.78125,357.807312 495.78125,353.734375 C495.78125,349.661438 494.862639,346.512706 493.025391,344.288086 C491.188142,342.063465 488.742203,340.951172 485.6875,340.951172 C482.632797,340.951172 480.181324,342.063465 478.333008,344.288086 C476.484691,346.512706 475.560547,349.661438 475.560547,353.734375 C475.560547,357.807312 476.484691,360.956044 478.333008,363.180664 C480.181324,365.405285 482.632797,366.517578 485.6875,366.517578 Z M509.460938,383.916016 C509.239582,383.916016 508.97396,383.910482 508.664062,383.899414 C508.354165,383.888346 508.049806,383.866211 507.750977,383.833008 C507.452147,383.799805 507.192058,383.761068 506.970703,383.716797 L506.970703,378.869141 C507.280601,378.935547 507.645831,378.979818 508.066406,379.001953 C508.486981,379.024089 508.874347,379.035156 509.228516,379.035156 C510.844409,379.035156 512.139318,378.609054 513.113281,377.756836 C514.087244,376.904618 514.906247,375.471364 515.570312,373.457031 L516.367188,371.033203 L503.617188,336.46875 L509.792969,336.46875 L519.355469,365.222656 L519.455078,365.222656 L529.017578,336.46875 L535.09375,336.46875 L521.513672,373.423828 C520.030592,377.452494 518.431324,380.208326 516.71582,381.691406 C515.000317,383.174487 512.582047,383.916016 509.460938,383.916016 Z M560.726562,371 L554.75,371 L554.75,323.087891 L583.835938,323.087891 L583.835938,328.466797 L560.726562,328.466797 L560.726562,344.935547 L581.943359,344.935547 L581.943359,350.248047 L560.726562,350.248047 L560.726562,371 Z M602.861328,371.597656 C598.080054,371.597656 594.217463,369.992855 591.273438,366.783203 C588.329412,363.573552 586.857422,359.223986 586.857422,353.734375 C586.857422,348.222629 588.329412,343.867529 591.273438,340.668945 C594.217463,337.470362 598.080054,335.871094 602.861328,335.871094 C607.620467,335.871094 611.47199,337.470362 614.416016,340.668945 C617.360041,343.867529 618.832031,348.222629 618.832031,353.734375 C618.832031,359.223986 617.360041,363.573552 614.416016,366.783203 C611.47199,369.992855 607.620467,371.597656 602.861328,371.597656 Z M602.861328,366.517578 C605.916031,366.517578 608.36197,365.405285 610.199219,363.180664 C612.036468,360.956044 612.955078,357.807312 612.955078,353.734375 C612.955078,349.661438 612.036468,346.512706 610.199219,344.288086 C608.36197,342.063465 605.916031,340.951172 602.861328,340.951172 C599.806625,340.951172 597.355152,342.063465 595.506836,344.288086 C593.658519,346.512706 592.734375,349.661438 592.734375,353.734375 C592.734375,357.807312 593.658519,360.956044 595.506836,363.180664 C597.355152,365.405285 599.806625,366.517578 602.861328,366.517578 Z M639.085938,371.597656 C634.304664,371.597656 630.442072,369.992855 627.498047,366.783203 C624.554022,363.573552 623.082031,359.223986 623.082031,353.734375 C623.082031,348.222629 624.554022,343.867529 627.498047,340.668945 C630.442072,337.470362 634.304664,335.871094 639.085938,335.871094 C643.845076,335.871094 647.6966,337.470362 650.640625,340.668945 C653.58465,343.867529 655.056641,348.222629 655.056641,353.734375 C655.056641,359.223986 653.58465,363.573552 650.640625,366.783203 C647.6966,369.992855 643.845076,371.597656 639.085938,371.597656 Z M639.085938,366.517578 C642.14064,366.517578 644.586579,365.405285 646.423828,363.180664 C648.261077,360.956044 649.179688,357.807312 649.179688,353.734375 C649.179688,349.661438 648.261077,346.512706 646.423828,344.288086 C644.586579,342.063465 642.14064,340.951172 639.085938,340.951172 C636.031235,340.951172 633.579762,342.063465 631.731445,344.288086 C629.883129,346.512706 628.958984,349.661438 628.958984,353.734375 C628.958984,357.807312 629.883129,360.956044 631.731445,363.180664 C633.579762,365.405285 636.031235,366.517578 639.085938,366.517578 Z M674.082031,371.597656 C669.677061,371.597656 666.113295,369.970719 663.390625,366.716797 C660.667955,363.462874 659.306641,359.135444 659.306641,353.734375 C659.306641,348.311171 660.662421,343.978206 663.374023,340.735352 C666.085626,337.492497 669.610655,335.871094 673.949219,335.871094 C676.428398,335.871094 678.625316,336.430007 680.540039,337.547852 C682.454762,338.665696 683.921219,340.176423 684.939453,342.080078 L685.072266,342.080078 L685.072266,323.087891 L690.849609,323.087891 L690.849609,371 L685.337891,371 L685.337891,365.15625 L685.238281,365.15625 C684.131505,367.148447 682.620778,368.720046 680.706055,369.871094 C678.791332,371.022141 676.583346,371.597656 674.082031,371.597656 Z M675.177734,340.951172 C672.123032,340.951172 669.699228,342.107736 667.90625,344.420898 C666.113272,346.734061 665.216797,349.838522 665.216797,353.734375 C665.216797,357.652363 666.113272,360.762358 667.90625,363.064453 C669.699228,365.366548 672.123032,366.517578 675.177734,366.517578 C678.143895,366.517578 680.54003,365.35548 682.366211,363.03125 C684.192392,360.70702 685.105469,357.608092 685.105469,353.734375 C685.105469,349.882793 684.192392,346.7894 682.366211,344.454102 C680.54003,342.118803 678.143895,340.951172 675.177734,340.951172 Z M757.521484,365.621094 L757.521484,371 L727.837891,371 L727.837891,323.087891 L757.521484,323.087891 L757.521484,328.466797 L733.814453,328.466797 L733.814453,343.839844 L756.292969,343.839844 L756.292969,349.152344 L733.814453,349.152344 L733.814453,365.621094 L757.521484,365.621094 Z M764.626953,371 L764.626953,336.46875 L770.072266,336.46875 L770.072266,341.980469 L770.205078,341.980469 C771.179041,340.121084 772.579092,338.638026 774.405273,337.53125 C776.231454,336.424474 778.483711,335.871094 781.162109,335.871094 C784.947285,335.871094 787.885732,337.011056 789.977539,339.291016 C792.069346,341.570975 793.115234,344.669902 793.115234,348.587891 L793.115234,371 L787.337891,371 L787.337891,349.617188 C787.337891,346.828111 786.679369,344.692065 785.362305,343.208984 C784.045241,341.725904 782.058607,340.984375 779.402344,340.984375 C776.679674,340.984375 774.499357,341.869783 772.861328,343.640625 C771.223299,345.411467 770.404297,347.757798 770.404297,350.679688 L770.404297,371 L764.626953,371 Z M806.695312,336.46875 L806.695312,372.693359 C806.695312,376.190773 805.837574,378.763989 804.12207,380.413086 C802.406567,382.062183 799.700539,382.886719 796.003906,382.886719 L795.439453,382.886719 C795.10742,382.886719 794.930339,382.875651 794.908203,382.853516 L794.908203,378.039062 L795.804688,378.039062 C797.686207,378.039062 799.008785,377.640629 799.772461,376.84375 C800.536137,376.046871 800.917969,374.685557 800.917969,372.759766 L800.917969,336.46875 L806.695312,336.46875 Z M803.806641,330.658203 C802.832677,330.658203 801.99154,330.30404 801.283203,329.595703 C800.574866,328.887366 800.220703,328.046229 800.220703,327.072266 C800.220703,326.076167 800.574866,325.229496 801.283203,324.532227 C801.99154,323.834957 802.832677,323.486328 803.806641,323.486328 C804.802739,323.486328 805.654944,323.834957 806.363281,324.532227 C807.071618,325.229496 807.425781,326.076167 807.425781,327.072266 C807.425781,328.046229 807.071618,328.887366 806.363281,329.595703 C805.654944,330.30404 804.802739,330.658203 803.806641,330.658203 Z M828.908203,371.597656 C824.126929,371.597656 820.264338,369.992855 817.320312,366.783203 C814.376287,363.573552 812.904297,359.223986 812.904297,353.734375 C812.904297,348.222629 814.376287,343.867529 817.320312,340.668945 C820.264338,337.470362 824.126929,335.871094 828.908203,335.871094 C833.667342,335.871094 837.518865,337.470362 840.462891,340.668945 C843.406916,343.867529 844.878906,348.222629 844.878906,353.734375 C844.878906,359.223986 843.406916,363.573552 840.462891,366.783203 C837.518865,369.992855 833.667342,371.597656 828.908203,371.597656 Z M828.908203,366.517578 C831.962906,366.517578 834.408845,365.405285 836.246094,363.180664 C838.083343,360.956044 839.001953,357.807312 839.001953,353.734375 C839.001953,349.661438 838.083343,346.512706 836.246094,344.288086 C834.408845,342.063465 831.962906,340.951172 828.908203,340.951172 C825.8535,340.951172 823.402027,342.063465 821.553711,344.288086 C819.705394,346.512706 818.78125,349.661438 818.78125,353.734375 C818.78125,357.807312 819.705394,360.956044 821.553711,363.180664 C823.402027,365.405285 825.8535,366.517578 828.908203,366.517578 Z M852.681641,383.916016 C852.460285,383.916016 852.194663,383.910482 851.884766,383.899414 C851.574868,383.888346 851.270509,383.866211 850.97168,383.833008 C850.67285,383.799805 850.412762,383.761068 850.191406,383.716797 L850.191406,378.869141 C850.501304,378.935547 850.866534,378.979818 851.287109,379.001953 C851.707684,379.024089 852.09505,379.035156 852.449219,379.035156 C854.065112,379.035156 855.360021,378.609054 856.333984,377.756836 C857.307948,376.904618 858.12695,375.471364 858.791016,373.457031 L859.587891,371.033203 L846.837891,336.46875 L853.013672,336.46875 L862.576172,365.222656 L862.675781,365.222656 L872.238281,336.46875 L878.314453,336.46875 L864.734375,373.423828 C863.251295,377.452494 861.652027,380.208326 859.936523,381.691406 C858.22102,383.174487 855.80275,383.916016 852.681641,383.916016 Z M916.066406,371 L910.089844,371 L910.089844,328.466797 L894.982422,328.466797 L894.982422,323.087891 L931.173828,323.087891 L931.173828,328.466797 L916.066406,328.466797 L916.066406,371 Z M929.082031,371 L929.082031,336.46875 L934.527344,336.46875 L934.527344,342.113281 L934.660156,342.113281 C935.899746,337.951802 938.68878,335.871094 943.027344,335.871094 C943.536461,335.871094 943.995766,335.898763 944.405273,335.954102 C944.814781,336.00944 945.130207,336.059245 945.351562,336.103516 L945.351562,341.714844 C945.130207,341.626302 944.737308,341.548828 944.172852,341.482422 C943.608396,341.416015 942.972009,341.382812 942.263672,341.382812 C940.027984,341.382812 938.235033,342.124342 936.884766,343.607422 C935.534498,345.090502 934.859375,347.049467 934.859375,349.484375 L934.859375,371 L929.082031,371 Z M960.890625,366.683594 C963.613295,366.683594 965.898754,365.836923 967.74707,364.143555 C969.595387,362.450187 970.519531,360.363945 970.519531,357.884766 L970.519531,355.0625 L961.289062,355.626953 C956.419246,355.936851 953.984375,357.807275 953.984375,361.238281 C953.984375,362.87631 954.615228,364.193354 955.876953,365.189453 C957.138678,366.185552 958.809885,366.683594 960.890625,366.683594 Z M959.595703,371.597656 C956.164696,371.597656 953.392263,370.645843 951.27832,368.742188 C949.164377,366.838532 948.107422,364.337255 948.107422,361.238281 C948.107422,358.272121 949.19758,355.903655 951.37793,354.132812 C953.558279,352.36197 956.640605,351.365887 960.625,351.144531 L970.519531,350.580078 L970.519531,347.691406 C970.519531,345.588531 969.855475,343.939459 968.527344,342.744141 C967.199212,341.548822 965.339856,340.951172 962.949219,340.951172 C960.735666,340.951172 958.948249,341.438146 957.586914,342.412109 C956.225579,343.386073 955.356773,344.725252 954.980469,346.429688 L949.402344,346.429688 C949.601563,343.441391 950.913074,340.93458 953.336914,338.90918 C955.760754,336.883779 959.009094,335.871094 963.082031,335.871094 C967.132833,335.871094 970.34797,336.889313 972.727539,338.925781 C975.107108,340.96225 976.296875,343.695946 976.296875,347.126953 L976.296875,371 L970.818359,371 L970.818359,365.056641 L970.685547,365.056641 C969.667313,367.026703 968.145518,368.609369 966.120117,369.804688 C964.094716,371.000006 961.919933,371.597656 959.595703,371.597656 Z M1012.08984,336.46875 L1010.81152,339.955078 C1009.95931,342.279308 1008.90235,345.156884 1007.64062,348.587891 L1003.85547,358.880859 C1002.59374,362.311866 1001.53679,365.189442 1000.68457,367.513672 L999.40625,371 L993.496094,371 L980.779297,336.46875 L986.855469,336.46875 L996.384766,364.857422 L996.517578,364.857422 L1006.08008,336.46875 L1012.08984,336.46875 Z M1029.58789,340.884766 C1026.88736,340.884766 1024.66277,341.814444 1022.91406,343.673828 C1021.16536,345.533212 1020.20247,347.901678 1020.02539,350.779297 L1038.78516,350.779297 C1038.71875,347.879543 1037.84994,345.505543 1036.17871,343.657227 C1034.50748,341.80891 1032.31056,340.884766 1029.58789,340.884766 Z M1038.65234,361.105469 L1044.33008,361.105469 C1043.8431,364.1159 1042.26596,366.617178 1039.59863,368.609375 C1036.9313,370.601572 1033.71616,371.597656 1029.95312,371.597656 C1025.0169,371.597656 1021.13218,369.998388 1018.29883,366.799805 C1015.46548,363.601221 1014.04883,359.290392 1014.04883,353.867188 C1014.04883,348.51039 1015.46548,344.171892 1018.29883,340.851562 C1021.13218,337.531233 1024.92836,335.871094 1029.6875,335.871094 C1034.3581,335.871094 1038.03807,337.437159 1040.72754,340.569336 C1043.41701,343.701513 1044.76172,347.879531 1044.76172,353.103516 L1044.76172,355.294922 L1019.99219,355.294922 L1019.99219,355.626953 C1019.99219,358.925147 1020.89973,361.575836 1022.71484,363.579102 C1024.52996,365.582367 1026.98696,366.583984 1030.08594,366.583984 C1032.27735,366.583984 1034.13118,366.074875 1035.64746,365.056641 C1037.16374,364.038406 1038.16536,362.721362 1038.65234,361.105469 Z M1051.00391,371 C1051.00391,371 1051.00391,369.84897 1051.00391,367.546875 C1051.00391,365.24478 1051.00391,362.27313 1051.00391,358.631836 C1051.00391,354.990542 1051.00391,351.12795 1051.00391,347.043945 C1051.00391,342.959941 1051.00391,339.097349 1051.00391,335.456055 C1051.00391,331.81476 1051.00391,328.84311 1051.00391,326.541016 C1051.00391,324.238921 1051.00391,323.087891 1051.00391,323.087891 L1056.78125,323.087891 L1056.78125,371 L1051.00391,371 Z" id="path-1"></path>
        <filter x="-1.5%" y="-13.2%" width="103.0%" height="132.9%" filterUnits="objectBoundingBox" id="filter-2">
            <feOffset dx="0" dy="2" in="SourceAlpha" result="shadowOffsetOuter1"></feOffset>
            <feGaussianBlur stdDeviation="3" in="shadowOffsetOuter1" result="shadowBlurOuter1"></feGaussianBlur>
            <feColorMatrix values="0 0 0 0 0   0 0 0 0 0   0 0 0 0 0  0 0 0 0.5 0" type="matrix" in="shadowBlurOuter1"></feColorMatrix>
        </filter>
    </defs>
    <g id="Page-1" stroke="none" stroke-width="1" fill="none" fill-rule="evenodd">
        <g id="官网主页" transform="translate(-378.000000, -319.000000)">
            <g id="顶部">
                <g id="Enjoy-Food-Enjoy-Tra">
                    <use fill="black" fill-opacity="1" filter="url(#filter-2)" xlink:href="#path-1"></use>
                    <use fill="#DDBE7A" fill-rule="evenodd" xlink:href="#path-1"></use>
                </g>
            </g>
        </g>
    </g>
</svg>