<?xml version="1.0" encoding="UTF-8"?>
<svg width="1015px" height="411px" viewBox="0 0 1015 411" version="1.1" xmlns="http://www.w3.org/2000/svg" xmlns:xlink="http://www.w3.org/1999/xlink">
    <!-- Generator: Sketch 52.6 (67491) - http://www.bohemiancoding.com/sketch -->
    <title>折线图</title>
    <desc>Created with Sketch.</desc>
    <g id="Page-1" stroke="none" stroke-width="1" fill="none" fill-rule="evenodd">
        <g id="1主页-切图" transform="translate(-203.000000, -1794.000000)">
            <g id="统计" transform="translate(0.000000, 1574.000000)">
                <g id="chart2" transform="translate(203.000000, 68.000000)">
                    <g id="折线图" transform="translate(0.000000, 152.000000)">
                        <path d="M533,-124.889655 L533,839.255454" id="直线" stroke="#E5E5E5" stroke-linecap="square" stroke-dasharray="6" transform="translate(533.000000, 357.000000) rotate(-270.000000) translate(-533.000000, -357.000000) "></path>
                        <path d="M533,-182.889655 L533,781.255454" id="直线-copy" stroke="#E5E5E5" stroke-linecap="square" stroke-dasharray="6" transform="translate(533.000000, 299.000000) rotate(-270.000000) translate(-533.000000, -299.000000) "></path>
                        <path d="M533,-241.889655 L533,722.255454" id="直线-copy-2" stroke="#E5E5E5" stroke-linecap="square" stroke-dasharray="6" transform="translate(533.000000, 240.000000) rotate(-270.000000) translate(-533.000000, -240.000000) "></path>
                        <path d="M533,-305.889655 L533,658.255454" id="直线-copy-3" stroke="#E5E5E5" stroke-linecap="square" stroke-dasharray="6" transform="translate(533.000000, 176.000000) rotate(-270.000000) translate(-533.000000, -176.000000) "></path>
                        <path d="M526,-358.889655 L526,605.255454" id="直线-copy-4" stroke="#E5E5E5" stroke-linecap="square" stroke-dasharray="6" transform="translate(526.000000, 123.000000) rotate(-270.000000) translate(-526.000000, -123.000000) "></path>
                        <path d="M526,-417.889655 L526,546.255454" id="直线-copy-6" stroke="#E5E5E5" stroke-linecap="square" stroke-dasharray="6" transform="translate(526.000000, 64.000000) rotate(-270.000000) translate(-526.000000, -64.000000) "></path>
                        <path d="M533,-475.889655 L533,488.255454" id="直线-copy-7" stroke="#E5E5E5" stroke-linecap="square" stroke-dasharray="6" transform="translate(533.000000, 6.000000) rotate(-270.000000) translate(-533.000000, -6.000000) "></path>
                        <path d="M95.05,367.482 C97.12,368.04 98.884,368.796 100.36,369.75 L99.604,370.848 C98.254,369.984 96.544,369.282 94.474,368.742 L95.05,367.482 Z M105.796,371.01 L107.11,371.514 C106.048,373.998 104.482,376.14 102.412,377.976 C100.162,379.956 97.57,381.324 94.654,382.044 L94.006,380.748 C96.742,380.064 99.172,378.822 101.332,376.986 C103.348,375.258 104.824,373.278 105.796,371.01 Z M93.466,371.604 C95.23,372.036 96.994,372.756 98.758,373.746 L98.038,374.934 C96.508,374.07 94.798,373.368 92.89,372.864 L93.466,371.604 Z M113.482,371.874 L122.698,371.874 L122.698,381.108 L113.302,381.108 L113.302,379.83 L121.312,379.83 L121.312,377.076 L113.716,377.076 L113.716,375.798 L121.312,375.798 L121.312,373.152 L113.482,373.152 L113.482,371.874 Z M134.704,371.028 C135.19,371.766 135.604,372.414 135.946,372.972 C136.342,373.584 136.684,374.214 137.008,374.826 L135.874,375.492 C135.28,374.358 134.524,373.08 133.588,371.676 L134.704,371.028 Z M140.194,371.514 L141.544,371.748 C141.076,374.286 140.266,376.374 139.096,377.994 C137.818,379.704 136.036,381 133.768,381.882 L133.012,380.766 C135.136,379.92 136.774,378.75 137.926,377.238 C139.006,375.798 139.762,373.89 140.194,371.514 Z M131.554,372.09 C132.454,373.422 133.21,374.682 133.822,375.87 L132.706,376.554 C132.004,375.222 131.248,373.962 130.42,372.774 L131.554,372.09 Z M160.75,365.754 C161.254,365.754 161.704,365.934 162.082,366.312 C162.442,366.672 162.64,367.122 162.64,367.662 C162.64,368.166 162.442,368.616 162.082,368.976 C161.704,369.336 161.254,369.534 160.75,369.534 C160.228,369.534 159.778,369.336 159.418,368.976 C159.04,368.616 158.86,368.166 158.86,367.662 C158.86,367.122 159.04,366.672 159.418,366.312 C159.778,365.934 160.228,365.754 160.75,365.754 Z M160.75,366.546 C160.444,366.546 160.192,366.654 159.976,366.87 C159.76,367.086 159.652,367.338 159.652,367.662 C159.652,367.95 159.76,368.202 159.976,368.418 C160.192,368.634 160.444,368.742 160.75,368.742 C161.038,368.742 161.308,368.634 161.524,368.418 C161.74,368.202 161.848,367.95 161.848,367.662 C161.848,367.338 161.74,367.086 161.524,366.87 C161.308,366.654 161.038,366.546 160.75,366.546 Z M148.87,367.428 L150.256,367.428 C150.22,369.426 150.202,371.496 150.202,373.638 C153.622,372.738 156.628,371.568 159.256,370.146 L160.03,371.226 C157.384,372.666 154.108,373.926 150.202,375.024 L150.202,377.814 C150.202,378.642 150.436,379.218 150.922,379.524 C151.534,379.884 152.776,380.082 154.666,380.082 C156.646,380.082 158.554,379.956 160.408,379.722 L160.39,381.072 C157.654,381.252 155.782,381.36 154.774,381.36 C152.362,381.36 150.778,381.126 149.986,380.694 C149.194,380.226 148.798,379.308 148.798,377.922 C148.798,373.89 148.816,370.398 148.87,367.428 Z M165.754,367.788 C167.248,368.562 169.03,369.714 171.082,371.244 L170.182,372.324 C168.202,370.866 166.51,369.75 165.07,368.994 L165.754,367.788 Z M177.904,370.704 L179.2,371.226 C178.012,373.962 176.41,376.248 174.394,378.048 C172.234,379.956 169.624,381.306 166.6,382.08 L165.952,380.82 C168.724,380.136 171.154,378.894 173.242,377.094 C175.222,375.366 176.788,373.224 177.904,370.704 Z M106.84,390.808 C107.632,391.582 108.28,392.392 108.784,393.22 L108.01,393.796 C107.47,392.878 106.84,392.068 106.12,391.366 L106.84,390.808 Z M104.266,390.88 C105.022,391.636 105.67,392.446 106.192,393.328 L105.436,393.868 C104.896,392.968 104.248,392.176 103.528,391.456 L104.266,390.88 Z M98.506,391.762 L99.82,392.194 C99.568,392.878 99.28,393.562 98.974,394.21 L105.094,394.21 L105.958,394.678 C105.454,397.612 104.374,400.132 102.718,402.256 C101.026,404.362 98.812,405.964 96.076,407.044 L95.338,405.838 C97.678,404.938 99.604,403.642 101.116,401.968 C102.736,400.168 103.816,398.026 104.356,395.524 L98.272,395.524 C98.02,395.938 97.768,396.334 97.498,396.73 C96.526,398.098 95.356,399.304 93.988,400.384 L93.016,399.448 C94.294,398.422 95.41,397.234 96.382,395.902 C97.318,394.534 98.038,393.166 98.506,391.762 Z M116.722,394.048 C116.164,394.048 115.732,394.192 115.426,394.48 C115.12,394.732 114.976,395.11 114.976,395.614 C114.976,395.956 115.156,396.388 115.552,396.928 C115.732,397.18 116.02,397.522 116.398,397.936 C116.506,397.864 116.632,397.81 116.776,397.738 C117.892,397.09 118.45,396.388 118.45,395.632 C118.45,395.164 118.288,394.804 118,394.516 C117.694,394.192 117.262,394.048 116.722,394.048 Z M115.192,398.62 C114.634,398.008 114.256,397.54 114.04,397.198 C113.68,396.658 113.518,396.136 113.518,395.632 C113.518,394.768 113.842,394.102 114.49,393.598 C115.066,393.13 115.822,392.896 116.74,392.896 C117.64,392.896 118.396,393.13 118.99,393.598 C119.602,394.066 119.926,394.714 119.926,395.542 C119.926,396.586 119.35,397.486 118.234,398.224 C117.874,398.404 117.532,398.602 117.208,398.8 L120.412,402.184 C120.88,401.176 121.15,399.934 121.24,398.476 L122.68,398.476 C122.608,400.384 122.212,401.986 121.456,403.282 L124.03,406 L122.158,406 L120.664,404.416 C119.584,405.64 118.198,406.252 116.488,406.252 C115.174,406.252 114.112,405.928 113.302,405.316 C112.42,404.632 111.988,403.696 111.988,402.49 C111.988,401.302 112.546,400.294 113.662,399.484 L115.192,398.62 Z M119.692,403.39 L116.002,399.466 L115.138,399.952 C114.004,400.654 113.446,401.5 113.446,402.508 C113.446,403.228 113.734,403.822 114.328,404.29 C114.868,404.722 115.57,404.938 116.434,404.938 C117.784,404.938 118.864,404.416 119.692,403.39 Z M135.136,407.602 L132.382,407.602 L132.076,406.252 C132.976,406.324 133.84,406.36 134.65,406.36 C135.316,406.36 135.658,406.018 135.658,405.352 L135.658,391.564 L136.99,391.564 L136.99,405.694 C136.99,406.954 136.36,407.602 135.136,407.602 Z M130.834,395.74 L132.13,396.244 C131.266,399.844 130.132,402.58 128.728,404.452 L127.612,403.462 C129.052,401.554 130.114,398.98 130.834,395.74 Z M141.058,395.308 C142.48,398.53 143.578,401.338 144.334,403.732 L143.182,404.542 C142.372,401.986 141.274,399.16 139.888,396.046 L141.058,395.308 Z M151.084,400.816 L152.416,400.816 C152.416,402.292 152.182,403.534 151.732,404.578 C151.138,405.91 149.788,407.008 147.682,407.872 L146.8,406.792 C148.618,406.108 149.824,405.244 150.418,404.2 C150.85,403.3 151.084,402.184 151.084,400.816 Z M146.926,392.86 L153.352,392.86 L153.352,391.33 L154.648,391.33 L154.648,392.86 L161.074,392.86 L161.074,394.066 L154.648,394.066 L154.648,395.722 L159.94,395.722 L159.94,396.91 L148.024,396.91 L148.024,395.722 L153.352,395.722 L153.352,394.066 L146.926,394.066 L146.926,392.86 Z M160.984,398.422 L160.984,402.04 L159.688,402.04 L159.688,399.61 L148.294,399.61 L148.294,402.112 L146.998,402.112 L146.998,398.422 L160.984,398.422 Z M159.292,407.566 L156.862,407.566 C155.782,407.566 155.242,407.008 155.242,405.892 L155.242,400.798 L156.556,400.798 L156.556,405.64 C156.556,406.126 156.772,406.378 157.222,406.378 L158.95,406.378 C159.274,406.378 159.526,406.306 159.724,406.162 C159.994,405.946 160.174,405.244 160.246,404.038 L161.488,404.434 C161.326,405.928 161.074,406.846 160.714,407.17 C160.39,407.422 159.904,407.548 159.292,407.566 Z" id="ショッピン-グ＆小売" fill="#222222"></path>
                        <path d="M257.024,372.3 L268.976,372.3 L268.976,373.614 L263.702,373.614 L263.702,382.56 L270.2,382.56 L270.2,383.874 L255.8,383.874 L255.8,382.56 L262.298,382.56 L262.298,373.614 L257.024,373.614 L257.024,372.3 Z M274.754,370.788 C276.248,371.562 278.03,372.714 280.082,374.244 L279.182,375.324 C277.202,373.866 275.51,372.75 274.07,371.994 L274.754,370.788 Z M286.904,373.704 L288.2,374.226 C287.012,376.962 285.41,379.248 283.394,381.048 C281.234,382.956 278.624,384.306 275.6,385.08 L274.952,383.82 C277.724,383.136 280.154,381.894 282.242,380.094 C284.222,378.366 285.788,376.224 286.904,373.704 Z M297.506,369.726 L298.82,370.14 C298.604,370.752 298.37,371.364 298.082,371.976 L304.202,371.976 L305.066,372.462 C304.598,375.288 303.536,377.79 301.844,379.986 C300.062,382.272 297.794,383.964 295.058,385.044 L294.302,383.838 C296.75,382.866 298.784,381.444 300.404,379.572 C300.458,379.5 300.512,379.446 300.566,379.374 C300.062,379.014 299.504,378.636 298.928,378.258 C297.956,377.628 297.056,377.106 296.246,376.71 L297.074,375.702 C297.902,376.134 298.802,376.638 299.738,377.214 C300.332,377.574 300.872,377.934 301.376,378.294 C302.384,376.782 303.104,375.126 303.5,373.29 L297.38,373.29 C297.092,373.794 296.768,374.28 296.426,374.766 C295.418,376.152 294.284,377.358 292.988,378.384 L292.034,377.448 C293.294,376.404 294.41,375.216 295.382,373.884 C296.336,372.516 297.038,371.13 297.506,369.726 Z M310.322,376.836 L323.696,376.836 L323.696,378.15 L310.322,378.15 L310.322,376.836 Z M329.06,371.058 L340.274,371.058 L340.274,372.354 L329.06,372.354 L329.06,371.058 Z M327.494,375.468 L342.29,375.468 L342.29,376.764 L335.792,376.764 C335.702,378.69 335.324,380.256 334.676,381.462 C333.902,382.866 332.552,384.09 330.626,385.17 L329.69,384.126 C331.418,383.19 332.642,382.11 333.344,380.904 C333.956,379.86 334.298,378.474 334.37,376.764 L327.494,376.764 L327.494,375.468 Z M357.842,369.87 L358.904,370.788 C357.554,372.264 355.916,373.704 354.008,375.126 L354.008,384.9 L352.604,384.9 L352.604,376.116 C350.48,377.538 348.392,378.69 346.322,379.572 L345.584,378.384 C347.708,377.484 349.922,376.206 352.262,374.586 C354.548,372.966 356.402,371.4 357.842,369.87 Z M366.572,373.524 C368.516,374.388 370.334,375.342 372.026,376.422 C372.926,374.694 373.718,372.642 374.402,370.266 L375.806,370.608 C375.086,373.164 374.24,375.36 373.232,377.232 C375.032,378.474 376.778,379.932 378.47,381.606 L377.498,382.614 C375.842,381.03 374.168,379.644 372.512,378.456 C372.368,378.654 372.242,378.852 372.116,379.05 C370.352,381.606 368.048,383.568 365.222,384.936 L364.322,383.82 C367.058,382.524 369.254,380.67 370.928,378.258 C371.054,378.06 371.18,377.862 371.324,377.646 C369.65,376.566 367.85,375.594 365.942,374.766 L366.572,373.524 Z M382.754,370.788 C384.248,371.562 386.03,372.714 388.082,374.244 L387.182,375.324 C385.202,373.866 383.51,372.75 382.07,371.994 L382.754,370.788 Z M394.904,373.704 L396.2,374.226 C395.012,376.962 393.41,379.248 391.394,381.048 C389.234,382.956 386.624,384.306 383.6,385.08 L382.952,383.82 C385.724,383.136 388.154,381.894 390.242,380.094 C392.222,378.366 393.788,376.224 394.904,373.704 Z M403.742,369.96 L405.164,369.96 L405.164,375.666 C406.514,375.9 407.954,376.278 409.466,376.782 C410.87,377.232 412.184,377.754 413.408,378.348 L412.796,379.536 C411.68,378.996 410.456,378.51 409.16,378.078 C407.738,377.61 406.406,377.25 405.164,377.034 L405.164,385.116 L403.742,385.116 L403.742,369.96 Z M261.722,397.048 C261.164,397.048 260.732,397.192 260.426,397.48 C260.12,397.732 259.976,398.11 259.976,398.614 C259.976,398.956 260.156,399.388 260.552,399.928 C260.732,400.18 261.02,400.522 261.398,400.936 C261.506,400.864 261.632,400.81 261.776,400.738 C262.892,400.09 263.45,399.388 263.45,398.632 C263.45,398.164 263.288,397.804 263,397.516 C262.694,397.192 262.262,397.048 261.722,397.048 Z M260.192,401.62 C259.634,401.008 259.256,400.54 259.04,400.198 C258.68,399.658 258.518,399.136 258.518,398.632 C258.518,397.768 258.842,397.102 259.49,396.598 C260.066,396.13 260.822,395.896 261.74,395.896 C262.64,395.896 263.396,396.13 263.99,396.598 C264.602,397.066 264.926,397.714 264.926,398.542 C264.926,399.586 264.35,400.486 263.234,401.224 C262.874,401.404 262.532,401.602 262.208,401.8 L265.412,405.184 C265.88,404.176 266.15,402.934 266.24,401.476 L267.68,401.476 C267.608,403.384 267.212,404.986 266.456,406.282 L269.03,409 L267.158,409 L265.664,407.416 C264.584,408.64 263.198,409.252 261.488,409.252 C260.174,409.252 259.112,408.928 258.302,408.316 C257.42,407.632 256.988,406.696 256.988,405.49 C256.988,404.302 257.546,403.294 258.662,402.484 L260.192,401.62 Z M264.692,406.39 L261.002,402.466 L260.138,402.952 C259.004,403.654 258.446,404.5 258.446,405.508 C258.446,406.228 258.734,406.822 259.328,407.29 C259.868,407.722 260.57,407.938 261.434,407.938 C262.784,407.938 263.864,407.416 264.692,406.39 Z M276.896,395.374 L278.336,395.374 L278.336,408.262 C279.992,407.722 281.684,406.858 283.376,405.67 C285.086,404.446 286.472,403.132 287.534,401.71 L288.65,402.52 C287.264,404.32 285.626,405.868 283.718,407.146 C281.828,408.388 279.794,409.306 277.598,409.918 L276.896,409.306 L276.896,395.374 Z M297.506,394.762 L298.82,395.194 C298.568,395.878 298.28,396.562 297.974,397.21 L304.094,397.21 L304.958,397.678 C304.454,400.612 303.374,403.132 301.718,405.256 C300.026,407.362 297.812,408.964 295.076,410.044 L294.338,408.838 C296.678,407.938 298.604,406.642 300.116,404.968 C301.736,403.168 302.816,401.026 303.356,398.524 L297.272,398.524 C297.02,398.938 296.768,399.334 296.498,399.73 C295.526,401.098 294.356,402.304 292.988,403.384 L292.016,402.448 C293.294,401.422 294.41,400.234 295.382,398.902 C296.318,397.534 297.038,396.166 297.506,394.762 Z M320.636,395.626 L322.04,395.626 L322.04,401.548 C322.04,403.816 321.518,405.652 320.492,407.02 C319.394,408.478 317.666,409.504 315.29,410.116 L314.642,408.874 C316.856,408.316 318.44,407.38 319.394,406.084 C320.222,404.95 320.636,403.402 320.636,401.458 L320.636,395.626 Z M311.96,396.004 L313.382,396.004 L313.382,404.662 L311.96,404.662 L311.96,396.004 Z M329.024,397.3 L340.976,397.3 L340.976,398.614 L335.702,398.614 L335.702,407.56 L342.2,407.56 L342.2,408.874 L327.8,408.874 L327.8,407.56 L334.298,407.56 L334.298,398.614 L329.024,398.614 L329.024,397.3 Z M346.322,401.836 L359.696,401.836 L359.696,403.15 L346.322,403.15 L346.322,401.836 Z M366.05,395.482 C368.12,396.04 369.884,396.796 371.36,397.75 L370.604,398.848 C369.254,397.984 367.544,397.282 365.474,396.742 L366.05,395.482 Z M376.796,399.01 L378.11,399.514 C377.048,401.998 375.482,404.14 373.412,405.976 C371.162,407.956 368.57,409.324 365.654,410.044 L365.006,408.748 C367.742,408.064 370.172,406.822 372.332,404.986 C374.348,403.258 375.824,401.278 376.796,399.01 Z M364.466,399.604 C366.23,400.036 367.994,400.756 369.758,401.746 L369.038,402.934 C367.508,402.07 365.798,401.368 363.89,400.864 L364.466,399.604 Z M384.482,399.874 L393.698,399.874 L393.698,409.108 L384.302,409.108 L384.302,407.83 L392.312,407.83 L392.312,405.076 L384.716,405.076 L384.716,403.798 L392.312,403.798 L392.312,401.152 L384.482,401.152 L384.482,399.874 Z M400.754,395.788 C402.248,396.562 404.03,397.714 406.082,399.244 L405.182,400.324 C403.202,398.866 401.51,397.75 400.07,396.994 L400.754,395.788 Z M412.904,398.704 L414.2,399.226 C413.012,401.962 411.41,404.248 409.394,406.048 C407.234,407.956 404.624,409.306 401.6,410.08 L400.952,408.82 C403.724,408.136 406.154,406.894 408.242,405.094 C410.222,403.366 411.788,401.224 412.904,398.704 Z" id="エンターテイメント-＆レクリエーション" fill="#222222"></path>
                        <path d="M498.544,368.436 L505.978,368.436 C505.654,367.698 505.294,367.032 504.898,366.42 L506.338,366.168 C506.698,366.852 507.058,367.608 507.382,368.436 L514.474,368.436 L514.474,369.678 L498.544,369.678 L498.544,368.436 Z M509.344,370.218 C511.342,371.802 513.016,373.368 514.366,374.952 L513.412,375.906 C512.224,374.394 510.568,372.792 508.462,371.064 L509.344,370.218 Z M509.524,373.584 L510.712,374.106 C509.848,375.762 508.804,377.184 507.562,378.39 C509.506,379.794 511.864,380.838 514.672,381.558 L513.862,382.764 C510.946,381.936 508.516,380.784 506.572,379.272 C504.556,380.892 502.108,382.08 499.228,382.836 L498.436,381.648 C501.28,380.928 503.638,379.848 505.528,378.408 C504.214,377.22 503.134,375.852 502.288,374.34 L503.404,373.71 C504.196,375.186 505.24,376.464 506.518,377.562 C507.742,376.41 508.75,375.096 509.524,373.584 Z M503.548,370.236 L504.484,371.064 C503.116,372.846 501.424,374.412 499.408,375.744 L498.58,374.646 C500.542,373.386 502.198,371.928 503.548,370.236 Z M517.768,366.582 C519.01,367.518 520.054,368.454 520.9,369.39 L519.982,370.29 C519.226,369.39 518.2,368.436 516.886,367.428 L517.768,366.582 Z M528.298,382.476 C527.308,382.476 526.228,382.458 525.076,382.44 C523.906,382.422 522.952,382.314 522.232,382.116 C521.512,381.9 520.864,381.45 520.306,380.802 C520.054,380.496 519.82,380.352 519.604,380.352 C519.172,380.352 518.452,381.18 517.462,382.836 L516.49,381.954 C517.444,380.442 518.29,379.524 519.028,379.2 L519.028,373.728 L516.472,373.728 L516.472,372.54 L520.234,372.54 L520.234,379.272 C520.378,379.38 520.522,379.506 520.684,379.686 C521.116,380.208 521.584,380.586 522.088,380.82 C522.664,381.072 523.474,381.216 524.554,381.252 C525.508,381.27 526.696,381.288 528.118,381.288 C528.946,381.288 529.81,381.27 530.692,381.252 C531.556,381.234 532.222,381.216 532.69,381.18 L532.384,382.476 L528.298,382.476 Z M525.076,368.31 C525.832,368.76 526.534,369.21 527.146,369.66 C528.082,369.174 528.946,368.634 529.738,368.022 L521.746,368.022 L521.746,366.924 L531.484,366.924 L531.484,367.86 C530.404,368.796 529.234,369.606 527.974,370.29 L528.262,370.524 L531.826,370.524 L531.826,378.57 C531.826,379.488 531.322,379.956 530.314,379.956 L528.82,379.956 L528.532,378.858 L529.954,378.912 C530.386,378.912 530.602,378.696 530.602,378.3 L530.602,376.95 L527.578,376.95 L527.578,380.046 L526.372,380.046 L526.372,376.95 L523.366,376.95 L523.366,380.1 L522.142,380.1 L522.142,370.524 L526.642,370.524 C525.958,370.038 525.166,369.552 524.284,369.084 L525.076,368.31 Z M523.366,374.304 L523.366,375.888 L526.372,375.888 L526.372,374.304 L523.366,374.304 Z M527.578,374.304 L527.578,375.888 L530.602,375.888 L530.602,374.304 L527.578,374.304 Z M530.602,373.224 L530.602,371.604 L527.578,371.604 L527.578,373.224 L530.602,373.224 Z M526.372,373.224 L526.372,371.604 L523.366,371.604 L523.366,373.224 L526.372,373.224 Z M548.548,366.456 L549.178,367.554 C547.54,367.986 545.65,368.328 543.49,368.544 L543.49,371.586 L549.232,371.586 L549.232,372.846 L543.49,372.846 L543.49,375.798 L550.582,375.798 L550.582,377.04 L543.49,377.04 L543.49,381.018 C543.49,382.098 542.914,382.656 541.798,382.656 L539.008,382.656 L538.72,381.396 C539.638,381.432 540.52,381.468 541.348,381.468 C541.888,381.468 542.176,381.198 542.176,380.694 L542.176,377.04 L534.436,377.04 L534.436,375.798 L542.176,375.798 L542.176,372.846 L535.93,372.846 L535.93,371.586 L542.176,371.586 L542.176,368.652 C540.268,368.796 538.198,368.886 535.966,368.886 L535.57,367.716 C540.79,367.716 545.11,367.284 548.548,366.456 Z M554.974,371.982 L554.974,374.214 L558.988,374.214 L558.988,375.384 L554.974,375.384 L554.974,378.192 C556.792,378.012 558.34,377.778 559.618,377.454 L559.618,378.66 C558.466,378.948 556.918,379.2 554.974,379.434 L554.974,382.692 L553.714,382.692 L553.714,379.578 L552.49,379.686 L552.292,378.39 C552.778,378.354 553.246,378.336 553.714,378.3 L553.714,367.788 C555.91,367.464 557.692,366.996 559.096,366.366 L559.744,367.464 C558.34,368.022 556.738,368.454 554.974,368.742 L554.974,370.794 L558.988,370.794 L558.988,371.982 L554.974,371.982 Z M559.996,374.034 L567.484,374.034 L567.484,375.168 C566.98,376.86 566.188,378.3 565.072,379.488 C566.08,380.334 567.34,381.072 568.852,381.72 L568.15,382.836 C566.566,382.098 565.27,381.252 564.226,380.316 C562.966,381.396 561.436,382.242 559.618,382.872 L558.898,381.774 C560.662,381.162 562.12,380.352 563.272,379.38 C562.156,378.156 561.418,376.77 561.022,375.222 L559.996,375.222 L559.996,374.034 Z M562.21,375.222 C562.57,376.464 563.2,377.58 564.118,378.57 C565.036,377.598 565.72,376.482 566.188,375.222 L562.21,375.222 Z M561.364,366.978 L566.422,366.978 L566.422,370.812 C566.422,371.298 566.656,371.55 567.124,371.55 L568.618,371.55 L568.618,372.72 L566.8,372.72 C565.702,372.72 565.162,372.162 565.162,371.082 L565.162,368.184 L562.642,368.184 L562.642,369.282 C562.642,371.01 561.886,372.36 560.374,373.296 L559.51,372.324 C560.734,371.64 561.364,370.668 561.364,369.408 L561.364,366.978 Z" id="交通手段" fill="#222222"></path>
                        <path d="M686.532,366.33 L687.432,366.33 C689.664,368.49 692.238,370.182 695.154,371.424 L694.524,372.558 C691.572,371.262 689.07,369.57 686.982,367.5 C685.074,369.516 682.536,371.262 679.404,372.72 L678.774,371.586 C681.888,370.182 684.48,368.418 686.532,366.33 Z M683.688,375.222 L683.688,376.698 L690.564,376.698 L690.564,375.222 L683.688,375.222 Z M690.564,374.106 L690.564,372.63 L683.688,372.63 L683.688,374.106 L690.564,374.106 Z M692.832,377.508 L693.93,378.048 C693.192,378.876 692.4,379.632 691.554,380.298 C692.634,380.838 693.642,381.396 694.56,381.972 L693.75,382.944 C691.842,381.648 689.412,380.424 686.46,379.29 L687.18,378.408 C688.35,378.84 689.448,379.308 690.474,379.776 C691.338,379.074 692.13,378.318 692.832,377.508 Z M682.176,382.836 L681.834,381.81 C682.212,381.702 682.41,381.36 682.41,380.82 L682.41,371.478 L686.64,371.478 C686.424,370.812 686.172,370.2 685.92,369.642 L687.108,369.444 C687.36,370.038 687.612,370.722 687.828,371.478 L691.842,371.478 L691.842,377.85 L683.688,377.85 L683.688,381.378 C685.11,381.09 686.46,380.766 687.738,380.388 L687.972,381.486 C686.424,381.99 684.48,382.44 682.176,382.836 Z M709.464,367.446 C710.256,368.22 710.904,369.03 711.408,369.876 L710.634,370.434 C710.094,369.534 709.464,368.724 708.744,368.022 L709.464,367.446 Z M707.736,368.688 C708.492,369.426 709.14,370.236 709.662,371.118 L708.888,371.658 C708.348,370.758 707.718,369.966 706.998,369.246 L707.736,368.688 Z M703.002,369.696 C703.254,369.696 703.506,369.768 703.776,369.912 C704.082,370.074 704.442,370.38 704.874,370.83 C707.934,374.178 710.76,377.004 713.352,379.308 L712.38,380.406 C709.68,378.012 706.89,375.204 704.028,371.982 C703.74,371.658 703.542,371.442 703.398,371.334 C703.254,371.208 703.128,371.154 703.02,371.154 C702.84,371.154 702.66,371.298 702.444,371.586 C700.896,373.476 699.294,375.276 697.674,376.986 L696.594,375.942 C698.052,374.502 699.654,372.72 701.4,370.632 C701.904,370.002 702.444,369.696 703.002,369.696 Z M723.036,366.276 L724.26,366.6 C724.062,367.536 723.846,368.4 723.594,369.192 L730.578,369.192 C730.578,375.204 730.488,378.912 730.308,380.316 C730.11,381.9 729.138,382.692 727.392,382.692 C727.14,382.692 726.69,382.674 726.042,382.638 L725.736,381.468 C726.312,381.504 726.798,381.54 727.212,381.54 C728.31,381.54 728.94,380.964 729.102,379.812 C729.228,378.804 729.3,375.672 729.336,370.452 L728.112,370.452 C727.716,373.458 727.176,375.834 726.474,377.58 C725.646,379.452 724.422,381.144 722.784,382.638 L721.992,381.612 C723.504,380.244 724.62,378.732 725.376,377.076 C726.078,375.402 726.6,373.188 726.942,370.452 L725.538,370.452 C724.818,374.376 723.45,377.22 721.434,379.002 L720.588,378.03 C722.442,376.446 723.702,373.908 724.386,370.452 L723.144,370.452 C722.658,371.604 722.118,372.54 721.506,373.296 L720.552,372.486 C721.704,371.046 722.532,368.976 723.036,366.276 Z M716.52,371.316 C716.322,372.216 716.088,373.098 715.8,373.944 L714.666,373.62 C715.35,371.712 715.728,369.714 715.818,367.608 L716.952,367.698 C716.916,368.49 716.844,369.282 716.736,370.056 L717.996,370.056 L717.996,366.312 L719.256,366.312 L719.256,370.056 L720.768,370.056 L720.768,371.316 L719.256,371.316 L719.256,375.636 C719.76,375.402 720.228,375.168 720.696,374.916 L720.696,376.14 C720.228,376.392 719.742,376.626 719.256,376.86 L719.256,382.8 L717.996,382.8 L717.996,377.4 C717.078,377.76 716.142,378.102 715.17,378.408 L714.864,377.148 C715.944,376.896 716.988,376.572 717.996,376.176 L717.996,371.316 L716.52,371.316 Z M739.848,366.672 C739.884,368.418 740.01,369.768 740.208,370.704 C740.334,371.352 740.55,371.964 740.838,372.54 C742.26,372 744.042,371.46 746.166,370.902 L746.67,372.126 C743.718,372.882 741.432,373.638 739.848,374.394 C737.472,375.492 736.302,376.698 736.302,377.994 C736.302,379.632 738.102,380.46 741.702,380.46 C743.466,380.46 745.248,380.334 747.012,380.118 L747.138,381.45 C745.302,381.648 743.484,381.756 741.702,381.756 C739.38,381.756 737.67,381.45 736.572,380.856 C735.438,380.244 734.88,379.308 734.88,378.03 C734.88,376.302 736.104,374.808 738.57,373.53 C738.858,373.368 739.182,373.206 739.542,373.062 C739.182,372.324 738.93,371.514 738.786,370.614 C738.606,369.66 738.498,368.364 738.462,366.708 L739.848,366.672 Z M754.41,366.474 L755.292,366.474 C756.444,367.446 757.542,368.49 758.604,369.588 L757.776,370.47 C756.696,369.3 755.742,368.382 754.914,367.698 C753.87,369.03 752.646,370.254 751.278,371.37 L750.576,370.398 C751.98,369.282 753.258,367.968 754.41,366.474 Z M753.204,375.204 L753.204,376.86 L756.48,376.86 L756.48,375.204 L753.204,375.204 Z M756.48,374.196 L756.48,372.54 L753.204,372.54 L753.204,374.196 L756.48,374.196 Z M756.822,378.444 C757.326,379.38 757.776,380.388 758.172,381.432 C759.612,380.298 760.584,378.93 761.088,377.328 C761.52,375.816 761.736,373.89 761.736,371.55 L762.888,371.55 C762.888,372.684 762.834,373.728 762.744,374.682 C763.608,377.706 765.102,380.082 767.244,381.828 L766.398,382.818 C764.634,381.234 763.302,379.254 762.402,376.914 C762.348,377.13 762.294,377.328 762.258,377.526 C761.7,379.65 760.422,381.396 758.424,382.764 L757.74,381.9 L757.254,382.116 C757.11,381.72 756.984,381.36 756.84,381.018 C755.418,381.576 753.78,382.062 751.926,382.476 L751.584,381.45 C751.872,381.36 752.016,381.216 752.016,381.018 L752.016,371.406 L754.32,371.406 C754.158,370.704 753.978,370.074 753.762,369.516 L754.95,369.3 C755.13,369.912 755.292,370.614 755.436,371.406 L757.668,371.406 L757.668,378.012 L753.204,378.012 L753.204,381.036 C754.428,380.712 755.49,380.37 756.426,380.046 C756.21,379.578 756.012,379.146 755.796,378.768 L756.822,378.444 Z M760.368,366.222 L761.574,366.42 C761.466,367.392 761.304,368.31 761.124,369.138 L766.524,369.138 L766.524,369.966 C766.218,371.514 765.822,373.044 765.354,374.556 L764.094,374.196 C764.544,373.08 764.904,371.802 765.192,370.38 L760.818,370.38 C760.386,371.874 759.828,373.098 759.144,374.034 L758.172,373.332 C759.306,371.622 760.044,369.246 760.368,366.222 Z M770.214,367.788 C770.574,368.868 770.916,370.11 771.204,371.514 L770.196,371.802 C769.908,370.524 769.566,369.3 769.134,368.13 L770.214,367.788 Z M775.11,367.554 L776.208,367.698 C776.1,369.174 775.812,370.488 775.362,371.64 L774.372,371.316 C774.768,370.236 775.002,368.976 775.11,367.554 Z M768.972,372.612 L772.194,372.612 L772.194,366.366 L773.508,366.366 L773.508,372.612 L776.19,372.612 L776.19,373.872 L773.508,373.872 L773.508,374.34 C774.408,375.15 775.308,376.068 776.226,377.076 L775.452,378.21 C774.696,377.076 774.048,376.158 773.508,375.474 L773.508,382.746 L772.194,382.746 L772.194,375.492 C771.402,377.184 770.412,378.678 769.242,379.956 L768.72,378.624 C770.286,377.112 771.42,375.528 772.122,373.872 L768.972,373.872 L768.972,372.612 Z M781.878,366.384 L783.156,366.384 L783.156,376.59 L785.136,376.284 L785.352,377.58 L783.156,377.904 L783.156,382.746 L781.878,382.746 L781.878,378.102 L776.676,378.894 L776.496,377.598 L781.878,376.788 L781.878,366.384 Z M778.242,367.662 C779.43,368.562 780.42,369.444 781.23,370.308 L780.348,371.19 C779.628,370.344 778.638,369.444 777.378,368.49 L778.242,367.662 Z M777.81,371.874 C778.962,372.792 779.952,373.71 780.744,374.61 L779.862,375.51 C779.142,374.628 778.17,373.692 776.946,372.702 L777.81,371.874 Z" id="食べ物と飲料" fill="#222222"></path>
                        <path d="M916.1,375.456 C915.47,376.392 914.768,377.31 913.994,378.174 L913.544,376.752 C915.344,374.664 916.604,372.36 917.342,369.876 L918.584,370.128 C918.26,371.172 917.882,372.18 917.414,373.134 L917.414,382.728 L916.1,382.728 L916.1,375.456 Z M928.088,373.944 L928.088,382.728 L926.828,382.728 L926.828,382.08 L921.176,382.08 L921.176,382.746 L919.916,382.746 L919.916,373.944 L922.706,373.944 C922.85,373.404 922.976,372.864 923.048,372.306 L919.052,372.306 L919.052,371.082 L928.736,371.082 L928.736,372.306 L924.362,372.306 C924.29,372.882 924.164,373.422 924.02,373.944 L928.088,373.944 Z M921.176,380.928 L926.828,380.928 L926.828,378.498 L921.176,378.498 L921.176,380.928 Z M921.176,377.364 L926.828,377.364 L926.828,375.096 L921.176,375.096 L921.176,377.364 Z M928.862,367.77 L928.862,370.362 L927.548,370.362 L927.548,369.03 L915.542,369.03 L915.542,371.37 L914.228,371.37 L914.228,367.77 L921.014,367.77 C920.762,367.266 920.474,366.78 920.186,366.348 L921.572,366.132 C921.86,366.618 922.13,367.158 922.382,367.77 L928.862,367.77 Z M946.358,369.03 L946.358,382.62 L945.08,382.62 L945.08,381.792 L938.564,381.792 L938.564,382.674 L937.268,382.674 L937.268,369.03 L940.274,369.03 C940.634,368.112 940.904,367.158 941.084,366.168 L942.38,366.348 C942.2,367.302 941.912,368.202 941.552,369.03 L946.358,369.03 Z M938.564,380.532 L945.08,380.532 L945.08,375.888 L938.564,375.888 L938.564,380.532 Z M938.564,374.7 L945.08,374.7 L945.08,370.272 L938.564,370.272 L938.564,374.7 Z M932.696,366.636 C933.938,367.536 934.982,368.454 935.828,369.372 L934.91,370.29 C934.154,369.426 933.11,368.508 931.778,367.536 L932.696,366.636 Z M932.372,371.064 C933.524,371.928 934.514,372.81 935.306,373.674 L934.37,374.592 C933.668,373.764 932.696,372.9 931.454,371.964 L932.372,371.064 Z M934.316,375.924 L935.504,376.392 C934.73,378.66 933.866,380.802 932.912,382.782 L931.616,382.224 C932.66,380.172 933.56,378.084 934.316,375.924 Z" id="宿泊" fill="#222222"></path>
                        <path d="M9.848,357.114 C9.848,357.487335 9.85966655,357.904998 9.883,358.367 C9.90633345,358.829002 9.98099937,359.262998 10.107,359.669 C10.2330006,360.075002 10.4359986,360.417999 10.716,360.698 C10.9960014,360.978001 11.3879975,361.118 11.892,361.118 C12.3960025,361.118 12.7879986,360.978001 13.068,360.698 C13.3480014,360.417999 13.5509994,360.075002 13.677,359.669 C13.8030006,359.262998 13.8776665,358.829002 13.901,358.367 C13.9243334,357.904998 13.936,357.487335 13.936,357.114 C13.936,356.871332 13.9336667,356.603001 13.929,356.309 C13.9243333,356.014999 13.9010002,355.721001 13.859,355.427 C13.8169998,355.132999 13.7563337,354.846001 13.677,354.566 C13.5976663,354.285999 13.4810008,354.041001 13.327,353.831 C13.1729992,353.620999 12.9793345,353.450667 12.746,353.32 C12.5126655,353.189333 12.2280017,353.124 11.892,353.124 C11.5559983,353.124 11.2713345,353.189333 11.038,353.32 C10.8046655,353.450667 10.6110008,353.620999 10.457,353.831 C10.3029992,354.041001 10.1863337,354.285999 10.107,354.566 C10.0276663,354.846001 9.96700021,355.132999 9.925,355.427 C9.88299979,355.721001 9.85966669,356.014999 9.855,356.309 C9.85033331,356.603001 9.848,356.871332 9.848,357.114 Z M8.588,357.128 C8.588,356.763998 8.59733324,356.386002 8.616,355.994 C8.63466676,355.601998 8.68133296,355.219335 8.756,354.846 C8.83066704,354.472665 8.9379993,354.118002 9.078,353.782 C9.2180007,353.445998 9.40933212,353.152001 9.652,352.9 C9.89466788,352.647999 10.2003315,352.447334 10.569,352.298 C10.9376685,352.148666 11.3786641,352.074 11.892,352.074 C12.4053359,352.074 12.8463315,352.148666 13.215,352.298 C13.5836685,352.447334 13.8893321,352.647999 14.132,352.9 C14.3746679,353.152001 14.5659993,353.445998 14.706,353.782 C14.8460007,354.118002 14.953333,354.472665 15.028,354.846 C15.102667,355.219335 15.1493332,355.601998 15.168,355.994 C15.1866668,356.386002 15.196,356.763998 15.196,357.128 C15.196,357.492002 15.1866668,357.869998 15.168,358.262 C15.1493332,358.654002 15.102667,359.036665 15.028,359.41 C14.953333,359.783335 14.8460007,360.135665 14.706,360.467 C14.5659993,360.798335 14.3746679,361.089999 14.132,361.342 C13.8893321,361.594001 13.5860018,361.792333 13.222,361.937 C12.8579982,362.081667 12.4146693,362.154 11.892,362.154 C11.3786641,362.154 10.9376685,362.081667 10.569,361.937 C10.2003315,361.792333 9.89466788,361.594001 9.652,361.342 C9.40933212,361.089999 9.2180007,360.798335 9.078,360.467 C8.9379993,360.135665 8.83066704,359.783335 8.756,359.41 C8.68133296,359.036665 8.63466676,358.654002 8.616,358.262 C8.59733324,357.869998 8.588,357.492002 8.588,357.128 Z M18.122,354.888 C18.122,355.093334 18.1336665,355.314999 18.157,355.553 C18.1803334,355.791001 18.2339996,356.010332 18.318,356.211 C18.4020004,356.411668 18.5209992,356.579666 18.675,356.715 C18.8290008,356.850334 19.0366654,356.918 19.298,356.918 C19.568668,356.918 19.7833325,356.852667 19.942,356.722 C20.1006675,356.591333 20.2243329,356.425668 20.313,356.225 C20.4016671,356.024332 20.4599999,355.802668 20.488,355.56 C20.5160001,355.317332 20.53,355.088668 20.53,354.874 C20.53,354.668666 20.5183334,354.447001 20.495,354.209 C20.4716665,353.970999 20.4180004,353.751668 20.334,353.551 C20.2499996,353.350332 20.1310008,353.182334 19.977,353.047 C19.8229992,352.911666 19.610668,352.844 19.34,352.844 C19.0786654,352.844 18.8686675,352.911666 18.71,353.047 C18.5513325,353.182334 18.4276671,353.350332 18.339,353.551 C18.2503329,353.751668 18.1920001,353.970999 18.164,354.209 C18.1359999,354.447001 18.122,354.673332 18.122,354.888 Z M17.072,354.916 C17.072,354.533331 17.109333,354.171668 17.184,353.831 C17.258667,353.490332 17.3846658,353.189335 17.562,352.928 C17.7393342,352.666665 17.9726652,352.459001 18.262,352.305 C18.5513348,352.150999 18.9106645,352.074 19.34,352.074 C19.7786689,352.074 20.1403319,352.148666 20.425,352.298 C20.7096681,352.447334 20.9383325,352.647999 21.111,352.9 C21.2836675,353.152001 21.4049996,353.448332 21.475,353.789 C21.5450003,354.129668 21.58,354.491331 21.58,354.874 C21.58,355.238002 21.5403337,355.590332 21.461,355.931 C21.3816663,356.271668 21.2510009,356.570332 21.069,356.827 C20.8869991,357.083668 20.6560014,357.291333 20.376,357.45 C20.0959986,357.608667 19.7506687,357.688 19.34,357.688 C18.9199979,357.688 18.5653348,357.615667 18.276,357.471 C17.9866652,357.326333 17.7533342,357.128001 17.576,356.876 C17.3986658,356.623999 17.2703337,356.330002 17.191,355.994 C17.1116663,355.657998 17.072,355.298669 17.072,354.916 Z M25.038,359.368 C25.038,359.573334 25.0496665,359.794999 25.073,360.033 C25.0963334,360.271001 25.1499996,360.490332 25.234,360.691 C25.3180004,360.891668 25.4369992,361.059666 25.591,361.195 C25.7450008,361.330334 25.9526654,361.398 26.214,361.398 C26.484668,361.398 26.6993325,361.332667 26.858,361.202 C27.0166675,361.071333 27.1403329,360.905668 27.229,360.705 C27.3176671,360.504332 27.3759999,360.282668 27.404,360.04 C27.4320001,359.797332 27.446,359.568668 27.446,359.354 C27.446,359.148666 27.4343334,358.927001 27.411,358.689 C27.3876665,358.450999 27.3340004,358.231668 27.25,358.031 C27.1659996,357.830332 27.0470008,357.662334 26.893,357.527 C26.7389992,357.391666 26.526668,357.324 26.256,357.324 C25.9946654,357.324 25.7846675,357.391666 25.626,357.527 C25.4673325,357.662334 25.3436671,357.830332 25.255,358.031 C25.1663329,358.231668 25.1080001,358.450999 25.08,358.689 C25.0519999,358.927001 25.038,359.153332 25.038,359.368 Z M23.988,359.396 C23.988,359.013331 24.025333,358.651668 24.1,358.311 C24.174667,357.970332 24.3006658,357.669335 24.478,357.408 C24.6553342,357.146665 24.8886652,356.939001 25.178,356.785 C25.4673348,356.630999 25.8266645,356.554 26.256,356.554 C26.6946689,356.554 27.0563319,356.628666 27.341,356.778 C27.6256681,356.927334 27.8543325,357.127999 28.027,357.38 C28.1996675,357.632001 28.3209996,357.928332 28.391,358.269 C28.4610003,358.609668 28.496,358.971331 28.496,359.354 C28.496,359.718002 28.4563337,360.070332 28.377,360.411 C28.2976663,360.751668 28.1670009,361.050332 27.985,361.307 C27.8029991,361.563668 27.5720014,361.768999 27.292,361.923 C27.0119986,362.077001 26.6666687,362.154 26.256,362.154 C25.8359979,362.154 25.4813348,362.081667 25.192,361.937 C24.9026652,361.792333 24.6693342,361.596335 24.492,361.349 C24.3146658,361.101665 24.1863337,360.810002 24.107,360.474 C24.0276663,360.137998 23.988,359.778669 23.988,359.396 Z M25.948,351.892 L27.138,351.892 L19.62,362.294 L18.416,362.294 L25.948,351.892 Z" id="0%" fill="#999999"></path>
                        <path d="M14.796,294.792 L10.792,294.792 L10.26,297.648 L10.288,297.676 C10.5026677,297.433332 10.7803316,297.253667 11.121,297.137 C11.4616684,297.020333 11.7999983,296.962 12.136,296.962 C12.5746689,296.962 12.989998,297.031999 13.382,297.172 C13.774002,297.312001 14.1146652,297.524332 14.404,297.809 C14.6933348,298.093668 14.9219992,298.448331 15.09,298.873 C15.2580008,299.297669 15.342,299.794664 15.342,300.364 C15.342,300.784002 15.2696674,301.192331 15.125,301.589 C14.9803326,301.985669 14.7633348,302.337998 14.474,302.646 C14.1846652,302.954002 13.8230022,303.198999 13.389,303.381 C12.9549978,303.563001 12.4486696,303.654 11.87,303.654 C11.4406645,303.654 11.0370019,303.591001 10.659,303.465 C10.2809981,303.338999 9.94733478,303.157001 9.658,302.919 C9.36866522,302.680999 9.14000084,302.384668 8.972,302.03 C8.80399916,301.675332 8.71533338,301.274002 8.706,300.826 L9.896,300.826 C9.91466676,301.078001 9.97766613,301.313666 10.085,301.533 C10.1923339,301.752334 10.3369991,301.943666 10.519,302.107 C10.7010009,302.270334 10.9156654,302.396333 11.163,302.485 C11.4103346,302.573667 11.6833318,302.618 11.982,302.618 C12.2620014,302.618 12.5303321,302.569 12.787,302.471 C13.043668,302.373 13.2676657,302.226001 13.459,302.03 C13.6503343,301.833999 13.8019994,301.589001 13.914,301.295 C14.0260006,301.000999 14.082,300.658002 14.082,300.266 C14.082,299.939332 14.0283339,299.638335 13.921,299.363 C13.8136661,299.087665 13.662001,298.849668 13.466,298.649 C13.269999,298.448332 13.0343347,298.292001 12.759,298.18 C12.4836653,298.067999 12.1780017,298.012 11.842,298.012 C11.449998,298.012 11.1023349,298.098332 10.799,298.271 C10.4956652,298.443668 10.2273345,298.669999 9.994,298.95 L8.972,298.894 L9.896,293.742 L14.796,293.742 L14.796,294.792 Z M18.338,296.388 C18.338,296.593334 18.3496666,296.814999 18.373,297.053 C18.3963335,297.291001 18.4499996,297.510332 18.534,297.711 C18.6180004,297.911668 18.7369992,298.079666 18.891,298.215 C19.0450008,298.350334 19.2526654,298.418 19.514,298.418 C19.784668,298.418 19.9993325,298.352667 20.158,298.222 C20.3166675,298.091333 20.4403329,297.925668 20.529,297.725 C20.6176671,297.524332 20.6759999,297.302668 20.704,297.06 C20.7320001,296.817332 20.746,296.588668 20.746,296.374 C20.746,296.168666 20.7343335,295.947001 20.711,295.709 C20.6876666,295.470999 20.6340004,295.251668 20.55,295.051 C20.4659996,294.850332 20.3470008,294.682334 20.193,294.547 C20.0389992,294.411666 19.826668,294.344 19.556,294.344 C19.2946654,294.344 19.0846675,294.411666 18.926,294.547 C18.7673325,294.682334 18.6436671,294.850332 18.555,295.051 C18.4663329,295.251668 18.4080001,295.470999 18.38,295.709 C18.3519999,295.947001 18.338,296.173332 18.338,296.388 Z M17.288,296.416 C17.288,296.033331 17.325333,295.671668 17.4,295.331 C17.474667,294.990332 17.6006658,294.689335 17.778,294.428 C17.9553342,294.166665 18.1886652,293.959001 18.478,293.805 C18.7673348,293.650999 19.1266645,293.574 19.556,293.574 C19.9946689,293.574 20.3563319,293.648666 20.641,293.798 C20.9256681,293.947334 21.1543325,294.147999 21.327,294.4 C21.4996675,294.652001 21.6209997,294.948332 21.691,295.289 C21.7610004,295.629668 21.796,295.991331 21.796,296.374 C21.796,296.738002 21.7563337,297.090332 21.677,297.431 C21.5976663,297.771668 21.4670009,298.070332 21.285,298.327 C21.1029991,298.583668 20.8720014,298.791333 20.592,298.95 C20.3119986,299.108667 19.9666687,299.188 19.556,299.188 C19.1359979,299.188 18.7813348,299.115667 18.492,298.971 C18.2026652,298.826333 17.9693342,298.628001 17.792,298.376 C17.6146658,298.123999 17.4863337,297.830002 17.407,297.494 C17.3276663,297.157998 17.288,296.798669 17.288,296.416 Z M25.254,300.868 C25.254,301.073334 25.2656666,301.294999 25.289,301.533 C25.3123335,301.771001 25.3659996,301.990332 25.45,302.191 C25.5340004,302.391668 25.6529992,302.559666 25.807,302.695 C25.9610008,302.830334 26.1686654,302.898 26.43,302.898 C26.700668,302.898 26.9153325,302.832667 27.074,302.702 C27.2326675,302.571333 27.3563329,302.405668 27.445,302.205 C27.5336671,302.004332 27.5919999,301.782668 27.62,301.54 C27.6480001,301.297332 27.662,301.068668 27.662,300.854 C27.662,300.648666 27.6503335,300.427001 27.627,300.189 C27.6036666,299.950999 27.5500004,299.731668 27.466,299.531 C27.3819996,299.330332 27.2630008,299.162334 27.109,299.027 C26.9549992,298.891666 26.742668,298.824 26.472,298.824 C26.2106654,298.824 26.0006675,298.891666 25.842,299.027 C25.6833325,299.162334 25.5596671,299.330332 25.471,299.531 C25.3823329,299.731668 25.3240001,299.950999 25.296,300.189 C25.2679999,300.427001 25.254,300.653332 25.254,300.868 Z M24.204,300.896 C24.204,300.513331 24.241333,300.151668 24.316,299.811 C24.390667,299.470332 24.5166658,299.169335 24.694,298.908 C24.8713342,298.646665 25.1046652,298.439001 25.394,298.285 C25.6833348,298.130999 26.0426645,298.054 26.472,298.054 C26.9106689,298.054 27.2723319,298.128666 27.557,298.278 C27.8416681,298.427334 28.0703325,298.627999 28.243,298.88 C28.4156675,299.132001 28.5369997,299.428332 28.607,299.769 C28.6770004,300.109668 28.712,300.471331 28.712,300.854 C28.712,301.218002 28.6723337,301.570332 28.593,301.911 C28.5136663,302.251668 28.3830009,302.550332 28.201,302.807 C28.0189991,303.063668 27.7880014,303.268999 27.508,303.423 C27.2279986,303.577001 26.8826687,303.654 26.472,303.654 C26.0519979,303.654 25.6973348,303.581667 25.408,303.437 C25.1186652,303.292333 24.8853342,303.096335 24.708,302.849 C24.5306658,302.601665 24.4023337,302.310002 24.323,301.974 C24.2436663,301.637998 24.204,301.278669 24.204,300.896 Z M26.164,293.392 L27.354,293.392 L19.836,303.794 L18.632,303.794 L26.164,293.392 Z" id="5%" fill="#999999"></path>
                        <path d="M5.416,245 L4.226,245 L4.226,237.888 L1.65,237.888 L1.65,236.936 C1.98600168,236.936 2.31266508,236.910334 2.63,236.859 C2.94733492,236.807666 3.23433205,236.712001 3.491,236.572 C3.74766795,236.431999 3.96466578,236.240668 4.142,235.998 C4.31933422,235.755332 4.44066634,235.447335 4.506,235.074 L5.416,235.074 L5.416,245 Z M10.064,240.114 C10.064,240.487335 10.0756665,240.904998 10.099,241.367 C10.1223334,241.829002 10.1969994,242.262998 10.323,242.669 C10.4490006,243.075002 10.6519986,243.417999 10.932,243.698 C11.2120014,243.978001 11.6039975,244.118 12.108,244.118 C12.6120025,244.118 13.0039986,243.978001 13.284,243.698 C13.5640014,243.417999 13.7669994,243.075002 13.893,242.669 C14.0190006,242.262998 14.0936665,241.829002 14.117,241.367 C14.1403334,240.904998 14.152,240.487335 14.152,240.114 C14.152,239.871332 14.1496667,239.603001 14.145,239.309 C14.1403333,239.014999 14.1170002,238.721001 14.075,238.427 C14.0329998,238.132999 13.9723337,237.846001 13.893,237.566 C13.8136663,237.285999 13.6970008,237.041001 13.543,236.831 C13.3889992,236.620999 13.1953345,236.450667 12.962,236.32 C12.7286655,236.189333 12.4440017,236.124 12.108,236.124 C11.7719983,236.124 11.4873345,236.189333 11.254,236.32 C11.0206655,236.450667 10.8270008,236.620999 10.673,236.831 C10.5189992,237.041001 10.4023337,237.285999 10.323,237.566 C10.2436663,237.846001 10.1830002,238.132999 10.141,238.427 C10.0989998,238.721001 10.0756667,239.014999 10.071,239.309 C10.0663333,239.603001 10.064,239.871332 10.064,240.114 Z M8.804,240.128 C8.804,239.763998 8.81333324,239.386002 8.832,238.994 C8.85066676,238.601998 8.89733296,238.219335 8.972,237.846 C9.04666704,237.472665 9.1539993,237.118002 9.294,236.782 C9.4340007,236.445998 9.62533212,236.152001 9.868,235.9 C10.1106679,235.647999 10.4163315,235.447334 10.785,235.298 C11.1536685,235.148666 11.5946641,235.074 12.108,235.074 C12.6213359,235.074 13.0623315,235.148666 13.431,235.298 C13.7996685,235.447334 14.1053321,235.647999 14.348,235.9 C14.5906679,236.152001 14.7819993,236.445998 14.922,236.782 C15.0620007,237.118002 15.169333,237.472665 15.244,237.846 C15.318667,238.219335 15.3653332,238.601998 15.384,238.994 C15.4026668,239.386002 15.412,239.763998 15.412,240.128 C15.412,240.492002 15.4026668,240.869998 15.384,241.262 C15.3653332,241.654002 15.318667,242.036665 15.244,242.41 C15.169333,242.783335 15.0620007,243.135665 14.922,243.467 C14.7819993,243.798335 14.5906679,244.089999 14.348,244.342 C14.1053321,244.594001 13.8020018,244.792333 13.438,244.937 C13.0739982,245.081667 12.6306693,245.154 12.108,245.154 C11.5946641,245.154 11.1536685,245.081667 10.785,244.937 C10.4163315,244.792333 10.1106679,244.594001 9.868,244.342 C9.62533212,244.089999 9.4340007,243.798335 9.294,243.467 C9.1539993,243.135665 9.04666704,242.783335 8.972,242.41 C8.89733296,242.036665 8.85066676,241.654002 8.832,241.262 C8.81333324,240.869998 8.804,240.492002 8.804,240.128 Z M18.338,237.888 C18.338,238.093334 18.3496665,238.314999 18.373,238.553 C18.3963334,238.791001 18.4499996,239.010332 18.534,239.211 C18.6180004,239.411668 18.7369992,239.579666 18.891,239.715 C19.0450008,239.850334 19.2526654,239.918 19.514,239.918 C19.784668,239.918 19.9993325,239.852667 20.158,239.722 C20.3166675,239.591333 20.4403329,239.425668 20.529,239.225 C20.6176671,239.024332 20.6759999,238.802668 20.704,238.56 C20.7320001,238.317332 20.746,238.088668 20.746,237.874 C20.746,237.668666 20.7343334,237.447001 20.711,237.209 C20.6876665,236.970999 20.6340004,236.751668 20.55,236.551 C20.4659996,236.350332 20.3470008,236.182334 20.193,236.047 C20.0389992,235.911666 19.826668,235.844 19.556,235.844 C19.2946654,235.844 19.0846675,235.911666 18.926,236.047 C18.7673325,236.182334 18.6436671,236.350332 18.555,236.551 C18.4663329,236.751668 18.4080001,236.970999 18.38,237.209 C18.3519999,237.447001 18.338,237.673332 18.338,237.888 Z M17.288,237.916 C17.288,237.533331 17.325333,237.171668 17.4,236.831 C17.474667,236.490332 17.6006658,236.189335 17.778,235.928 C17.9553342,235.666665 18.1886652,235.459001 18.478,235.305 C18.7673348,235.150999 19.1266645,235.074 19.556,235.074 C19.9946689,235.074 20.3563319,235.148666 20.641,235.298 C20.9256681,235.447334 21.1543325,235.647999 21.327,235.9 C21.4996675,236.152001 21.6209996,236.448332 21.691,236.789 C21.7610003,237.129668 21.796,237.491331 21.796,237.874 C21.796,238.238002 21.7563337,238.590332 21.677,238.931 C21.5976663,239.271668 21.4670009,239.570332 21.285,239.827 C21.1029991,240.083668 20.8720014,240.291333 20.592,240.45 C20.3119986,240.608667 19.9666687,240.688 19.556,240.688 C19.1359979,240.688 18.7813348,240.615667 18.492,240.471 C18.2026652,240.326333 17.9693342,240.128001 17.792,239.876 C17.6146658,239.623999 17.4863337,239.330002 17.407,238.994 C17.3276663,238.657998 17.288,238.298669 17.288,237.916 Z M25.254,242.368 C25.254,242.573334 25.2656665,242.794999 25.289,243.033 C25.3123334,243.271001 25.3659996,243.490332 25.45,243.691 C25.5340004,243.891668 25.6529992,244.059666 25.807,244.195 C25.9610008,244.330334 26.1686654,244.398 26.43,244.398 C26.700668,244.398 26.9153325,244.332667 27.074,244.202 C27.2326675,244.071333 27.3563329,243.905668 27.445,243.705 C27.5336671,243.504332 27.5919999,243.282668 27.62,243.04 C27.6480001,242.797332 27.662,242.568668 27.662,242.354 C27.662,242.148666 27.6503334,241.927001 27.627,241.689 C27.6036665,241.450999 27.5500004,241.231668 27.466,241.031 C27.3819996,240.830332 27.2630008,240.662334 27.109,240.527 C26.9549992,240.391666 26.742668,240.324 26.472,240.324 C26.2106654,240.324 26.0006675,240.391666 25.842,240.527 C25.6833325,240.662334 25.5596671,240.830332 25.471,241.031 C25.3823329,241.231668 25.3240001,241.450999 25.296,241.689 C25.2679999,241.927001 25.254,242.153332 25.254,242.368 Z M24.204,242.396 C24.204,242.013331 24.241333,241.651668 24.316,241.311 C24.390667,240.970332 24.5166658,240.669335 24.694,240.408 C24.8713342,240.146665 25.1046652,239.939001 25.394,239.785 C25.6833348,239.630999 26.0426645,239.554 26.472,239.554 C26.9106689,239.554 27.2723319,239.628666 27.557,239.778 C27.8416681,239.927334 28.0703325,240.127999 28.243,240.38 C28.4156675,240.632001 28.5369996,240.928332 28.607,241.269 C28.6770003,241.609668 28.712,241.971331 28.712,242.354 C28.712,242.718002 28.6723337,243.070332 28.593,243.411 C28.5136663,243.751668 28.3830009,244.050332 28.201,244.307 C28.0189991,244.563668 27.7880014,244.768999 27.508,244.923 C27.2279986,245.077001 26.8826687,245.154 26.472,245.154 C26.0519979,245.154 25.6973348,245.081667 25.408,244.937 C25.1186652,244.792333 24.8853342,244.596335 24.708,244.349 C24.5306658,244.101665 24.4023337,243.810002 24.323,243.474 C24.2436663,243.137998 24.204,242.778669 24.204,242.396 Z M26.164,234.892 L27.354,234.892 L19.836,245.294 L18.632,245.294 L26.164,234.892 Z" id="10%" fill="#999999"></path>
                        <path d="M5.416,186.5 L4.226,186.5 L4.226,179.388 L1.65,179.388 L1.65,178.436 C1.98600168,178.436 2.31266508,178.410334 2.63,178.359 C2.94733492,178.307666 3.23433205,178.212001 3.491,178.072 C3.74766795,177.931999 3.96466578,177.740668 4.142,177.498 C4.31933422,177.255332 4.44066634,176.947335 4.506,176.574 L5.416,176.574 L5.416,186.5 Z M14.796,177.792 L10.792,177.792 L10.26,180.648 L10.288,180.676 C10.5026677,180.433332 10.7803316,180.253667 11.121,180.137 C11.4616684,180.020333 11.7999983,179.962 12.136,179.962 C12.5746689,179.962 12.989998,180.031999 13.382,180.172 C13.774002,180.312001 14.1146652,180.524332 14.404,180.809 C14.6933348,181.093668 14.9219992,181.448331 15.09,181.873 C15.2580008,182.297669 15.342,182.794664 15.342,183.364 C15.342,183.784002 15.2696674,184.192331 15.125,184.589 C14.9803326,184.985669 14.7633348,185.337998 14.474,185.646 C14.1846652,185.954002 13.8230022,186.198999 13.389,186.381 C12.9549978,186.563001 12.4486696,186.654 11.87,186.654 C11.4406645,186.654 11.0370019,186.591001 10.659,186.465 C10.2809981,186.338999 9.94733478,186.157001 9.658,185.919 C9.36866522,185.680999 9.14000084,185.384668 8.972,185.03 C8.80399916,184.675332 8.71533338,184.274002 8.706,183.826 L9.896,183.826 C9.91466676,184.078001 9.97766613,184.313666 10.085,184.533 C10.1923339,184.752334 10.3369991,184.943666 10.519,185.107 C10.7010009,185.270334 10.9156654,185.396333 11.163,185.485 C11.4103346,185.573667 11.6833318,185.618 11.982,185.618 C12.2620014,185.618 12.530332,185.569 12.787,185.471 C13.0436679,185.373 13.2676657,185.226001 13.459,185.03 C13.6503343,184.833999 13.8019994,184.589001 13.914,184.295 C14.0260006,184.000999 14.082,183.658002 14.082,183.266 C14.082,182.939332 14.0283339,182.638335 13.921,182.363 C13.8136661,182.087665 13.662001,181.849668 13.466,181.649 C13.269999,181.448332 13.0343347,181.292001 12.759,181.18 C12.4836653,181.067999 12.1780017,181.012 11.842,181.012 C11.449998,181.012 11.1023348,181.098332 10.799,181.271 C10.4956651,181.443668 10.2273345,181.669999 9.994,181.95 L8.972,181.894 L9.896,176.742 L14.796,176.742 L14.796,177.792 Z M18.338,179.388 C18.338,179.593334 18.3496665,179.814999 18.373,180.053 C18.3963334,180.291001 18.4499996,180.510332 18.534,180.711 C18.6180004,180.911668 18.7369992,181.079666 18.891,181.215 C19.0450008,181.350334 19.2526654,181.418 19.514,181.418 C19.784668,181.418 19.9993325,181.352667 20.158,181.222 C20.3166675,181.091333 20.4403329,180.925668 20.529,180.725 C20.6176671,180.524332 20.6759999,180.302668 20.704,180.06 C20.7320001,179.817332 20.746,179.588668 20.746,179.374 C20.746,179.168666 20.7343334,178.947001 20.711,178.709 C20.6876665,178.470999 20.6340004,178.251668 20.55,178.051 C20.4659996,177.850332 20.3470008,177.682334 20.193,177.547 C20.0389992,177.411666 19.826668,177.344 19.556,177.344 C19.2946654,177.344 19.0846675,177.411666 18.926,177.547 C18.7673325,177.682334 18.6436671,177.850332 18.555,178.051 C18.4663329,178.251668 18.4080001,178.470999 18.38,178.709 C18.3519999,178.947001 18.338,179.173332 18.338,179.388 Z M17.288,179.416 C17.288,179.033331 17.325333,178.671668 17.4,178.331 C17.474667,177.990332 17.6006658,177.689335 17.778,177.428 C17.9553342,177.166665 18.1886652,176.959001 18.478,176.805 C18.7673348,176.650999 19.1266645,176.574 19.556,176.574 C19.9946689,176.574 20.3563319,176.648666 20.641,176.798 C20.9256681,176.947334 21.1543325,177.147999 21.327,177.4 C21.4996675,177.652001 21.6209996,177.948332 21.691,178.289 C21.7610003,178.629668 21.796,178.991331 21.796,179.374 C21.796,179.738002 21.7563337,180.090332 21.677,180.431 C21.5976663,180.771668 21.4670009,181.070332 21.285,181.327 C21.1029991,181.583668 20.8720014,181.791333 20.592,181.95 C20.3119986,182.108667 19.9666687,182.188 19.556,182.188 C19.1359979,182.188 18.7813348,182.115667 18.492,181.971 C18.2026652,181.826333 17.9693342,181.628001 17.792,181.376 C17.6146658,181.123999 17.4863337,180.830002 17.407,180.494 C17.3276663,180.157998 17.288,179.798669 17.288,179.416 Z M25.254,183.868 C25.254,184.073334 25.2656665,184.294999 25.289,184.533 C25.3123334,184.771001 25.3659996,184.990332 25.45,185.191 C25.5340004,185.391668 25.6529992,185.559666 25.807,185.695 C25.9610008,185.830334 26.1686654,185.898 26.43,185.898 C26.700668,185.898 26.9153325,185.832667 27.074,185.702 C27.2326675,185.571333 27.3563329,185.405668 27.445,185.205 C27.5336671,185.004332 27.5919999,184.782668 27.62,184.54 C27.6480001,184.297332 27.662,184.068668 27.662,183.854 C27.662,183.648666 27.6503334,183.427001 27.627,183.189 C27.6036665,182.950999 27.5500004,182.731668 27.466,182.531 C27.3819996,182.330332 27.2630008,182.162334 27.109,182.027 C26.9549992,181.891666 26.742668,181.824 26.472,181.824 C26.2106654,181.824 26.0006675,181.891666 25.842,182.027 C25.6833325,182.162334 25.5596671,182.330332 25.471,182.531 C25.3823329,182.731668 25.3240001,182.950999 25.296,183.189 C25.2679999,183.427001 25.254,183.653332 25.254,183.868 Z M24.204,183.896 C24.204,183.513331 24.241333,183.151668 24.316,182.811 C24.390667,182.470332 24.5166658,182.169335 24.694,181.908 C24.8713342,181.646665 25.1046652,181.439001 25.394,181.285 C25.6833348,181.130999 26.0426645,181.054 26.472,181.054 C26.9106689,181.054 27.2723319,181.128666 27.557,181.278 C27.8416681,181.427334 28.0703325,181.627999 28.243,181.88 C28.4156675,182.132001 28.5369996,182.428332 28.607,182.769 C28.6770003,183.109668 28.712,183.471331 28.712,183.854 C28.712,184.218002 28.6723337,184.570332 28.593,184.911 C28.5136663,185.251668 28.3830009,185.550332 28.201,185.807 C28.0189991,186.063668 27.7880014,186.268999 27.508,186.423 C27.2279986,186.577001 26.8826687,186.654 26.472,186.654 C26.0519979,186.654 25.6973348,186.581667 25.408,186.437 C25.1186652,186.292333 24.8853342,186.096335 24.708,185.849 C24.5306658,185.601665 24.4023337,185.310002 24.323,184.974 C24.2436663,184.637998 24.204,184.278669 24.204,183.896 Z M26.164,176.392 L27.354,176.392 L19.836,186.794 L18.632,186.794 L26.164,176.392 Z" id="15%" fill="#999999"></path>
                        <path d="M1.048,121.588 C1.01999986,121.083997 1.07133268,120.617335 1.202,120.188 C1.33266732,119.758665 1.53566529,119.387668 1.811,119.075 C2.08633471,118.762332 2.42933128,118.517334 2.84,118.34 C3.25066872,118.162666 3.71733072,118.074 4.24,118.074 C4.66933548,118.074 5.07299811,118.136999 5.451,118.263 C5.82900189,118.389001 6.1579986,118.570999 6.438,118.809 C6.7180014,119.047001 6.93966585,119.343332 7.103,119.698 C7.26633415,120.052668 7.348,120.463331 7.348,120.93 C7.348,121.368669 7.28033401,121.755998 7.145,122.092 C7.00966599,122.428002 6.83000112,122.728999 6.606,122.995 C6.38199888,123.261001 6.12533478,123.501332 5.836,123.716 C5.54666522,123.930668 5.24800154,124.135999 4.94,124.332 C4.63199846,124.518668 4.32400154,124.702999 4.016,124.885 C3.70799846,125.067001 3.42566795,125.260666 3.169,125.466 C2.91233205,125.671334 2.69300091,125.892999 2.511,126.131 C2.32899909,126.369001 2.21000028,126.641998 2.154,126.95 L7.25,126.95 L7.25,128 L0.768,128 C0.8146669,127.411997 0.91966585,126.910335 1.083,126.495 C1.24633415,126.079665 1.45399874,125.718002 1.706,125.41 C1.95800126,125.101998 2.24266508,124.831335 2.56,124.598 C2.87733492,124.364666 3.20866494,124.145334 3.554,123.94 C3.9740021,123.678665 4.34266508,123.438334 4.66,123.219 C4.97733492,122.999666 5.24099895,122.778001 5.451,122.554 C5.66100105,122.329999 5.81966613,122.087335 5.927,121.826 C6.03433387,121.564665 6.088,121.261335 6.088,120.916 C6.088,120.645332 6.03666718,120.400334 5.934,120.181 C5.83133282,119.961666 5.69366753,119.772667 5.521,119.614 C5.34833247,119.455333 5.1453345,119.334 4.912,119.25 C4.6786655,119.166 4.43133464,119.124 4.17,119.124 C3.82466494,119.124 3.52833457,119.196333 3.281,119.341 C3.03366543,119.485667 2.83066746,119.674666 2.672,119.908 C2.51333254,120.141335 2.39900035,120.404999 2.329,120.699 C2.25899965,120.993001 2.22866662,121.289332 2.238,121.588 L1.048,121.588 Z M10.064,123.114 C10.064,123.487335 10.0756666,123.904998 10.099,124.367 C10.1223335,124.829002 10.1969994,125.262998 10.323,125.669 C10.4490006,126.075002 10.6519986,126.417999 10.932,126.698 C11.2120014,126.978001 11.6039975,127.118 12.108,127.118 C12.6120025,127.118 13.0039986,126.978001 13.284,126.698 C13.5640014,126.417999 13.7669994,126.075002 13.893,125.669 C14.0190006,125.262998 14.0936666,124.829002 14.117,124.367 C14.1403335,123.904998 14.152,123.487335 14.152,123.114 C14.152,122.871332 14.1496667,122.603001 14.145,122.309 C14.1403333,122.014999 14.1170002,121.721001 14.075,121.427 C14.0329998,121.132999 13.9723337,120.846001 13.893,120.566 C13.8136663,120.285999 13.6970008,120.041001 13.543,119.831 C13.3889992,119.620999 13.1953345,119.450667 12.962,119.32 C12.7286655,119.189333 12.4440017,119.124 12.108,119.124 C11.7719983,119.124 11.4873345,119.189333 11.254,119.32 C11.0206655,119.450667 10.8270008,119.620999 10.673,119.831 C10.5189992,120.041001 10.4023337,120.285999 10.323,120.566 C10.2436663,120.846001 10.1830002,121.132999 10.141,121.427 C10.0989998,121.721001 10.0756667,122.014999 10.071,122.309 C10.0663333,122.603001 10.064,122.871332 10.064,123.114 Z M8.804,123.128 C8.804,122.763998 8.81333324,122.386002 8.832,121.994 C8.85066676,121.601998 8.89733296,121.219335 8.972,120.846 C9.04666704,120.472665 9.1539993,120.118002 9.294,119.782 C9.4340007,119.445998 9.62533212,119.152001 9.868,118.9 C10.1106679,118.647999 10.4163315,118.447334 10.785,118.298 C11.1536685,118.148666 11.5946641,118.074 12.108,118.074 C12.6213359,118.074 13.0623315,118.148666 13.431,118.298 C13.7996685,118.447334 14.1053321,118.647999 14.348,118.9 C14.5906679,119.152001 14.7819993,119.445998 14.922,119.782 C15.0620007,120.118002 15.169333,120.472665 15.244,120.846 C15.318667,121.219335 15.3653332,121.601998 15.384,121.994 C15.4026668,122.386002 15.412,122.763998 15.412,123.128 C15.412,123.492002 15.4026668,123.869998 15.384,124.262 C15.3653332,124.654002 15.318667,125.036665 15.244,125.41 C15.169333,125.783335 15.0620007,126.135665 14.922,126.467 C14.7819993,126.798335 14.5906679,127.089999 14.348,127.342 C14.1053321,127.594001 13.8020018,127.792333 13.438,127.937 C13.0739982,128.081667 12.6306693,128.154 12.108,128.154 C11.5946641,128.154 11.1536685,128.081667 10.785,127.937 C10.4163315,127.792333 10.1106679,127.594001 9.868,127.342 C9.62533212,127.089999 9.4340007,126.798335 9.294,126.467 C9.1539993,126.135665 9.04666704,125.783335 8.972,125.41 C8.89733296,125.036665 8.85066676,124.654002 8.832,124.262 C8.81333324,123.869998 8.804,123.492002 8.804,123.128 Z M18.338,120.888 C18.338,121.093334 18.3496666,121.314999 18.373,121.553 C18.3963335,121.791001 18.4499996,122.010332 18.534,122.211 C18.6180004,122.411668 18.7369992,122.579666 18.891,122.715 C19.0450008,122.850334 19.2526654,122.918 19.514,122.918 C19.784668,122.918 19.9993325,122.852667 20.158,122.722 C20.3166675,122.591333 20.4403329,122.425668 20.529,122.225 C20.6176671,122.024332 20.6759999,121.802668 20.704,121.56 C20.7320001,121.317332 20.746,121.088668 20.746,120.874 C20.746,120.668666 20.7343335,120.447001 20.711,120.209 C20.6876666,119.970999 20.6340004,119.751668 20.55,119.551 C20.4659996,119.350332 20.3470008,119.182334 20.193,119.047 C20.0389992,118.911666 19.826668,118.844 19.556,118.844 C19.2946654,118.844 19.0846675,118.911666 18.926,119.047 C18.7673325,119.182334 18.6436671,119.350332 18.555,119.551 C18.4663329,119.751668 18.4080001,119.970999 18.38,120.209 C18.3519999,120.447001 18.338,120.673332 18.338,120.888 Z M17.288,120.916 C17.288,120.533331 17.325333,120.171668 17.4,119.831 C17.474667,119.490332 17.6006658,119.189335 17.778,118.928 C17.9553342,118.666665 18.1886652,118.459001 18.478,118.305 C18.7673348,118.150999 19.1266645,118.074 19.556,118.074 C19.9946689,118.074 20.3563319,118.148666 20.641,118.298 C20.9256681,118.447334 21.1543325,118.647999 21.327,118.9 C21.4996675,119.152001 21.6209997,119.448332 21.691,119.789 C21.7610004,120.129668 21.796,120.491331 21.796,120.874 C21.796,121.238002 21.7563337,121.590332 21.677,121.931 C21.5976663,122.271668 21.4670009,122.570332 21.285,122.827 C21.1029991,123.083668 20.8720014,123.291333 20.592,123.45 C20.3119986,123.608667 19.9666687,123.688 19.556,123.688 C19.1359979,123.688 18.7813348,123.615667 18.492,123.471 C18.2026652,123.326333 17.9693342,123.128001 17.792,122.876 C17.6146658,122.623999 17.4863337,122.330002 17.407,121.994 C17.3276663,121.657998 17.288,121.298669 17.288,120.916 Z M25.254,125.368 C25.254,125.573334 25.2656666,125.794999 25.289,126.033 C25.3123335,126.271001 25.3659996,126.490332 25.45,126.691 C25.5340004,126.891668 25.6529992,127.059666 25.807,127.195 C25.9610008,127.330334 26.1686654,127.398 26.43,127.398 C26.700668,127.398 26.9153325,127.332667 27.074,127.202 C27.2326675,127.071333 27.3563329,126.905668 27.445,126.705 C27.5336671,126.504332 27.5919999,126.282668 27.62,126.04 C27.6480001,125.797332 27.662,125.568668 27.662,125.354 C27.662,125.148666 27.6503335,124.927001 27.627,124.689 C27.6036666,124.450999 27.5500004,124.231668 27.466,124.031 C27.3819996,123.830332 27.2630008,123.662334 27.109,123.527 C26.9549992,123.391666 26.742668,123.324 26.472,123.324 C26.2106654,123.324 26.0006675,123.391666 25.842,123.527 C25.6833325,123.662334 25.5596671,123.830332 25.471,124.031 C25.3823329,124.231668 25.3240001,124.450999 25.296,124.689 C25.2679999,124.927001 25.254,125.153332 25.254,125.368 Z M24.204,125.396 C24.204,125.013331 24.241333,124.651668 24.316,124.311 C24.390667,123.970332 24.5166658,123.669335 24.694,123.408 C24.8713342,123.146665 25.1046652,122.939001 25.394,122.785 C25.6833348,122.630999 26.0426645,122.554 26.472,122.554 C26.9106689,122.554 27.2723319,122.628666 27.557,122.778 C27.8416681,122.927334 28.0703325,123.127999 28.243,123.38 C28.4156675,123.632001 28.5369997,123.928332 28.607,124.269 C28.6770004,124.609668 28.712,124.971331 28.712,125.354 C28.712,125.718002 28.6723337,126.070332 28.593,126.411 C28.5136663,126.751668 28.3830009,127.050332 28.201,127.307 C28.0189991,127.563668 27.7880014,127.768999 27.508,127.923 C27.2279986,128.077001 26.8826687,128.154 26.472,128.154 C26.0519979,128.154 25.6973348,128.081667 25.408,127.937 C25.1186652,127.792333 24.8853342,127.596335 24.708,127.349 C24.5306658,127.101665 24.4023337,126.810002 24.323,126.474 C24.2436663,126.137998 24.204,125.778669 24.204,125.396 Z M26.164,117.892 L27.354,117.892 L19.836,128.294 L18.632,128.294 L26.164,117.892 Z" id="20%" fill="#999999"></path>
                        <path d="M1.048,63.088 C1.01999986,62.5839975 1.07133268,62.1173355 1.202,61.688 C1.33266732,61.2586645 1.53566529,60.8876682 1.811,60.575 C2.08633471,60.2623318 2.42933128,60.0173342 2.84,59.84 C3.25066872,59.6626658 3.71733072,59.574 4.24,59.574 C4.66933548,59.574 5.07299811,59.6369994 5.451,59.763 C5.82900189,59.8890006 6.1579986,60.0709988 6.438,60.309 C6.7180014,60.5470012 6.93966585,60.8433316 7.103,61.198 C7.26633415,61.5526684 7.348,61.963331 7.348,62.43 C7.348,62.8686689 7.28033401,63.2559983 7.145,63.592 C7.00966599,63.9280017 6.83000112,64.2289987 6.606,64.495 C6.38199888,64.7610013 6.12533478,65.0013323 5.836,65.216 C5.54666522,65.4306677 5.24800154,65.635999 4.94,65.832 C4.63199846,66.0186676 4.32400154,66.2029991 4.016,66.385 C3.70799846,66.5670009 3.42566795,66.7606656 3.169,66.966 C2.91233205,67.1713344 2.69300091,67.3929988 2.511,67.631 C2.32899909,67.8690012 2.21000028,68.1419985 2.154,68.45 L7.25,68.45 L7.25,69.5 L0.768,69.5 C0.8146669,68.9119971 0.91966585,68.4103354 1.083,67.995 C1.24633415,67.5796646 1.45399874,67.2180015 1.706,66.91 C1.95800126,66.6019985 2.24266508,66.3313345 2.56,66.098 C2.87733492,65.8646655 3.20866494,65.6453344 3.554,65.44 C3.9740021,65.1786654 4.34266508,64.9383344 4.66,64.719 C4.97733492,64.4996656 5.24099895,64.2780011 5.451,64.054 C5.66100105,63.8299989 5.81966613,63.5873346 5.927,63.326 C6.03433387,63.0646654 6.088,62.7613351 6.088,62.416 C6.088,62.145332 6.03666718,61.9003344 5.934,61.681 C5.83133282,61.4616656 5.69366753,61.2726675 5.521,61.114 C5.34833247,60.9553325 5.1453345,60.8340004 4.912,60.75 C4.6786655,60.6659996 4.43133464,60.624 4.17,60.624 C3.82466494,60.624 3.52833457,60.6963326 3.281,60.841 C3.03366543,60.9856674 2.83066746,61.1746655 2.672,61.408 C2.51333254,61.6413345 2.39900035,61.9049985 2.329,62.199 C2.25899965,62.4930015 2.22866662,62.7893318 2.238,63.088 L1.048,63.088 Z M14.796,60.792 L10.792,60.792 L10.26,63.648 L10.288,63.676 C10.5026677,63.4333321 10.7803316,63.2536673 11.121,63.137 C11.4616684,63.0203328 11.7999983,62.962 12.136,62.962 C12.5746689,62.962 12.989998,63.0319993 13.382,63.172 C13.774002,63.3120007 14.1146652,63.5243319 14.404,63.809 C14.6933348,64.0936681 14.9219992,64.4483312 15.09,64.873 C15.2580008,65.2976688 15.342,65.7946638 15.342,66.364 C15.342,66.7840021 15.2696674,67.1923314 15.125,67.589 C14.9803326,67.9856687 14.7633348,68.3379985 14.474,68.646 C14.1846652,68.9540015 13.8230022,69.1989991 13.389,69.381 C12.9549978,69.5630009 12.4486696,69.654 11.87,69.654 C11.4406645,69.654 11.0370019,69.5910006 10.659,69.465 C10.2809981,69.3389994 9.94733478,69.1570012 9.658,68.919 C9.36866522,68.6809988 9.14000084,68.3846684 8.972,68.03 C8.80399916,67.6753316 8.71533338,67.2740022 8.706,66.826 L9.896,66.826 C9.91466676,67.0780013 9.97766613,67.3136656 10.085,67.533 C10.1923339,67.7523344 10.3369991,67.9436659 10.519,68.107 C10.7010009,68.2703342 10.9156654,68.3963329 11.163,68.485 C11.4103346,68.5736671 11.6833318,68.618 11.982,68.618 C12.2620014,68.618 12.5303321,68.5690005 12.787,68.471 C13.043668,68.3729995 13.2676657,68.226001 13.459,68.03 C13.6503343,67.833999 13.8019994,67.5890015 13.914,67.295 C14.0260006,67.0009985 14.082,66.658002 14.082,66.266 C14.082,65.9393317 14.0283339,65.6383347 13.921,65.363 C13.8136661,65.0876653 13.662001,64.8496677 13.466,64.649 C13.269999,64.4483323 13.0343347,64.2920006 12.759,64.18 C12.4836653,64.0679994 12.1780017,64.012 11.842,64.012 C11.449998,64.012 11.1023349,64.0983325 10.799,64.271 C10.4956652,64.4436675 10.2273345,64.6699986 9.994,64.95 L8.972,64.894 L9.896,59.742 L14.796,59.742 L14.796,60.792 Z M18.338,62.388 C18.338,62.5933344 18.3496666,62.8149988 18.373,63.053 C18.3963335,63.2910012 18.4499996,63.5103323 18.534,63.711 C18.6180004,63.9116677 18.7369992,64.079666 18.891,64.215 C19.0450008,64.350334 19.2526654,64.418 19.514,64.418 C19.784668,64.418 19.9993325,64.3526673 20.158,64.222 C20.3166675,64.0913327 20.4403329,63.9256677 20.529,63.725 C20.6176671,63.5243323 20.6759999,63.3026679 20.704,63.06 C20.7320001,62.8173321 20.746,62.5886677 20.746,62.374 C20.746,62.1686656 20.7343335,61.9470012 20.711,61.709 C20.6876666,61.4709988 20.6340004,61.2516677 20.55,61.051 C20.4659996,60.8503323 20.3470008,60.682334 20.193,60.547 C20.0389992,60.411666 19.826668,60.344 19.556,60.344 C19.2946654,60.344 19.0846675,60.411666 18.926,60.547 C18.7673325,60.682334 18.6436671,60.8503323 18.555,61.051 C18.4663329,61.2516677 18.4080001,61.4709988 18.38,61.709 C18.3519999,61.9470012 18.338,62.1733323 18.338,62.388 Z M17.288,62.416 C17.288,62.0333314 17.325333,61.6716684 17.4,61.331 C17.474667,60.9903316 17.6006658,60.6893346 17.778,60.428 C17.9553342,60.1666654 18.1886652,59.9590008 18.478,59.805 C18.7673348,59.6509992 19.1266645,59.574 19.556,59.574 C19.9946689,59.574 20.3563319,59.6486659 20.641,59.798 C20.9256681,59.9473341 21.1543325,60.1479987 21.327,60.4 C21.4996675,60.6520013 21.6209997,60.9483316 21.691,61.289 C21.7610004,61.6296684 21.796,61.9913314 21.796,62.374 C21.796,62.7380018 21.7563337,63.0903316 21.677,63.431 C21.5976663,63.7716684 21.4670009,64.0703321 21.285,64.327 C21.1029991,64.583668 20.8720014,64.7913325 20.592,64.95 C20.3119986,65.1086675 19.9666687,65.188 19.556,65.188 C19.1359979,65.188 18.7813348,65.1156674 18.492,64.971 C18.2026652,64.8263326 17.9693342,64.6280013 17.792,64.376 C17.6146658,64.1239987 17.4863337,63.8300017 17.407,63.494 C17.3276663,63.1579983 17.288,62.7986686 17.288,62.416 Z M25.254,66.868 C25.254,67.0733344 25.2656666,67.2949988 25.289,67.533 C25.3123335,67.7710012 25.3659996,67.9903323 25.45,68.191 C25.5340004,68.3916677 25.6529992,68.559666 25.807,68.695 C25.9610008,68.830334 26.1686654,68.898 26.43,68.898 C26.700668,68.898 26.9153325,68.8326673 27.074,68.702 C27.2326675,68.5713327 27.3563329,68.4056677 27.445,68.205 C27.5336671,68.0043323 27.5919999,67.7826679 27.62,67.54 C27.6480001,67.2973321 27.662,67.0686677 27.662,66.854 C27.662,66.6486656 27.6503335,66.4270012 27.627,66.189 C27.6036666,65.9509988 27.5500004,65.7316677 27.466,65.531 C27.3819996,65.3303323 27.2630008,65.162334 27.109,65.027 C26.9549992,64.891666 26.742668,64.824 26.472,64.824 C26.2106654,64.824 26.0006675,64.891666 25.842,65.027 C25.6833325,65.162334 25.5596671,65.3303323 25.471,65.531 C25.3823329,65.7316677 25.3240001,65.9509988 25.296,66.189 C25.2679999,66.4270012 25.254,66.6533323 25.254,66.868 Z M24.204,66.896 C24.204,66.5133314 24.241333,66.1516684 24.316,65.811 C24.390667,65.4703316 24.5166658,65.1693346 24.694,64.908 C24.8713342,64.6466654 25.1046652,64.4390008 25.394,64.285 C25.6833348,64.1309992 26.0426645,64.054 26.472,64.054 C26.9106689,64.054 27.2723319,64.1286659 27.557,64.278 C27.8416681,64.4273341 28.0703325,64.6279987 28.243,64.88 C28.4156675,65.1320013 28.5369997,65.4283316 28.607,65.769 C28.6770004,66.1096684 28.712,66.4713314 28.712,66.854 C28.712,67.2180018 28.6723337,67.5703316 28.593,67.911 C28.5136663,68.2516684 28.3830009,68.5503321 28.201,68.807 C28.0189991,69.063668 27.7880014,69.2689992 27.508,69.423 C27.2279986,69.5770008 26.8826687,69.654 26.472,69.654 C26.0519979,69.654 25.6973348,69.5816674 25.408,69.437 C25.1186652,69.2923326 24.8853342,69.0963346 24.708,68.849 C24.5306658,68.6016654 24.4023337,68.3100017 24.323,67.974 C24.2436663,67.6379983 24.204,67.2786686 24.204,66.896 Z M26.164,59.392 L27.354,59.392 L19.836,69.794 L18.632,69.794 L26.164,59.392 Z" id="25%" fill="#999999"></path>
                        <path d="M3.484,5.33 C3.5306669,5.33933338 3.57266648,5.344 3.61,5.344 L4.002,5.344 C4.25400126,5.344 4.49433219,5.30900035 4.723,5.239 C4.95166781,5.16899965 5.15233247,5.06633401 5.325,4.931 C5.49766753,4.79566599 5.63533282,4.62533436 5.738,4.42 C5.84066718,4.21466564 5.892,3.98133464 5.892,3.72 C5.892,3.18799734 5.72400168,2.78900133 5.388,2.523 C5.05199832,2.25699867 4.63200252,2.124 4.128,2.124 C3.81066508,2.124 3.53300119,2.18233275 3.295,2.299 C3.05699881,2.41566725 2.86100077,2.57199902 2.707,2.768 C2.55299923,2.96400098 2.43866704,3.19266536 2.364,3.454 C2.28933296,3.71533464 2.252,3.99066522 2.252,4.28 L1.062,4.28 C1.08066676,3.80399762 1.15766599,3.37000196 1.293,2.978 C1.42833401,2.58599804 1.62199874,2.2500014 1.874,1.97 C2.12600126,1.6899986 2.44099811,1.47066746 2.819,1.312 C3.19700189,1.15333254 3.63333086,1.074 4.128,1.074 C4.55733548,1.074 4.95633149,1.12766613 5.325,1.235 C5.69366851,1.34233387 6.01333198,1.50333226 6.284,1.718 C6.55466802,1.93266774 6.76699923,2.20799832 6.921,2.544 C7.07500077,2.88000168 7.152,3.27666438 7.152,3.734 C7.152,4.18200224 7.02133464,4.57866494 6.76,4.924 C6.49866536,5.26933506 6.17200196,5.53066578 5.78,5.708 L5.78,5.736 C6.3866697,5.86666732 6.83699853,6.15133114 7.131,6.59 C7.42500147,7.02866886 7.572,7.54666368 7.572,8.144 C7.572,8.63866914 7.48100091,9.07499811 7.299,9.453 C7.11699909,9.83100189 6.87200154,10.1459987 6.564,10.398 C6.25599846,10.6500013 5.89433541,10.8389994 5.479,10.965 C5.06366459,11.0910006 4.622669,11.154 4.156,11.154 C3.65199748,11.154 3.19466872,11.0840007 2.784,10.944 C2.37333128,10.8039993 2.02333478,10.5963347 1.734,10.321 C1.44466522,10.0456653 1.22300077,9.70733534 1.069,9.306 C0.91499923,8.90466466 0.84266662,8.4473359 0.852,7.934 L2.042,7.934 C2.06066676,8.57800322 2.24733156,9.10299797 2.602,9.509 C2.95666844,9.91500203 3.47466326,10.118 4.156,10.118 C4.44533478,10.118 4.72066536,10.0736671 4.982,9.985 C5.24333464,9.89633289 5.47199902,9.77033415 5.668,9.607 C5.86400098,9.44366585 6.02033275,9.24300119 6.137,9.005 C6.25366725,8.76699881 6.312,8.49866816 6.312,8.2 C6.312,7.89199846 6.25600056,7.61900119 6.144,7.381 C6.03199944,7.14299881 5.8826676,6.94233415 5.696,6.779 C5.5093324,6.61566585 5.28766795,6.49433373 5.031,6.415 C4.77433205,6.33566627 4.49666816,6.296 4.198,6.296 C3.94599874,6.296 3.70800112,6.30999986 3.484,6.338 L3.484,5.33 Z M10.064,6.114 C10.064,6.4873352 10.0756666,6.90499769 10.099,7.367 C10.1223335,7.82900231 10.1969994,8.26299797 10.323,8.669 C10.4490006,9.07500203 10.6519986,9.4179986 10.932,9.698 C11.2120014,9.9780014 11.6039975,10.118 12.108,10.118 C12.6120025,10.118 13.0039986,9.9780014 13.284,9.698 C13.5640014,9.4179986 13.7669994,9.07500203 13.893,8.669 C14.0190006,8.26299797 14.0936666,7.82900231 14.117,7.367 C14.1403335,6.90499769 14.152,6.4873352 14.152,6.114 C14.152,5.87133212 14.1496667,5.60300147 14.145,5.309 C14.1403333,5.01499853 14.1170002,4.72100147 14.075,4.427 C14.0329998,4.13299853 13.9723337,3.8460014 13.893,3.566 C13.8136663,3.2859986 13.6970008,3.04100105 13.543,2.831 C13.3889992,2.62099895 13.1953345,2.45066732 12.962,2.32 C12.7286655,2.18933268 12.4440017,2.124 12.108,2.124 C11.7719983,2.124 11.4873345,2.18933268 11.254,2.32 C11.0206655,2.45066732 10.8270008,2.62099895 10.673,2.831 C10.5189992,3.04100105 10.4023337,3.2859986 10.323,3.566 C10.2436663,3.8460014 10.1830002,4.13299853 10.141,4.427 C10.0989998,4.72100147 10.0756667,5.01499853 10.071,5.309 C10.0663333,5.60300147 10.064,5.87133212 10.064,6.114 Z M8.804,6.128 C8.804,5.76399818 8.81333324,5.38600196 8.832,4.994 C8.85066676,4.60199804 8.89733296,4.2193352 8.972,3.846 C9.04666704,3.4726648 9.1539993,3.11800168 9.294,2.782 C9.4340007,2.44599832 9.62533212,2.15200126 9.868,1.9 C10.1106679,1.64799874 10.4163315,1.44733408 10.785,1.298 C11.1536685,1.14866592 11.5946641,1.074 12.108,1.074 C12.6213359,1.074 13.0623315,1.14866592 13.431,1.298 C13.7996685,1.44733408 14.1053321,1.64799874 14.348,1.9 C14.5906679,2.15200126 14.7819993,2.44599832 14.922,2.782 C15.0620007,3.11800168 15.169333,3.4726648 15.244,3.846 C15.318667,4.2193352 15.3653332,4.60199804 15.384,4.994 C15.4026668,5.38600196 15.412,5.76399818 15.412,6.128 C15.412,6.49200182 15.4026668,6.86999804 15.384,7.262 C15.3653332,7.65400196 15.318667,8.0366648 15.244,8.41 C15.169333,8.7833352 15.0620007,9.13566501 14.922,9.467 C14.7819993,9.79833499 14.5906679,10.0899987 14.348,10.342 C14.1053321,10.5940013 13.8020018,10.7923326 13.438,10.937 C13.0739982,11.0816674 12.6306693,11.154 12.108,11.154 C11.5946641,11.154 11.1536685,11.0816674 10.785,10.937 C10.4163315,10.7923326 10.1106679,10.5940013 9.868,10.342 C9.62533212,10.0899987 9.4340007,9.79833499 9.294,9.467 C9.1539993,9.13566501 9.04666704,8.7833352 8.972,8.41 C8.89733296,8.0366648 8.85066676,7.65400196 8.832,7.262 C8.81333324,6.86999804 8.804,6.49200182 8.804,6.128 Z M18.338,3.888 C18.338,4.09333436 18.3496666,4.31499881 18.373,4.553 C18.3963335,4.79100119 18.4499996,5.01033233 18.534,5.211 C18.6180004,5.41166767 18.7369992,5.57966599 18.891,5.715 C19.0450008,5.85033401 19.2526654,5.918 19.514,5.918 C19.784668,5.918 19.9993325,5.85266732 20.158,5.722 C20.3166675,5.59133268 20.4403329,5.42566767 20.529,5.225 C20.6176671,5.02433233 20.6759999,4.80266788 20.704,4.56 C20.7320001,4.31733212 20.746,4.08866774 20.746,3.874 C20.746,3.66866564 20.7343335,3.44700119 20.711,3.209 C20.6876666,2.97099881 20.6340004,2.75166767 20.55,2.551 C20.4659996,2.35033233 20.3470008,2.18233401 20.193,2.047 C20.0389992,1.91166599 19.826668,1.844 19.556,1.844 C19.2946654,1.844 19.0846675,1.91166599 18.926,2.047 C18.7673325,2.18233401 18.6436671,2.35033233 18.555,2.551 C18.4663329,2.75166767 18.4080001,2.97099881 18.38,3.209 C18.3519999,3.44700119 18.338,3.67333226 18.338,3.888 Z M17.288,3.916 C17.288,3.53333142 17.325333,3.17166837 17.4,2.831 C17.474667,2.49033163 17.6006658,2.18933464 17.778,1.928 C17.9553342,1.66666536 18.1886652,1.45900077 18.478,1.305 C18.7673348,1.15099923 19.1266645,1.074 19.556,1.074 C19.9946689,1.074 20.3563319,1.14866592 20.641,1.298 C20.9256681,1.44733408 21.1543325,1.64799874 21.327,1.9 C21.4996675,2.15200126 21.6209997,2.44833163 21.691,2.789 C21.7610004,3.12966837 21.796,3.49133142 21.796,3.874 C21.796,4.23800182 21.7563337,4.59033163 21.677,4.931 C21.5976663,5.27166837 21.4670009,5.57033205 21.285,5.827 C21.1029991,6.08366795 20.8720014,6.29133254 20.592,6.45 C20.3119986,6.60866746 19.9666687,6.688 19.556,6.688 C19.1359979,6.688 18.7813348,6.61566739 18.492,6.471 C18.2026652,6.32633261 17.9693342,6.12800126 17.792,5.876 C17.6146658,5.62399874 17.4863337,5.33000168 17.407,4.994 C17.3276663,4.65799832 17.288,4.29866858 17.288,3.916 Z M25.254,8.368 C25.254,8.57333436 25.2656666,8.79499881 25.289,9.033 C25.3123335,9.27100119 25.3659996,9.49033233 25.45,9.691 C25.5340004,9.89166767 25.6529992,10.059666 25.807,10.195 C25.9610008,10.330334 26.1686654,10.398 26.43,10.398 C26.700668,10.398 26.9153325,10.3326673 27.074,10.202 C27.2326675,10.0713327 27.3563329,9.90566767 27.445,9.705 C27.5336671,9.50433233 27.5919999,9.28266788 27.62,9.04 C27.6480001,8.79733212 27.662,8.56866774 27.662,8.354 C27.662,8.14866564 27.6503335,7.92700119 27.627,7.689 C27.6036666,7.45099881 27.5500004,7.23166767 27.466,7.031 C27.3819996,6.83033233 27.2630008,6.66233401 27.109,6.527 C26.9549992,6.39166599 26.742668,6.324 26.472,6.324 C26.2106654,6.324 26.0006675,6.39166599 25.842,6.527 C25.6833325,6.66233401 25.5596671,6.83033233 25.471,7.031 C25.3823329,7.23166767 25.3240001,7.45099881 25.296,7.689 C25.2679999,7.92700119 25.254,8.15333226 25.254,8.368 Z M24.204,8.396 C24.204,8.01333142 24.241333,7.65166837 24.316,7.311 C24.390667,6.97033163 24.5166658,6.66933464 24.694,6.408 C24.8713342,6.14666536 25.1046652,5.93900077 25.394,5.785 C25.6833348,5.63099923 26.0426645,5.554 26.472,5.554 C26.9106689,5.554 27.2723319,5.62866592 27.557,5.778 C27.8416681,5.92733408 28.0703325,6.12799874 28.243,6.38 C28.4156675,6.63200126 28.5369997,6.92833163 28.607,7.269 C28.6770004,7.60966837 28.712,7.97133142 28.712,8.354 C28.712,8.71800182 28.6723337,9.07033163 28.593,9.411 C28.5136663,9.75166837 28.3830009,10.0503321 28.201,10.307 C28.0189991,10.563668 27.7880014,10.7689992 27.508,10.923 C27.2279986,11.0770008 26.8826687,11.154 26.472,11.154 C26.0519979,11.154 25.6973348,11.0816674 25.408,10.937 C25.1186652,10.7923326 24.8853342,10.5963346 24.708,10.349 C24.5306658,10.1016654 24.4023337,9.81000168 24.323,9.474 C24.2436663,9.13799832 24.204,8.77866858 24.204,8.396 Z M26.164,0.892 L27.354,0.892 L19.836,11.294 L18.632,11.294 L26.164,0.892 Z" id="30%" fill="#999999"></path>
                        <rect id="矩形-copy-9" fill="#F7B759" x="905" y="46" width="50" height="311"></rect>
                        <rect id="矩形-copy-5" fill="#F7B759" x="309.5" y="141" width="50" height="216"></rect>
                        <rect id="矩形-copy-10" fill="#F7B759" x="111" y="159" width="50" height="198"></rect>
                        <rect id="矩形-copy-6" fill="#F7B759" x="508" y="123" width="50" height="234"></rect>
                        <rect id="矩形-copy-7" fill="#F7B759" x="706.5" y="89" width="50" height="268"></rect>
                    </g>
                </g>
            </g>
        </g>
    </g>
</svg>