<?xml version="1.0" encoding="UTF-8"?>
<svg width="123px" height="34px" viewBox="0 0 123 34" version="1.1" xmlns="http://www.w3.org/2000/svg" xmlns:xlink="http://www.w3.org/1999/xlink">
    <!-- Generator: Sketch 52.6 (67491) - http://www.bohemiancoding.com/sketch -->
    <title>logo</title>
    <desc>Created with Sketch.</desc>
    <defs>
        <path d="M16.832448,0.0758974359 C16.803208,0.0797435897 16.772744,0.0843589744 16.741328,0.0920512821 C16.108928,0.252307692 15.51488,0.502564103 15.011136,0.892179487 C14.400632,1.36487179 13.820864,1.87217949 13.247352,2.38474359 C12.93292,2.66564103 12.604752,2.73371795 12.212392,2.58012821 C11.35804,2.24884615 10.474584,2.02615385 9.553592,1.91948718 C8.75636,1.82833333 7.963752,1.83935897 7.173592,1.94166667 C6.353512,2.04705128 5.560768,2.25846154 4.78788,2.53153846 C4.589864,2.60294872 4.3656,2.6325641 4.15344,2.62846154 C3.813576,2.6225641 3.584824,2.39794872 3.365456,2.18461538 C2.74312,1.58807692 2.104736,1.00512821 1.335248,0.573846154 C0.945608,0.355897436 0.535296,0.177820513 0.076024,0.0874358974 C0.072488,0.122820513 0.07004,0.145512821 0.071128,0.167820513 C0.14484,0.787307692 0.220592,1.40461538 0.290768,2.02294872 C0.360944,2.65320513 0.429624,3.28397436 0.491368,3.91564103 C0.569704,4.72269231 0.643552,5.52897436 0.715632,6.33589744 C0.716584,6.34576923 0.717944,6.35512821 0.71876,6.36474359 C0.784312,7.08846154 0.945336,7.78653846 1.295808,8.4375641 C1.66464,9.12525641 2.21816,9.63371795 2.964664,9.95935897 C2.461872,9.49179487 2.051968,8.965 1.793024,8.3375641 C1.497088,7.62358974 1.428816,6.89474359 1.44704,6.16 C1.457648,5.72397436 1.498584,5.28551282 1.540744,4.84730769 C1.587256,4.36474359 1.635128,3.88487179 1.679736,3.40282051 C1.700544,3.18282051 1.712512,2.96153846 1.729648,2.71282051 C1.843072,2.80846154 1.934056,2.88448718 2.021504,2.96038462 C2.613104,3.47423077 3.204296,3.98884615 3.791272,4.50423077 C3.88076,4.58358974 3.94672,4.58782051 4.058512,4.535 C4.508128,4.32025641 4.957472,4.095 5.424088,3.9175641 C6.892344,3.35782051 8.406432,3.21692308 9.96336,3.52935897 C11.031912,3.7424359 12.01764,4.14679487 12.95128,4.67038462 C13.062936,4.73397436 13.13012,4.74628205 13.224504,4.64166667 C13.663376,4.14217949 14.121152,3.65705128 14.552952,3.15282051 C14.7322,2.94397436 14.96272,2.83935897 15.228872,2.7225641 C15.228872,2.80846154 15.227376,2.8725641 15.228872,2.93615385 C15.24628,3.65705128 15.264776,4.37782051 15.27892,5.09935897 C15.29184,5.75871795 15.328016,6.41987179 15.304488,7.07807692 C15.269672,8.02064103 14.876768,8.83282051 14.189152,9.51794872 C14.128496,9.57871795 14.071376,9.64230769 14.014392,9.70653846 C13.946936,9.7824359 13.88016,9.85961538 13.811888,9.93525641 C13.911304,9.89307692 14.007728,9.84794872 14.100208,9.79961538 C14.741312,9.46705128 15.227376,8.98833333 15.571864,8.36871795 C15.984488,7.62128205 16.079688,6.80692308 16.148368,5.98666667 C16.22344,5.10051282 16.286544,4.21269231 16.341896,3.32576923 C16.39344,2.50923077 16.527536,1.70717949 16.720384,0.913205128 C16.786752,0.640769231 16.837344,0.363589744 16.89392,0.0906410256 C16.861688,0.0817948718 16.848904,0.0756410256 16.836256,0.0756410256 C16.835168,0.0756410256 16.833672,0.0756410256 16.832448,0.0758974359" id="path-1"></path>
        <radialGradient cx="27.0226926%" cy="-6.08091707%" fx="27.0226926%" fy="-6.08091707%" r="218.864655%" gradientTransform="translate(0.270227,-0.060809),scale(0.587510,1.000000),rotate(-117.281284),translate(-0.270227,0.060809)" id="radialGradient-3">
            <stop stop-color="#ED6D46" offset="0%"></stop>
            <stop stop-color="#520000" offset="100%"></stop>
        </radialGradient>
        <path d="M16.822792,0.0115189873 C16.790832,0.0156962025 16.757512,0.0206329114 16.723648,0.0294936709 C16.017536,0.206075949 15.443072,0.468101266 14.967888,0.831392405 C14.384992,1.27708861 13.839496,1.74417722 13.200024,2.30835443 C13.00568,2.47949367 12.809704,2.56278481 12.601488,2.56278481 C12.486976,2.56278481 12.36784,2.53835443 12.238232,2.48822785 C11.372728,2.15670886 10.471864,1.9356962 9.561888,1.83177215 C9.19972,1.79075949 8.830208,1.77025316 8.463552,1.77025316 C8.036376,1.77025316 7.598864,1.79835443 7.164344,1.85392405 C6.401792,1.95075949 5.616936,2.14189873 4.763128,2.43962025 C4.594352,2.5 4.396064,2.53164557 4.189616,2.53164557 L4.154936,2.53151899 C3.844856,2.52607595 3.628208,2.31759494 3.414144,2.1121519 C2.810168,1.54037975 2.154784,0.946075949 1.3702,0.511772152 C0.914872,0.26 0.507688,0.105189873 0.08976,0.0240506329 C0.087856,0.0234177215 0.08568,0.0232911392 0.083232,0.0232911392 C0.066096,0.0232911392 0.048144,0.034556962 0.034408,0.0440506329 C0.018632,0.0548101266 0.007752,0.0802531646 0.005848,0.0984810127 C0.002856,0.127721519 0.001496,0.148987342 0.002856,0.173037975 L0.06732,0.704177215 C0.120224,1.13746835 0.17272,1.57050633 0.222496,2.00379747 C0.2924,2.62582278 0.361352,3.24835443 0.422688,3.87189873 C0.501568,4.66886076 0.575416,5.46443038 0.647088,6.26113924 L0.650216,6.28962025 C0.724608,7.09746835 0.915688,7.7743038 1.23488,8.35962025 C1.610648,9.05189873 2.1828,9.56721519 2.935832,9.89126582 C2.94508,9.89544304 2.954872,9.89759494 2.964664,9.89759494 C2.986696,9.89759494 3.00764,9.88746835 3.021104,9.86974684 C3.039872,9.8443038 3.036472,9.80987342 3.012808,9.78810127 C2.471392,9.29101266 2.093448,8.77443038 1.856808,8.20873418 C1.602624,7.60405063 1.494368,6.92848101 1.515448,6.08367089 C1.5266,5.64189873 1.570256,5.19025316 1.609016,4.79177215 L1.654984,4.32721519 C1.686672,4.00683544 1.717952,3.6864557 1.748144,3.3656962 C1.762968,3.21037975 1.77344,3.05392405 1.78432,2.8878481 L1.789352,2.81379747 C1.856672,2.86962025 1.91624,2.91949367 1.974856,2.97 C2.567,3.47708861 3.15792,3.98531646 3.744352,4.4935443 C3.80936,4.55050633 3.867704,4.57620253 3.933392,4.57620253 C3.980176,4.57620253 4.028048,4.56316456 4.08952,4.53455696 L4.303448,4.43291139 C4.675408,4.25632911 5.05988,4.0735443 5.449656,3.92696203 C6.400568,3.56924051 7.375824,3.38734177 8.34768,3.38734177 C8.87604,3.38734177 9.414736,3.44139241 9.949352,3.54721519 C10.93848,3.74253165 11.909248,4.10848101 12.91592,4.66594937 C12.969096,4.69594937 13.026624,4.72341772 13.088232,4.72341772 C13.175952,4.72341772 13.237832,4.66683544 13.277272,4.62367089 C13.464272,4.41367089 13.654808,4.20594937 13.845072,3.99835443 C14.097216,3.72329114 14.3582,3.43898734 14.6064,3.15291139 C14.757224,2.97936709 14.951024,2.88088608 15.15992,2.78873418 C15.159648,2.82860759 15.159376,2.86455696 15.160192,2.90063291 L15.1708,3.32696203 C15.18508,3.89632911 15.199088,4.46607595 15.21024,5.03594937 C15.213776,5.21658228 15.219216,5.39696203 15.224656,5.5778481 C15.238528,6.04037975 15.252944,6.51848101 15.236216,6.98607595 C15.202896,7.87341772 14.833792,8.67 14.138832,9.35379747 C14.077904,9.41468354 14.019424,9.47835443 13.961624,9.54240506 C13.961624,9.54240506 13.802368,9.72126582 13.759664,9.76822785 C13.738992,9.79063291 13.737904,9.82367089 13.757216,9.84746835 C13.770408,9.86417722 13.790944,9.87316456 13.811888,9.87316456 C13.821272,9.87316456 13.830792,9.87164557 13.84004,9.86772152 C13.941088,9.82544304 14.039008,9.78 14.133256,9.73151899 C14.77572,9.40227848 15.279872,8.91810127 15.632384,8.29189873 C16.048952,7.54759494 16.146328,6.74329114 16.216368,5.91582278 C16.28736,5.09177215 16.350464,4.23202532 16.41044,3.28734177 C16.4594,2.52417722 16.582344,1.74848101 16.787432,0.915822785 C16.833672,0.727594937 16.872568,0.53721519 16.911056,0.347721519 L16.961512,0.101772152 C16.968312,0.0692405063 16.947368,0.0374683544 16.91296,0.0283544304 L16.88644,0.0203797468 C16.871344,0.0159493671 16.8572,0.0115189873 16.829456,0.0115189873 L16.822792,0.0115189873 Z" id="path-4"></path>
        <radialGradient cx="27.0227408%" cy="-6.07994904%" fx="27.0227408%" fy="-6.07994904%" r="218.867085%" gradientTransform="translate(0.270227,-0.060799),scale(0.582890,1.000000),rotate(-117.579722),translate(-0.270227,0.060799)" id="radialGradient-6">
            <stop stop-color="#ED6D46" offset="0%"></stop>
            <stop stop-color="#520000" offset="100%"></stop>
        </radialGradient>
        <path d="M16.832448,0.0758974359 C16.803208,0.0797435897 16.772744,0.0843589744 16.741328,0.0920512821 C16.108928,0.252307692 15.51488,0.502564103 15.011136,0.892179487 C14.400632,1.36487179 13.820864,1.87217949 13.247352,2.38474359 C12.93292,2.66564103 12.604752,2.73371795 12.212392,2.58012821 C11.35804,2.24884615 10.474584,2.02615385 9.553592,1.91948718 C8.75636,1.82833333 7.963752,1.83935897 7.173592,1.94166667 C6.353512,2.04705128 5.560768,2.25846154 4.78788,2.53153846 C4.589864,2.60294872 4.3656,2.6325641 4.15344,2.62846154 C3.813576,2.6225641 3.584824,2.39794872 3.365456,2.18461538 C2.74312,1.58807692 2.104736,1.00512821 1.335248,0.573846154 C0.945608,0.355897436 0.535296,0.177820513 0.076024,0.0874358974 C0.072488,0.122820513 0.07004,0.145512821 0.071128,0.167820513 C0.14484,0.787307692 0.220592,1.40461538 0.290768,2.02294872 C0.360944,2.65320513 0.429624,3.28397436 0.491368,3.91564103 C0.569704,4.72269231 0.643552,5.52897436 0.715632,6.33589744 C0.716584,6.34576923 0.717944,6.35512821 0.71876,6.36474359 C0.784312,7.08846154 0.945336,7.78653846 1.295808,8.4375641 C1.66464,9.12525641 2.21816,9.63371795 2.964664,9.95935897 C2.461872,9.49179487 2.051968,8.965 1.793024,8.3375641 C1.497088,7.62358974 1.428816,6.89474359 1.44704,6.16 C1.457648,5.72397436 1.498584,5.28551282 1.540744,4.84730769 C1.587256,4.36474359 1.635128,3.88487179 1.679736,3.40282051 C1.700544,3.18282051 1.712512,2.96153846 1.729648,2.71282051 C1.843072,2.80846154 1.934056,2.88448718 2.021504,2.96038462 C2.613104,3.47423077 3.204296,3.98884615 3.791272,4.50423077 C3.88076,4.58358974 3.94672,4.58782051 4.058512,4.535 C4.508128,4.32025641 4.957472,4.095 5.424088,3.9175641 C6.892344,3.35782051 8.406432,3.21692308 9.96336,3.52935897 C11.031912,3.7424359 12.01764,4.14679487 12.95128,4.67038462 C13.062936,4.73397436 13.13012,4.74628205 13.224504,4.64166667 C13.663376,4.14217949 14.121152,3.65705128 14.552952,3.15282051 C14.7322,2.94397436 14.96272,2.83935897 15.228872,2.7225641 C15.228872,2.80846154 15.227376,2.8725641 15.228872,2.93615385 C15.24628,3.65705128 15.264776,4.37782051 15.27892,5.09935897 C15.29184,5.75871795 15.328016,6.41987179 15.304488,7.07807692 C15.269672,8.02064103 14.876768,8.83282051 14.189152,9.51794872 C14.128496,9.57871795 14.071376,9.64230769 14.014392,9.70653846 C13.946936,9.7824359 13.88016,9.85961538 13.811888,9.93525641 C13.911304,9.89307692 14.007728,9.84794872 14.100208,9.79961538 C14.741312,9.46705128 15.227376,8.98833333 15.571864,8.36871795 C15.984488,7.62128205 16.079688,6.80692308 16.148368,5.98666667 C16.22344,5.10051282 16.286544,4.21269231 16.341896,3.32576923 C16.39344,2.50923077 16.527536,1.70717949 16.720384,0.913205128 C16.786752,0.640769231 16.837344,0.363589744 16.89392,0.0906410256 C16.861688,0.0817948718 16.848904,0.0756410256 16.836256,0.0756410256 C16.835168,0.0756410256 16.833672,0.0756410256 16.832448,0.0758974359 Z" id="path-7"></path>
        <path d="M8.58846154,0.0969879518 C8.48166667,0.182891566 8.37641026,0.269638554 8.27269231,0.361566265 C7.84461538,0.734457831 7.45820513,1.12626506 7.10435897,1.49445783 L6.88769231,1.72144578 C6.68025641,1.93891566 6.47384615,2.1553012 6.26269231,2.37072289 C6.00923077,2.62915663 5.92474359,2.8739759 5.98884615,3.16445783 C6.03846154,3.38445783 5.98205128,3.58421687 5.81064103,3.79385542 C5.60192308,4.05518072 5.38179487,4.31325301 5.1925641,4.53253012 L5.12794872,4.60819277 C4.9225641,4.84253012 4.71487179,5.07578313 4.50076923,5.30759036 C4.35346154,5.46987952 4.20346154,5.62831325 4.05179487,5.78566265 C3.94576923,5.89698795 3.83948718,6.00746988 3.72961538,6.11771084 C3.27282051,6.57518072 2.81397436,7.02939759 2.35512821,7.48373494 C2.05487179,7.78108434 1.755,8.07795181 1.45564103,8.3760241 C1.45102564,8.37855422 1.4474359,8.38180723 1.44384615,8.38566265 C1.4375641,8.39204819 0.81974359,9.04204819 0.325769231,9.22795181 C0.148205128,9.2946988 0.0598717949,9.42156627 0.0897435897,9.5673494 C0.122948718,9.72819277 0.314358974,9.8946988 0.577307692,9.8946988 C0.913205128,9.8946988 1.30884615,9.79108434 1.55717949,9.63939759 C1.64987179,9.59421687 1.72346154,9.54313253 1.78935897,9.47915663 C1.83641026,9.43385542 1.87871795,9.38180723 1.91935897,9.33156627 L2.52653846,8.58325301 L2.73038462,8.33012048 C2.82128205,8.21759036 2.91217949,8.10493976 3.00179487,7.99228916 C3.07576923,7.89915663 3.15192308,7.80638554 3.2274359,7.71385542 L3.37641026,7.5313253 C3.77435897,7.04144578 4.14897436,6.59626506 4.52217949,6.17036145 C4.65179487,6.02289157 4.78307692,5.87686747 4.91487179,5.73036145 L4.99179487,5.64506024 C5.16115385,5.45903614 5.33153846,5.27722892 5.50269231,5.09698795 L5.60782051,4.98783133 C5.78730769,4.80192771 5.96948718,4.61891566 6.15358974,4.43566265 C6.43564103,4.16228916 6.68141026,3.95313253 7.05641026,3.95313253 C7.09564103,3.95313253 7.13679487,3.95554217 7.17858974,3.96024096 C7.19987179,3.96325301 7.22115385,3.96445783 7.24179487,3.96445783 C7.45461538,3.96445783 7.60346154,3.82289157 7.69794872,3.71566265 C7.95782051,3.41024096 8.22217949,3.10710843 8.48679487,2.80361446 C8.79025641,2.45518072 9.09410256,2.10686747 9.39205128,1.75409639 L9.47410256,1.65951807 C9.62397436,1.48746988 9.77948718,1.30963855 9.88346154,1.05915663 C9.89230769,1.03831325 9.88641026,1.01518072 9.86935897,1 C9.85846154,0.990481928 9.84423077,0.985421687 9.83012821,0.985421687 C9.82179487,0.985421687 9.81346154,0.987108434 9.80589744,0.990481928 C9.59717949,1.08204819 9.48064103,1.20915663 9.36807692,1.33192771 L9.31166667,1.39277108 C9.14717949,1.56289157 8.98448718,1.73445783 8.82141026,1.90638554 C8.59230769,2.14771084 8.36320513,2.38915663 8.12717949,2.62963855 C8.04987179,2.70831325 7.96192308,2.79771084 7.87115385,2.79771084 C7.82961538,2.79771084 7.78794872,2.77927711 7.74307692,2.74072289 C7.70858974,2.71228916 7.69230769,2.68554217 7.68320513,2.66554217 C7.67705128,2.65409639 7.67435897,2.64228916 7.67435897,2.62722892 C7.67371795,2.61277108 7.67538462,2.60060241 7.68217949,2.58120482 C7.68525641,2.56614458 7.69012821,2.55313253 7.69769231,2.5413253 L7.64846154,2.5139759 L7.7075641,2.52168675 C7.71794872,2.51024096 7.72730769,2.49698795 7.73679487,2.48313253 L7.74884615,2.46590361 C7.74884615,2.46590361 7.81935897,2.38746988 7.83551282,2.36843373 C8.00987179,2.16590361 8.18807692,1.96759036 8.36589744,1.76975904 C8.46141026,1.66373494 8.55679487,1.5573494 8.65205128,1.45 C8.74102564,1.34879518 8.83025641,1.24566265 8.91833333,1.14180723 C8.93884615,1.1173494 8.96038462,1.09313253 8.98217949,1.06855422 C9.10576923,0.93060241 9.24538462,0.77373494 9.28012821,0.511807229 C9.28320513,0.488674699 9.27012821,0.466506024 9.24833333,0.456626506 C9.24012821,0.452771084 9.23166667,0.451084337 9.22320513,0.451084337 C9.20833333,0.451084337 9.19346154,0.45686747 9.18230769,0.467349398 L9.01307692,0.626506024 C8.96730769,0.666987952 8.93051282,0.704337349 8.87923077,0.756506024 C8.63371795,1.01301205 8.39025641,1.27024096 8.14730769,1.5273494 C7.93397436,1.75301205 7.72076923,1.97807229 7.50666667,2.20253012 C7.43153846,2.28168675 7.36294872,2.34722892 7.28807692,2.34722892 C7.25371795,2.34722892 7.2175641,2.33325301 7.17820513,2.30506024 C7.05576923,2.21626506 7.06102564,2.12144578 7.19692308,1.95566265 C7.32564103,1.79879518 7.465,1.64457831 7.59987179,1.49554217 C7.66128205,1.42795181 7.72205128,1.36048193 7.7825641,1.29228916 C7.8424359,1.22481928 7.90307692,1.15783133 7.96346154,1.0913253 C8.06410256,0.980361446 8.16461538,0.869277108 8.26179487,0.754216867 C8.44564103,0.536385542 8.5774359,0.348313253 8.67692308,0.162048193 C8.68910256,0.139156627 8.6825641,0.111204819 8.66115385,0.0955421687 C8.65051282,0.0875903614 8.63820513,0.0837349398 8.62564103,0.0837349398 C8.6124359,0.0837349398 8.59897436,0.0880722892 8.58846154,0.0969879518 Z" id="path-9"></path>
        <path d="M16.3492558,0.0320941176 C16.1926977,0.0363647059 16.0357442,0.0403764706 15.8786589,0.0438705882 C15.0179845,0.0635411765 14.1172481,0.195541176 13.0442713,0.459670588 C9.14389147,1.42624706 5.93985271,3.5288 3.52110853,6.70896471 C1.56834884,9.28063529 0.424077519,12.2276 0.119658915,15.4688471 C0.109775194,15.5758706 0.0963333333,15.6826353 0.0828914729,15.7899176 C0.0716899225,15.8799882 0.0600930233,15.9701882 0.0498139535,16.0743647 L0.0498139535,18.1087176 L0.0531085271,18.1224353 C0.0566666667,18.1399059 0.0618062016,18.1576353 0.0668139535,18.1753647 C0.0732713178,18.2006 0.080124031,18.2245412 0.0817054264,18.2492588 C0.107666667,18.4592941 0.131651163,18.6685529 0.15524031,18.8779412 C0.201232558,19.2861059 0.248806202,19.7082471 0.313906977,20.1243059 C0.530294574,21.4775647 0.954635659,22.8583882 1.57493798,24.2289882 C2.63196899,26.5576235 4.1804186,28.5923647 6.17679845,30.2757529 C7.22921705,31.1622235 8.24196899,31.8126471 9.27237984,32.2633882 C9.43236434,32.3344353 9.59735659,32.3984941 9.77671318,32.4686353 L10.2013178,32.6362235 L10.1675814,32.4113059 C10.147814,32.2802118 10.1314729,32.1564941 10.1159225,32.0373059 C10.0903566,31.8424118 10.0663721,31.6582588 10.0315814,31.4743647 C9.8646124,30.5939765 9.47348062,29.9571412 8.83604651,29.5268471 C7.5997907,28.6946 6.47423256,27.6454588 5.49047287,26.4095765 C3.52927907,23.9484235 2.43231783,21.1096471 2.23016279,17.9721882 C2.1358062,16.522 2.25612403,15.0914824 2.58703101,13.7199765 C3.45455814,10.1110706 5.34564341,7.19555294 8.20810078,5.05508235 C10.5796667,3.27955294 13.3243101,2.30029412 16.366124,2.14331765 C16.5883101,2.13218824 16.8147132,2.12649412 17.0391395,2.12649412 C17.9078527,2.12649412 18.8051628,2.21397647 19.7127519,2.38803529 C19.7099845,2.38803529 19.7068217,2.38777647 19.7040543,2.38751765 C19.4125504,2.36681176 19.1107674,2.35632941 18.8072713,2.35632941 C18.0750853,2.35632941 17.3073178,2.41547059 16.4598217,2.53711765 C15.1213023,2.72761176 13.8250853,3.10510588 12.6070155,3.65911765 C10.2947519,4.7058 8.51976744,6.06552941 7.18072093,7.81491765 C5.49376744,10.0171176 4.51488372,12.5255059 4.27095349,15.2705882 C4.18213178,16.3012235 4.22456589,17.3316 4.39746512,18.3323412 C4.4555814,18.6685529 4.52845736,19.0042471 4.61451163,19.3386471 C4.82167442,20.1442353 5.11251938,20.9414118 5.4755814,21.7230588 C5.54186822,21.8651529 5.60551938,22.0076353 5.67681395,22.1483059 C5.71727132,22.2313882 5.76062791,22.3109765 5.80345736,22.3900471 C5.80345736,22.3900471 5.83772093,22.5010824 5.87066667,22.5151882 C5.92996899,22.5409412 6.03565891,22.4746824 6.07400775,22.4230471 C6.19630233,22.2584353 6.07295349,22.0411529 6.0064031,21.8419882 C5.85722481,21.3728706 5.72056589,20.9302824 5.5999845,20.5002471 C5.37186822,19.6880588 5.20410853,18.9237529 5.13887597,18.1259294 C5.13650388,18.0970706 5.13281395,18.0688588 5.13044186,18.0398706 C5.07983721,17.3488118 5.04425581,16.6120706 5.12424806,15.9044471 C5.21162016,15.1270706 5.37608527,14.3045294 5.62726357,13.3881647 C6.40768217,10.5337294 7.88786822,8.2412 10.0272326,6.57411765 C12.4047287,4.72275294 15.0845349,3.67917647 17.9915349,3.47185882 C18.1992248,3.45788235 18.4144264,3.45076471 18.6495271,3.45076471 C19.1798217,3.45076471 19.7227674,3.48725882 20.2475271,3.52284706 L20.4167364,3.53397647 C21.3425116,3.59764706 22.3181008,3.81130588 23.3989845,4.18647059 C25.535186,4.92955294 27.2465194,6.11807059 28.4848837,7.71889412 C29.4516434,8.97276471 30.2316667,10.4339529 30.8683101,12.1858 C31.3390388,13.4755176 31.6118295,14.8061294 31.6795659,16.1399765 C31.742031,17.3372941 31.6472791,18.5558353 31.3966279,19.7613059 C31.0860155,21.2596353 30.6284651,22.5234706 29.9984109,23.6250235 C28.2555814,26.6630941 25.6976744,28.7574941 22.3955891,29.8506353 C22.3233721,29.8748353 22.2503643,29.8956706 22.1774884,29.9172824 C22.1022403,30.0156353 22.0265969,30.1138588 21.9506899,30.2127294 L21.6748682,30.5704235 L20.9714109,31.4761765 C20.9248915,31.5359647 20.8615039,31.6181412 20.7890233,31.6915176 C20.6888682,31.7936235 20.5715814,31.8799412 20.4324186,31.9524118 C20.0813488,32.1713765 19.5606744,32.3126941 19.1002248,32.3126941 C18.6275194,32.3126941 18.2254496,32.0124588 18.1444031,31.5995059 C18.0858915,31.3013412 18.2230775,30.9234588 18.6605969,30.7513412 C18.7994961,30.6968588 18.9594806,30.5929412 19.1168295,30.4715529 L19.0153566,30.4749176 L18.9509147,30.4771176 C18.897938,30.4790588 18.8445659,30.4813882 18.7922481,30.4819059 L18.7585116,30.4819059 C18.3619767,30.4819059 17.942907,30.4535647 17.5106589,30.4008941 C17.4369922,30.3918353 17.3639845,30.3838118 17.2895271,30.3733294 C16.4102713,30.2474118 15.6747907,29.9946706 15.0407829,29.6008706 C14.0073411,28.9598941 13.4206434,28.0353765 13.2968992,26.8533294 C13.2319302,26.2368118 13.3062558,25.5686588 13.530814,24.7510353 C13.8324651,23.6783412 14.2048837,22.4138588 14.675876,21.1655529 C14.8060775,20.8175647 14.8747364,20.4404588 14.9292946,20.1129176 C14.9524884,19.9647412 14.9252093,19.8446471 14.8478527,19.756 C14.7678605,19.6637294 14.6427984,19.6168824 14.4774109,19.6168824 L14.4352403,19.6180471 C14.1679845,19.6298235 13.9377597,19.7663529 13.751155,20.0250471 L13.5251473,20.3355059 C13.1482481,20.8516 12.7585659,21.3855529 12.4227829,21.9418941 C11.6824264,23.1665176 11.2599302,24.5052824 11.1674186,25.9215647 C11.116155,26.6865176 11.1620155,27.4648 11.3042093,28.2345412 C11.3939535,28.7303176 11.5503798,29.1833882 11.7601783,29.6006118 C11.8658682,29.8110353 11.9809147,30.0156353 12.1155969,30.2062588 C12.3987984,30.6057529 12.7438062,30.9624118 13.1566822,31.2688588 C14.4551395,32.2395765 16.0154496,32.7640824 17.9260388,32.8736941 C18.1297752,32.8849529 18.3385194,32.8907765 18.5460775,32.8907765 L18.5464729,32.8907765 C19.4258605,32.8907765 20.3202713,32.7919059 21.2807054,32.5886 C24.694938,31.8610471 27.5966667,30.2004353 29.9049767,27.6538706 C32.364969,24.9332471 33.704938,21.5504235 33.887062,17.5998706 C33.919876,16.8961294 33.8765194,16.1802235 33.8344806,15.4878706 L33.8187984,15.2243882 C33.7733333,14.4092235 33.6128217,13.5406118 33.3138062,12.4897882 C32.5928217,9.95474118 31.2776279,7.61381176 29.405124,5.53209412 C26.5052403,2.30676471 22.8010853,0.464976471 18.3953178,0.0575882353 C18.0695504,0.0286 17.7192713,0.0144941176 17.3233953,0.0144941176 C16.9985504,0.0144941176 16.6737054,0.0232941176 16.3492558,0.0320941176 Z" id="path-11"></path>
        <path d="M0.188,0.0518 C0.145142857,0.05656 0.107428571,0.08162 0.0878571429,0.11872 C0.054,0.18354 0.0454285714,0.24388 0.0612857143,0.30772 C0.0894285714,0.43722 0.121285714,0.56658 0.153714286,0.69594 C0.222285714,0.97314 0.293571429,1.25986 0.322142857,1.54196 C0.371428571,2.01152 0.402571429,2.492 0.432285714,2.9561 C0.456714286,3.33186 0.480857143,3.70776 0.514571429,4.08282 L0.530428571,4.2707 C0.576285714,4.81642 0.624142857,5.3809 0.740142857,5.92592 C0.819428571,6.29706 0.977,6.61024 1.20257143,6.86378 C1.22757143,6.8362 1.25414286,6.80876 1.27957143,6.78118 C1.44728571,6.59904 1.61257143,6.41662 1.775,6.23056 C1.83214286,6.16616 1.88528571,6.1012 1.94171429,6.0368 C1.92085714,5.98528 1.903,5.93292 1.88957143,5.87916 C1.82214286,5.62464 1.772,5.3648 1.741,5.10566 C1.69785714,4.76518 1.66042857,4.424 1.62314286,4.08338 C1.56928571,3.59408 1.514,3.08784 1.44157143,2.59196 C1.32157143,1.75532 1.04657143,1.0584 0.600571429,0.46144 C0.527571429,0.364 0.447857143,0.27048 0.368857143,0.17794 L0.3,0.09674 C0.276,0.0679 0.240285714,0.05082 0.203142857,0.05082 C0.198142857,0.05082 0.193,0.0511 0.188,0.0518 Z" id="path-13"></path>
    </defs>
    <g id="Page-1" stroke="none" stroke-width="1" fill="none" fill-rule="evenodd">
        <g id="官网主页-copy" transform="translate(-100.000000, -8.000000)">
            <g id="顶部">
                <g id="logo" transform="translate(100.000000, 8.000000)">
                    <g id="分组" transform="translate(52.000000, 21.000000)" fill="#FFFFFF">
                        <path d="M5.820192,5.17324948 C6.11574024,5.17324948 6.35634259,5.4190433 6.35634259,5.71965155 L6.35634259,9.84400206 C6.35634259,10.1446103 6.17068612,10.3904041 5.94233788,10.3904041 C5.714912,10.3904041 5.52727906,10.1446103 5.52727906,9.84400206 L5.52727906,9.4613732 C5.52727906,9.16076495 5.51686965,8.91510515 5.50184847,8.91510515 C5.48761788,8.91510515 5.33977788,9.11747629 5.17309553,9.36595052 C5.17309553,9.36595052 4.40477553,10.5127649 3.19583435,10.5482804 C0.950432,10.5829918 -0.103026824,8.82745567 0.0362484706,5.27832165 C0.000276705882,1.80062062 1.08878494,0.0611670103 3.30006024,0.0611670103 C5.23370729,0.16717732 6.08069082,2.70539381 6.08069082,2.70539381 C6.17542965,2.99072371 6.01151435,3.22391959 5.71688847,3.22391959 L5.70265788,3.22391959 C5.40697788,3.22391959 5.09337788,2.9887134 5.00628141,2.70164124 C5.00628141,2.70164124 4.52599906,1.13373402 3.35223906,1.06243505 C1.76236612,1.02772371 1.03660612,2.43279588 1.17601318,5.27832165 C1.03660612,8.19528041 1.65814024,9.63479588 3.040352,9.60008454 C4.59517553,9.73986804 5.16637553,6.7632701 5.16637553,6.7632701 C5.22237553,6.46842474 5.02710024,6.22745567 4.73247435,6.22745567 L3.57847906,6.22745567 C3.28293082,6.22745567 3.040352,5.99050722 3.040352,5.7004866 C3.040352,5.41033196 3.28293082,5.17324948 3.57847906,5.17324948 L5.820192,5.17324948 Z" id="Fill-1"></path>
                        <path d="M8.97315012,2.90720206 C9.24419012,2.90720206 9.46581835,3.15299588 9.46581835,3.45360412 L9.46581835,3.57207835 C9.46581835,3.87282062 9.47715012,4.11941856 9.49151247,4.11941856 C9.50561129,4.11941856 9.66570541,3.92482062 9.84767247,3.68773814 L11.1143266,2.90237732 C11.4042089,2.84756289 11.6411219,3.03921237 11.6411219,3.32842887 C11.6411219,3.61844948 11.4061854,3.91128454 11.1190701,3.98070722 L9.70075482,5.34423299 C9.59942776,5.62661443 9.51707482,6.10359381 9.51707482,6.40420206 L9.51707482,9.84343918 C9.51707482,10.1440474 9.28385129,10.3907794 8.99871247,10.3907794 C8.714496,10.3907794 8.48061365,10.1440474 8.48061365,9.84343918 L8.48061365,3.45360412 C8.48061365,3.15299588 8.70316424,2.90720206 8.97315012,2.90720206" id="Fill-3"></path>
                        <path d="M15.4051652,5.85828247 C15.7007134,5.85828247 15.9186522,5.79462268 15.8903228,5.71756082 L15.8903228,5.64733402 C15.8903228,4.2769732 15.5093911,3.59185979 14.7505581,3.59185979 C13.9556216,3.59185979 13.5777205,5.22034433 13.5777205,5.22034433 C13.5103887,5.51344742 13.4545205,5.7765299 13.4545205,5.80521031 C13.4545205,5.83415876 13.6969675,5.85828247 13.9926475,5.85828247 L15.4051652,5.85828247 Z M15.8750381,8.44662268 C15.9403934,8.15271546 16.2151228,7.9137567 16.4861628,7.9137567 C16.7572028,7.9137567 16.9059652,8.14789072 16.8168922,8.43415876 C16.8168922,8.43415876 16.201024,10.424901 14.7505581,10.4953959 C13.1266899,10.5309113 12.3318852,9.24940619 12.3668028,6.64846804 C12.4009299,4.08438557 13.1958664,2.76709691 14.7505581,2.69660206 C16.201024,2.69660206 16.9428593,3.90895258 16.9779087,6.33244742 L16.9779087,6.50881856 C17.0062381,6.6436433 16.7884311,6.75447835 16.4928828,6.75447835 L13.9926475,6.75447835 C13.6969675,6.75447835 13.4545205,6.8133134 13.4545205,6.88555052 C13.4545205,6.95885979 13.4915464,7.47148866 13.5359511,7.76821031 C13.5359511,7.76821031 13.8343981,9.73978763 14.8016828,9.70507629 C15.5955652,9.70507629 15.8750381,8.44662268 15.8750381,8.44662268 Z" id="Fill-5"></path>
                        <path d="M21.2598268,5.85828247 C21.5555068,5.85828247 21.7733139,5.79462268 21.7449845,5.71756082 L21.7449845,5.64733402 C21.7449845,4.2769732 21.3640527,3.59185979 20.6052198,3.59185979 C19.8104151,3.59185979 19.4323821,5.22034433 19.4323821,5.22034433 C19.3650504,5.51344742 19.3091821,5.7765299 19.3091821,5.80521031 C19.3091821,5.83415876 19.5517609,5.85828247 19.8473092,5.85828247 L21.2598268,5.85828247 Z M21.7296998,8.44662268 C21.7950551,8.15271546 22.0699162,7.9137567 22.3408245,7.9137567 C22.6118645,7.9137567 22.7606268,8.14789072 22.6715539,8.43415876 C22.6715539,8.43415876 22.0556856,10.424901 20.6052198,10.4953959 C18.9813515,10.5309113 18.1865468,9.24940619 18.2214645,6.64846804 C18.2555915,4.08438557 19.050528,2.76709691 20.6052198,2.69660206 C22.0556856,2.69660206 22.7975209,3.90895258 22.8325704,6.33244742 L22.8325704,6.50881856 C22.8608998,6.6436433 22.6430927,6.75447835 22.3475445,6.75447835 L19.8473092,6.75447835 C19.5517609,6.75447835 19.3091821,6.8133134 19.3091821,6.88555052 C19.3091821,6.95885979 19.346208,7.47148866 19.3906127,7.76821031 C19.3906127,7.76821031 19.6890598,9.73978763 20.6563445,9.70507629 C21.4502268,9.70507629 21.7296998,8.44662268 21.7296998,8.44662268 Z" id="Fill-7"></path>
                        <path d="M27.9305336,7.96765979 C28.005376,7.67670103 28.0659878,7.23724742 28.0659878,6.99158763 C28.0659878,6.74485567 28.030016,6.30071134 27.987456,6.00291753 C27.987456,6.00291753 27.6340631,3.5918866 26.6666466,3.5918866 C25.6644442,3.55717526 25.1812631,4.5584433 25.2161807,6.59649485 C25.1119548,8.7743299 25.595136,9.8111134 26.6666466,9.70510309 C27.4957101,9.67039175 27.9305336,7.96765979 27.9305336,7.96765979 M27.6587031,3.28926804 C27.8823078,3.48493814 28.0659878,3.39916495 28.0659878,3.0985567 L28.0659878,0.818597938 C28.0659878,0.51785567 28.3075125,0.272195876 28.6031925,0.272195876 L28.6174231,0.272195876 C28.9120489,0.272195876 29.1535736,0.51785567 29.1535736,0.818597938 L29.1535736,9.84381443 C29.1535736,10.1445567 28.9206136,10.3902165 28.6354748,10.3902165 C28.350336,10.3902165 28.1172442,10.1647938 28.1172442,9.89018557 C28.1172442,9.61356701 27.9551736,9.57121649 27.7562089,9.79382474 C27.7562089,9.79382474 27.0977807,10.5309381 26.3037666,10.4962268 C24.8874278,10.4962268 24.1616678,9.31872165 24.1276725,6.96464948 L24.1276725,6.64849485 C24.1276725,4.11898969 24.8704301,2.80170103 26.3559454,2.69662887 C26.9774795,2.69662887 27.6587031,3.28926804 27.6587031,3.28926804" id="Fill-9"></path>
                        <path d="M32.5130993,10.5569784 C32.5461722,10.4942567 32.4988687,10.2090608 32.4097958,9.9229268 L30.3547934,3.42708144 C30.2640075,3.14094742 30.4325346,2.90775155 30.7271605,2.90775155 L30.7413911,2.90775155 C31.0360169,2.90775155 31.3392075,3.1447 31.4131275,3.43579278 L32.8011369,8.86000928 C32.8759793,9.15110206 32.9479228,9.38898866 32.9621534,9.38898866 C32.976384,9.38898866 33.0501722,9.15204021 33.1269911,8.86094742 L34.5584828,3.43472062 C34.6351699,3.1447 34.9403369,2.90775155 35.2349628,2.90775155 L35.2491934,2.90775155 C35.5438193,2.90775155 35.7143228,3.14188557 35.6272264,3.42895773 L33.7682899,9.55195773 C33.6801393,9.83916392 33.5751228,10.1570608 33.5315087,10.2582464 C33.4888169,10.3592979 33.2814193,10.8557103 33.1952452,11.1013701 C33.1098616,11.3481021 32.7659558,12.0399165 32.5565816,12.2519371 C32.5565816,12.2519371 31.9512546,12.8666897 31.2264169,12.8666897 L30.9498428,12.8666897 C30.6751134,12.7801124 30.4486099,12.4958546 30.4486099,12.2346485 C30.4486099,11.9734423 30.6818334,11.8270918 30.9659181,11.9079062 C30.9659181,11.9079062 31.0009675,11.9184938 31.2776734,11.9184938 C31.7608546,11.8829784 32.134144,11.2757309 32.134144,11.2757309 C32.2904169,11.0204216 32.4798946,10.619566 32.5130993,10.5569784" id="Fill-11"></path>
                        <path d="M45.8248,2.8093134 C45.9176941,3.09450928 45.75088,3.32877732 45.4553318,3.32877732 L45.4421553,3.32877732 C45.1464753,3.32877732 44.83472,3.09263299 44.7485459,2.80556082 C44.7485459,2.80556082 44.2303153,1.06329278 43.0905506,1.06329278 C41.7433882,1.06329278 41.1048565,2.43244742 41.1740329,5.17316907 C41.0346259,8.12470515 41.6742118,9.60000412 43.0905506,9.60000412 C44.0920941,9.63471546 44.6329882,7.95798351 44.6329882,7.95798351 C44.7257506,7.67278763 44.8007247,7.36051959 44.8007247,7.2630866 L44.8007247,7.12343711 L44.83472,6.98284948 C44.8735906,6.85646804 45.1464753,6.75447835 45.4421553,6.75447835 L45.4553318,6.75447835 C45.75088,6.75447835 45.97264,6.82859175 45.9489224,6.9212 C45.9242824,7.01260206 45.9290259,7.39322062 45.9149271,7.46559175 C45.9005647,7.53782887 45.8446965,7.94444742 45.7897506,8.2394268 L45.5661459,9.00937526 C45.4297694,9.27621031 45.1342212,9.65294227 44.90864,9.84673608 C44.90864,9.84673608 44.0920941,10.5482 43.1947765,10.5482 C40.9143247,10.6185608 39.8608659,8.8445299 40.0342682,5.22610722 C39.9641694,1.78311753 41.0006306,0.0610865979 43.1427294,0.0610865979 C44.9730729,0.167096907 45.8248,2.8093134 45.8248,2.8093134" id="Fill-13"></path>
                        <path d="M50.2879473,8.69797835 C50.3760979,8.41171031 50.4480414,7.93084433 50.4480414,7.63023608 L50.4480414,6.87864845 C50.4480414,6.57804021 50.2377449,6.45366907 49.9810673,6.6020299 C49.9810673,6.6020299 49.9298108,6.63097835 49.5159379,6.80734948 L49.1691332,6.98264845 C48.9616038,7.08865876 48.6195426,7.34973093 48.4112226,7.56175155 C48.4112226,7.56175155 48.1686438,7.80848351 48.1686438,8.44065876 C48.1334626,9.31849381 48.4793449,9.74052474 49.2040508,9.70500928 C49.9980649,9.63451443 50.2879473,8.69797835 50.2879473,8.69797835 M51.9941685,9.61722577 C52.1127567,9.60757629 52.2093402,9.77818454 52.2093402,9.9950299 C52.2093402,10.2128134 52.1666485,10.3901227 52.1144696,10.3901227 C52.0624226,10.3901227 51.7128508,10.3495144 51.4211238,10.2993907 L50.8393826,9.90242165 C50.7389779,9.62017423 50.6441073,9.38885464 50.6290861,9.38885464 C50.6157779,9.38885464 50.4423755,9.5719268 50.2443332,9.7954732 C50.2443332,9.7954732 49.687232,10.424834 48.9975755,10.495999 C47.6502814,10.5308443 47.0108273,9.82830825 47.0800038,8.38772062 C47.0800038,7.50988557 47.7110249,6.9537 47.7110249,6.9537 C47.9346296,6.75722577 48.3411238,6.50473093 48.6149308,6.39295773 C48.6149308,6.39295773 48.8933496,6.28024639 49.411712,6.06916392 L49.9980649,5.82350412 C50.1893873,5.7271433 50.437632,5.49676186 50.5513449,5.31368969 L50.5513449,4.96295773 L50.5513449,4.89165876 C50.5513449,4.81446289 50.4803238,4.51680309 50.3930955,4.22959691 C50.3930955,4.22959691 50.1893873,3.55788557 49.3604555,3.59259691 C48.5315238,3.55788557 48.4074014,4.36938041 48.4074014,4.36938041 C48.3619426,4.66610206 48.1146202,4.90988557 47.8579426,4.90988557 C47.6010014,4.90988557 47.4618579,4.67387526 47.5460555,4.38666907 C47.5460555,4.38666907 48.0472885,2.69653505 49.5669308,2.69653505 C50.9142249,2.69653505 51.3736885,4.17759691 51.3736885,4.17759691 C51.4636838,4.46373093 51.5357591,4.94459691 51.5357591,5.24520515 L51.5357591,8.47335979 C51.5357591,8.77396804 51.544192,9.14212268 51.5536791,9.29249381 C51.5631661,9.4419268 51.8749214,9.62687526 51.9941685,9.61722577" id="Fill-15"></path>
                        <path d="M54.1784847,0.852009278 C54.4636235,0.852009278 54.6967153,1.09780309 54.6967153,1.39841134 L54.6967153,2.3601433 C54.6967153,2.66075155 54.9391624,2.90748351 55.23392,2.90748351 L55.4035012,2.90748351 C55.6981271,2.90748351 55.9396518,3.10878247 55.9396518,3.35551443 C55.9396518,3.60130825 55.6981271,3.80354536 55.4035012,3.80354536 L55.23392,3.80354536 C54.9391624,3.80354536 54.6967153,4.04840103 54.6967153,4.34900928 L54.6967153,8.36828763 C54.6967153,8.66889588 54.6928941,8.92996804 54.6881506,8.94940103 C54.6834071,8.96950412 54.6797176,9.13434948 54.7222776,9.27507113 C54.7658918,9.41485464 55.3666071,9.49473093 55.5512094,9.49473093 C55.73792,9.49473093 55.8886588,9.69616392 55.8886588,9.94289588 C55.8886588,10.1885557 55.6470024,10.3899887 55.3513224,10.3899887 L55.2859671,10.3899887 C54.9904188,10.3899887 54.5205459,10.3081021 54.2418635,10.2078546 L53.8032188,9.70487526 C53.7246871,9.41485464 53.6602541,8.93197835 53.6602541,8.6313701 L53.6602541,4.34900928 C53.6602541,4.04840103 53.4271624,3.80354536 53.1420235,3.80354536 C52.8568847,3.80354536 52.6237929,3.60130825 52.6237929,3.35551443 C52.6237929,3.10878247 52.8568847,2.90748351 53.1420235,2.90748351 C53.4271624,2.90748351 53.6602541,2.66075155 53.6602541,2.3601433 L53.6602541,1.39841134 C53.6602541,1.09780309 53.8933459,0.852009278 54.1784847,0.852009278" id="Fill-17"></path>
                    </g>
                    <g id="分组" transform="translate(10.000000, 9.000000)">
                        <mask id="mask-2" fill="white">
                            <use xlink:href="#path-1"></use>
                        </mask>
                        <g id="Clip-20"></g>
                        <path d="M16.832448,0.0758974359 C16.803208,0.0797435897 16.772744,0.0843589744 16.741328,0.0920512821 C16.108928,0.252307692 15.51488,0.502564103 15.011136,0.892179487 C14.400632,1.36487179 13.820864,1.87217949 13.247352,2.38474359 C12.93292,2.66564103 12.604752,2.73371795 12.212392,2.58012821 C11.35804,2.24884615 10.474584,2.02615385 9.553592,1.91948718 C8.75636,1.82833333 7.963752,1.83935897 7.173592,1.94166667 C6.353512,2.04705128 5.560768,2.25846154 4.78788,2.53153846 C4.589864,2.60294872 4.3656,2.6325641 4.15344,2.62846154 C3.813576,2.6225641 3.584824,2.39794872 3.365456,2.18461538 C2.74312,1.58807692 2.104736,1.00512821 1.335248,0.573846154 C0.945608,0.355897436 0.535296,0.177820513 0.076024,0.0874358974 C0.072488,0.122820513 0.07004,0.145512821 0.071128,0.167820513 C0.14484,0.787307692 0.220592,1.40461538 0.290768,2.02294872 C0.360944,2.65320513 0.429624,3.28397436 0.491368,3.91564103 C0.569704,4.72269231 0.643552,5.52897436 0.715632,6.33589744 C0.716584,6.34576923 0.717944,6.35512821 0.71876,6.36474359 C0.784312,7.08846154 0.945336,7.78653846 1.295808,8.4375641 C1.66464,9.12525641 2.21816,9.63371795 2.964664,9.95935897 C2.461872,9.49179487 2.051968,8.965 1.793024,8.3375641 C1.497088,7.62358974 1.428816,6.89474359 1.44704,6.16 C1.457648,5.72397436 1.498584,5.28551282 1.540744,4.84730769 C1.587256,4.36474359 1.635128,3.88487179 1.679736,3.40282051 C1.700544,3.18282051 1.712512,2.96153846 1.729648,2.71282051 C1.843072,2.80846154 1.934056,2.88448718 2.021504,2.96038462 C2.613104,3.47423077 3.204296,3.98884615 3.791272,4.50423077 C3.88076,4.58358974 3.94672,4.58782051 4.058512,4.535 C4.508128,4.32025641 4.957472,4.095 5.424088,3.9175641 C6.892344,3.35782051 8.406432,3.21692308 9.96336,3.52935897 C11.031912,3.7424359 12.01764,4.14679487 12.95128,4.67038462 C13.062936,4.73397436 13.13012,4.74628205 13.224504,4.64166667 C13.663376,4.14217949 14.121152,3.65705128 14.552952,3.15282051 C14.7322,2.94397436 14.96272,2.83935897 15.228872,2.7225641 C15.228872,2.80846154 15.227376,2.8725641 15.228872,2.93615385 C15.24628,3.65705128 15.264776,4.37782051 15.27892,5.09935897 C15.29184,5.75871795 15.328016,6.41987179 15.304488,7.07807692 C15.269672,8.02064103 14.876768,8.83282051 14.189152,9.51794872 C14.128496,9.57871795 14.071376,9.64230769 14.014392,9.70653846 C13.946936,9.7824359 13.88016,9.85961538 13.811888,9.93525641 C13.911304,9.89307692 14.007728,9.84794872 14.100208,9.79961538 C14.741312,9.46705128 15.227376,8.98833333 15.571864,8.36871795 C15.984488,7.62128205 16.079688,6.80692308 16.148368,5.98666667 C16.22344,5.10051282 16.286544,4.21269231 16.341896,3.32576923 C16.39344,2.50923077 16.527536,1.70717949 16.720384,0.913205128 C16.786752,0.640769231 16.837344,0.363589744 16.89392,0.0906410256 C16.861688,0.0817948718 16.848904,0.0756410256 16.836256,0.0756410256 C16.835168,0.0756410256 16.833672,0.0756410256 16.832448,0.0758974359" id="Fill-19" fill="url(#radialGradient-3)" mask="url(#mask-2)"></path>
                    </g>
                    <g id="分组" transform="translate(10.000000, 9.000000)">
                        <mask id="mask-5" fill="white">
                            <use xlink:href="#path-4"></use>
                        </mask>
                        <g id="Clip-22"></g>
                        <path d="M16.822792,0.0115189873 C16.790832,0.0156962025 16.757512,0.0206329114 16.723648,0.0294936709 C16.017536,0.206075949 15.443072,0.468101266 14.967888,0.831392405 C14.384992,1.27708861 13.839496,1.74417722 13.200024,2.30835443 C13.00568,2.47949367 12.809704,2.56278481 12.601488,2.56278481 C12.486976,2.56278481 12.36784,2.53835443 12.238232,2.48822785 C11.372728,2.15670886 10.471864,1.9356962 9.561888,1.83177215 C9.19972,1.79075949 8.830208,1.77025316 8.463552,1.77025316 C8.036376,1.77025316 7.598864,1.79835443 7.164344,1.85392405 C6.401792,1.95075949 5.616936,2.14189873 4.763128,2.43962025 C4.594352,2.5 4.396064,2.53164557 4.189616,2.53164557 L4.154936,2.53151899 C3.844856,2.52607595 3.628208,2.31759494 3.414144,2.1121519 C2.810168,1.54037975 2.154784,0.946075949 1.3702,0.511772152 C0.914872,0.26 0.507688,0.105189873 0.08976,0.0240506329 C0.087856,0.0234177215 0.08568,0.0232911392 0.083232,0.0232911392 C0.066096,0.0232911392 0.048144,0.034556962 0.034408,0.0440506329 C0.018632,0.0548101266 0.007752,0.0802531646 0.005848,0.0984810127 C0.002856,0.127721519 0.001496,0.148987342 0.002856,0.173037975 L0.06732,0.704177215 C0.120224,1.13746835 0.17272,1.57050633 0.222496,2.00379747 C0.2924,2.62582278 0.361352,3.24835443 0.422688,3.87189873 C0.501568,4.66886076 0.575416,5.46443038 0.647088,6.26113924 L0.650216,6.28962025 C0.724608,7.09746835 0.915688,7.7743038 1.23488,8.35962025 C1.610648,9.05189873 2.1828,9.56721519 2.935832,9.89126582 C2.94508,9.89544304 2.954872,9.89759494 2.964664,9.89759494 C2.986696,9.89759494 3.00764,9.88746835 3.021104,9.86974684 C3.039872,9.8443038 3.036472,9.80987342 3.012808,9.78810127 C2.471392,9.29101266 2.093448,8.77443038 1.856808,8.20873418 C1.602624,7.60405063 1.494368,6.92848101 1.515448,6.08367089 C1.5266,5.64189873 1.570256,5.19025316 1.609016,4.79177215 L1.654984,4.32721519 C1.686672,4.00683544 1.717952,3.6864557 1.748144,3.3656962 C1.762968,3.21037975 1.77344,3.05392405 1.78432,2.8878481 L1.789352,2.81379747 C1.856672,2.86962025 1.91624,2.91949367 1.974856,2.97 C2.567,3.47708861 3.15792,3.98531646 3.744352,4.4935443 C3.80936,4.55050633 3.867704,4.57620253 3.933392,4.57620253 C3.980176,4.57620253 4.028048,4.56316456 4.08952,4.53455696 L4.303448,4.43291139 C4.675408,4.25632911 5.05988,4.0735443 5.449656,3.92696203 C6.400568,3.56924051 7.375824,3.38734177 8.34768,3.38734177 C8.87604,3.38734177 9.414736,3.44139241 9.949352,3.54721519 C10.93848,3.74253165 11.909248,4.10848101 12.91592,4.66594937 C12.969096,4.69594937 13.026624,4.72341772 13.088232,4.72341772 C13.175952,4.72341772 13.237832,4.66683544 13.277272,4.62367089 C13.464272,4.41367089 13.654808,4.20594937 13.845072,3.99835443 C14.097216,3.72329114 14.3582,3.43898734 14.6064,3.15291139 C14.757224,2.97936709 14.951024,2.88088608 15.15992,2.78873418 C15.159648,2.82860759 15.159376,2.86455696 15.160192,2.90063291 L15.1708,3.32696203 C15.18508,3.89632911 15.199088,4.46607595 15.21024,5.03594937 C15.213776,5.21658228 15.219216,5.39696203 15.224656,5.5778481 C15.238528,6.04037975 15.252944,6.51848101 15.236216,6.98607595 C15.202896,7.87341772 14.833792,8.67 14.138832,9.35379747 C14.077904,9.41468354 14.019424,9.47835443 13.961624,9.54240506 C13.961624,9.54240506 13.802368,9.72126582 13.759664,9.76822785 C13.738992,9.79063291 13.737904,9.82367089 13.757216,9.84746835 C13.770408,9.86417722 13.790944,9.87316456 13.811888,9.87316456 C13.821272,9.87316456 13.830792,9.87164557 13.84004,9.86772152 C13.941088,9.82544304 14.039008,9.78 14.133256,9.73151899 C14.77572,9.40227848 15.279872,8.91810127 15.632384,8.29189873 C16.048952,7.54759494 16.146328,6.74329114 16.216368,5.91582278 C16.28736,5.09177215 16.350464,4.23202532 16.41044,3.28734177 C16.4594,2.52417722 16.582344,1.74848101 16.787432,0.915822785 C16.833672,0.727594937 16.872568,0.53721519 16.911056,0.347721519 L16.961512,0.101772152 C16.968312,0.0692405063 16.947368,0.0374683544 16.91296,0.0283544304 L16.88644,0.0203797468 C16.871344,0.0159493671 16.8572,0.0115189873 16.829456,0.0115189873 L16.822792,0.0115189873 Z" id="Fill-21" fill="url(#radialGradient-6)" mask="url(#mask-5)"></path>
                    </g>
                    <path d="M26.9377445,9.00025942 C26.9081971,9.00415078 26.877413,9.00869069 26.8456668,9.01660311 C26.2066199,9.17874283 25.6063282,9.43194023 25.0972896,9.82613433 C24.4805063,10.3043817 23.8945072,10.8177809 23.3149673,11.3362389 C22.9972305,11.6204374 22.6656133,11.6893143 22.2691294,11.5339196 C21.4057977,11.1987444 20.5130561,10.973435 19.5823841,10.8655148 C18.7767727,10.7732898 17.9759715,10.7845747 17.1773691,10.887955 C16.3486696,10.9947078 15.5475935,11.2084728 14.766582,11.4847589 C14.5664848,11.5570083 14.3400011,11.5869717 14.1256112,11.582821 C13.7820376,11.5768542 13.5508813,11.3495992 13.3292077,11.1337588 C12.7003306,10.5303396 12.0552369,9.94054012 11.2776612,9.50418969 C10.8839258,9.28367966 10.4691638,9.10351 10.0052021,9.01193348 C10.0017663,9.04773394 9.99915519,9.07082263 10.0002546,9.09339248 C10.0748788,9.7201598 10.1512896,10.3445923 10.2222031,10.9703219 C10.2931167,11.6079851 10.3625186,12.2459076 10.425049,12.8851272 C10.5042083,13.7017926 10.5786951,14.5174203 10.6515327,15.3339559 C10.6524947,15.343814 10.6540064,15.3534127 10.6546936,15.3630114 C10.7209345,16.0952344 10.8837884,16.8016447 11.2378066,17.4603212 C11.6105152,18.1559654 12.169853,18.6705321 12.9242031,19 C12.4161265,18.5268114 12.0019142,17.9938257 11.7402486,17.3590163 C11.4412022,16.6366514 11.3722126,15.8993696 11.3906281,15.1558617 C11.4013476,14.7147119 11.4428513,14.2710976 11.4854544,13.8277428 C11.5323179,13.3395076 11.580693,12.8539964 11.6259073,12.3662801 C11.646934,12.1436947 11.6588904,11.9198122 11.6762065,11.6681713 C11.7908226,11.7649363 11.8827629,11.8418554 11.97113,11.9186448 C12.5689481,12.4385296 13.1663538,12.9591927 13.7594992,13.480634 C13.8499278,13.5609256 13.916581,13.5652061 14.029548,13.5117649 C14.4838897,13.2944976 14.9379565,13.0667237 15.4094769,12.8872026 C16.893165,12.3207513 18.4231668,12.1783278 19.9964589,12.4943057 C21.0762419,12.7100163 22.0724679,13.1189976 23.0157835,13.6487405 C23.128613,13.7130775 23.1963657,13.7256596 23.2920166,13.6196851 C23.7353639,13.114328 24.1979514,12.6236283 24.6342898,12.1133422 C24.8154218,11.9020417 25.0485021,11.7961969 25.3173141,11.6781591 C25.3173141,11.7649363 25.3158024,11.8297922 25.3173141,11.894259 C25.3349051,12.6236283 25.3537329,13.3528679 25.3678881,14.0828858 C25.3810813,14.7498638 25.4175001,15.4187875 25.3938623,16.0847277 C25.3586803,17.0384985 24.9615093,17.8600929 24.2666661,18.5532726 C24.2053726,18.614756 24.1476522,18.6790931 24.0900693,18.7440787 C24.0219043,18.8209977 23.9544264,18.8988248 23.8854369,18.9754845 C23.9858978,18.9328093 24.0831978,18.8871508 24.1767873,18.8382494 C24.8246296,18.5017771 25.3158024,18.0174333 25.6637737,17.3905362 C26.0810094,16.6343165 26.1770726,15.810517 26.2464744,14.9804913 C26.3223355,14.0839235 26.3861027,13.1856694 26.442174,12.2884531 C26.4941223,11.462189 26.6296277,10.6508418 26.82464,9.84740706 C26.8915682,9.57176953 26.9426919,9.29133266 27,9.01517628 C26.9672918,9.00622617 26.9543734,9 26.9415925,9 C26.9404931,9 26.9389813,9 26.9377445,9.00025942" id="Fill-23" fill="#FFFFFF"></path>
                    <g id="分组" transform="translate(10.000000, 9.000000)">
                        <mask id="mask-8" fill="white">
                            <use xlink:href="#path-7"></use>
                        </mask>
                        <g id="Clip-26"></g>
                        <polygon id="Fill-25" fill="#FFFFFF" mask="url(#mask-8)" points="3.2862768 16.1958974 -4.0529632 1.96512821 13.6777648 -6.16089744 21.0170048 8.06987179"></polygon>
                    </g>
                    <path d="M28.6748273,18.0133857 C28.566022,18.1010684 28.4585244,18.1894879 28.3528577,18.2830652 C27.9161979,18.6631463 27.5220402,19.0625077 27.1610994,19.4379221 L26.9399579,19.6691637 C26.7283629,19.8908265 26.5179449,20.1115068 26.3025575,20.3309591 C26.0440141,20.5943755 25.9578329,20.843915 26.0232207,21.1399975 C26.0737001,21.3642392 26.0161588,21.5678497 25.8414426,21.781653 C25.6285399,22.0480167 25.4038674,22.3110647 25.2109733,22.5344468 L25.1450624,22.6115682 C24.9354291,22.8505465 24.7235726,23.0881739 24.5053081,23.3245733 C24.3550469,23.4898686 24.2020394,23.651357 24.0473318,23.8118629 C23.9391804,23.9253346 23.8307674,24.0379467 23.7186927,24.1503132 C23.2526083,24.6166032 22.7846932,25.0795776 22.3166472,25.5426747 C22.0103707,25.8456343 21.7043557,26.1483483 21.3989946,26.4520447 C21.3944175,26.4546236 21.390625,26.4580621 21.3869633,26.4618691 C21.3806861,26.4685006 20.7503476,27.1310328 20.2465998,27.3203979 C20.0653448,27.3885546 19.9753712,27.5178681 20.0058419,27.6663392 C20.039582,27.8302837 20.23483,28 20.5031816,28 C20.845683,28 21.2493873,27.8943878 21.5026997,27.7397765 C21.5972505,27.6937247 21.6723157,27.6416554 21.7395344,27.5765688 C21.7873983,27.5302714 21.8305542,27.4772197 21.8720101,27.4260101 L22.4914942,26.6633919 L22.6994275,26.405256 C22.7921474,26.2905563 22.8848673,26.1757338 22.9761487,26.061034 C23.051737,25.9661059 23.1294177,25.8714233 23.2064446,25.777232 L23.3584058,25.5910598 C23.7642026,25.091858 24.1464597,24.6379713 24.5270168,24.2038561 C24.659231,24.0536657 24.7931452,23.9048262 24.9275825,23.7554955 L25.0060479,23.6685497 C25.1789333,23.4788162 25.3527341,23.2936264 25.5273196,23.1097875 L25.6345556,22.9986491 C25.8175107,22.8090384 26.0033428,22.6226207 26.1912674,22.4358345 C26.478843,22.1570674 26.7295399,21.9438782 27.1121894,21.9438782 C27.1522067,21.9438782 27.1941857,21.9463343 27.2366877,21.9511237 C27.2585273,21.9543166 27.2801053,21.9555446 27.3011601,21.9555446 C27.5182477,21.9555446 27.6702089,21.8112489 27.7665906,21.7018298 C28.0316728,21.3906423 28.3013321,21.0815424 28.5711222,20.772197 C28.8806681,20.4170453 29.1906064,20.0621393 29.4946597,19.7025666 L29.5783561,19.606042 C29.7312328,19.4307995 29.8897328,19.2494167 29.9959227,18.9941054 C30.0048154,18.9728601 29.9987997,18.9492816 29.9814066,18.9338082 C29.9702906,18.9241066 29.9559053,18.9190716 29.94152,18.9190716 C29.9328888,18.9190716 29.9245192,18.9207909 29.9166726,18.9241066 C29.7037699,19.0175611 29.5850256,19.1469974 29.4702046,19.2721356 L29.4126634,19.334152 C29.2448782,19.5075525 29.0787932,19.6824266 28.9124466,19.857792 C28.6787506,20.1036473 28.4450545,20.3497483 28.2044274,20.5948668 C28.1254389,20.6751811 28.0357268,20.7661795 27.9432684,20.7661795 C27.9008971,20.7661795 27.8583951,20.7475132 27.8124928,20.7080928 C27.777445,20.6791109 27.7608365,20.6518482 27.7514206,20.6314626 C27.7452742,20.6197961 27.7423971,20.6078841 27.7423971,20.5925335 C27.7417432,20.5776741 27.7435741,20.5652708 27.7505052,20.5454992 C27.753513,20.5301486 27.7586133,20.5170085 27.766329,20.5049736 L27.7159804,20.4770969 L27.7763988,20.4849564 C27.7869916,20.4731671 27.7964074,20.4597814 27.8060848,20.4456588 L27.8185085,20.4279749 C27.8185085,20.4279749 27.8904351,20.3481518 27.9069128,20.3287486 C28.0846369,20.1221908 28.266415,19.920054 28.4479316,19.7185313 C28.5453594,19.6103402 28.6426565,19.5019035 28.739692,19.3924843 C28.8304503,19.2894511 28.9216009,19.1843301 29.011313,19.0784723 C29.0322371,19.0534201 29.0543382,19.0288591 29.07657,19.0036841 C29.2026377,18.8630726 29.3450524,18.7031806 29.3804926,18.4362029 C29.3835004,18.4127471 29.3701613,18.3900282 29.3479294,18.3799582 C29.3396906,18.3761513 29.3310594,18.3743092 29.3222974,18.3743092 C29.3071274,18.3743092 29.2920882,18.3802039 29.2807108,18.3908879 L29.1080869,18.5532359 C29.0614,18.5943755 29.0238674,18.632445 28.9715572,18.6856196 C28.7211219,18.9471939 28.4726482,19.2092595 28.2249591,19.4713251 C28.0073485,19.7014614 27.7897379,19.9307381 27.5713426,20.1596463 C27.4948388,20.2403291 27.4247431,20.3070122 27.3483701,20.3070122 C27.3133223,20.3070122 27.2765743,20.2928896 27.2364262,20.2641533 C27.1115355,20.1736461 27.1167665,20.0768758 27.2553887,19.9080192 C27.3866874,19.7481272 27.5289713,19.590937 27.6665472,19.4389046 C27.7291888,19.3701339 27.7910456,19.3012403 27.8529025,19.2318556 C27.9139747,19.1629621 27.9757008,19.0948054 28.0374269,19.0268943 C28.1400858,18.913791 28.2424831,18.8005649 28.341611,18.6834091 C28.5291432,18.4612551 28.6637114,18.2695567 28.7650625,18.0797004 C28.7776169,18.0564902 28.7708166,18.0278767 28.7489771,18.0119121 C28.7381227,18.0039298 28.725699,18 28.712883,18 C28.6992823,18 28.6855509,18.004421 28.6748273,18.0133857" id="Fill-27" fill="#FFFFFF"></path>
                    <g id="分组" transform="translate(21.000000, 18.000000)">
                        <mask id="mask-10" fill="white">
                            <use xlink:href="#path-9"></use>
                        </mask>
                        <g id="Clip-30"></g>
                        <polygon id="Fill-29" fill="#FFFFFF" mask="url(#mask-10)" points="15.0527308 4.25108434 5.71580769 14.4621687 -5.10060256 5.7273494 4.23632051 -4.48361446"></polygon>
                    </g>
                    <path d="M16.3723866,0.017666231 C16.2149967,0.0219528901 16.0573421,0.0258498528 15.8996875,0.029487018 C15.0350359,0.0492316292 14.1304081,0.181858261 13.0525058,0.446851726 C9.13483468,1.41693565 5.91648294,3.52753066 3.48680144,6.71966274 C1.52531844,9.30101085 0.375935465,12.2590654 0.0702893422,15.5125096 C0.060361469,15.6199359 0.0467271898,15.7272323 0.0332252823,15.8349184 C0.0219736927,15.925198 0.0104573598,16.0156075 0,16.1203059 L0,18.1624443 L0.00330929106,18.1760837 C0.00688332541,18.19362 0.0120458195,18.2114161 0.0170759419,18.2292123 C0.023694524,18.2546724 0.0304454778,18.2785738 0.0321663091,18.3033845 C0.0582435227,18.51434 0.08220279,18.7242564 0.106029686,18.9344326 C0.152095017,19.3441333 0.19988118,19.767863 0.265405143,20.1854876 C0.482627009,21.5438389 0.908863698,22.9299885 1.53193702,24.3056163 C2.59382234,26.6431445 4.14918914,28.6854128 6.15435478,30.3751358 C7.21147472,31.2649423 8.22875079,31.9178134 9.26376466,32.3703807 C9.42459621,32.4414353 9.5903255,32.5058651 9.77035094,32.5762703 L10.1968524,32.7444891 L10.1629652,32.5185952 C10.1431095,32.3871377 10.1266954,32.2629544 10.1112079,32.1431878 C10.0855278,31.9476902 10.0613038,31.7628442 10.0264901,31.5782581 C9.85864282,30.6945568 9.46576379,30.0551952 8.82548215,29.6234117 C7.5835714,28.7879029 6.45311757,27.7349436 5.46496326,26.4942805 C3.49500848,24.0239958 2.3932793,21.1745367 2.19008883,18.0252712 C2.0954431,16.5696257 2.21616604,15.1337249 2.54855123,13.7571877 C3.41995376,10.1345712 5.31948683,7.20808206 8.19473128,5.05955661 C10.5770237,3.27734566 13.3337956,2.29440176 16.3893302,2.13683456 C16.6123764,2.12566327 16.8397909,2.11994773 17.0652198,2.11994773 C17.9378137,2.11994773 18.8391322,2.20775929 19.7507757,2.38247311 C19.7479959,2.38247311 19.7449513,2.38221332 19.7420391,2.38195352 C19.4492331,2.36116972 19.146102,2.35064792 18.8412501,2.35064792 C18.1059256,2.35064792 17.3345961,2.41001165 16.4834464,2.53211648 C15.1388153,2.72332746 13.8368078,3.10224213 12.6132967,3.65820881 C10.2908362,4.70895987 8.50779021,6.07380611 7.16276195,7.82977752 C5.46827255,10.0402647 4.48501599,12.5580923 4.23999608,15.3135047 C4.1507776,16.3481484 4.19340126,17.3822724 4.36720523,18.3867795 C4.42558113,18.7242564 4.49865027,19.0612138 4.58508896,19.3968722 C4.79317718,20.205492 5.08532139,21.0056683 5.45013764,21.7902568 C5.51672058,21.9328856 5.58052371,22.0759042 5.65213677,22.2171041 C5.69277486,22.3004991 5.73632513,22.3803869 5.77947829,22.459755 C5.77947829,22.459755 5.81376254,22.5712081 5.84698782,22.5853671 C5.90655506,22.611217 6.01271712,22.5447088 6.0511049,22.4928792 C6.17394578,22.3277779 6.05017829,22.109548 5.98333062,21.9096338 C5.83335354,21.4387508 5.69608415,20.994497 5.57509647,20.5628434 C5.34582878,19.7477287 5.17731968,18.9802869 5.11192809,18.179461 C5.1095454,18.1507534 5.10570663,18.1223056 5.10345631,18.0930784 C5.05249322,17.3995489 5.01675288,16.6599054 5.09710247,15.9497489 C5.18486487,15.1695769 5.35006468,14.3438105 5.6024974,13.4239974 C6.3862699,10.5588205 7.87306818,8.25766403 10.0219894,6.58430823 C12.4101062,4.7259766 15.1018836,3.67860292 18.0218696,3.47037521 C18.2304874,3.45634614 18.4467826,3.44920171 18.6828013,3.44920171 C19.2155971,3.44920171 19.7609683,3.48583316 20.2879398,3.52155532 L20.457905,3.53285651 C21.3879481,3.5967667 22.367763,3.81109965 23.4536076,4.18767615 C25.599352,4.93355482 27.3180654,6.12641511 28.5620941,7.73339264 C29.5333048,8.9921116 30.3166802,10.4586686 30.9561676,12.2171081 C31.4289991,13.511809 31.7030084,14.8472981 31.7710474,16.1861646 C31.8339239,17.3879879 31.7386164,18.6111146 31.4869779,19.8211215 C31.1748455,21.3250894 30.7153836,22.5936806 30.0823824,23.6995087 C28.3317674,26.7488821 25.7625662,28.8512935 22.4457299,29.9484184 C22.3731903,29.9728394 22.299724,29.9937531 22.2266549,30.0153162 C22.1509383,30.1140393 22.074957,30.2126325 21.9987109,30.3118751 L21.7216571,30.6710452 L21.0150572,31.5802066 C20.9684624,31.6400899 20.9046593,31.7224457 20.8318549,31.7962282 C20.7312524,31.8987183 20.6134417,31.9853608 20.4736572,32.0579742 C20.1210192,32.2780227 19.5980188,32.4197422 19.1355123,32.4197422 C18.6606952,32.4197422 18.2568293,32.1183771 18.1754208,31.7040001 C18.1167801,31.4045835 18.2544466,31.0252791 18.6939205,30.8525137 C18.8335726,30.7978264 18.9941394,30.6933878 19.1521911,30.5716726 L19.0502649,30.57505 L18.9855352,30.5772583 C18.9324542,30.5792068 18.8787113,30.5815449 18.8261597,30.5820645 L18.7922726,30.5820645 C18.3939663,30.5820645 17.9730245,30.5536167 17.5389779,30.5007479 C17.4649821,30.4917849 17.3915159,30.4836013 17.3167259,30.4730795 C16.4335423,30.346688 15.6949085,30.0929957 15.0579362,29.6975839 C14.0200102,29.0543252 13.4305592,28.1264584 13.3062623,26.9399632 C13.241003,26.3209956 13.3156606,25.6503283 13.5412219,24.8296279 C13.844353,23.753027 14.2184352,22.4836564 14.6915315,21.230653 C14.8223147,20.8813552 14.8911479,20.5028302 14.9459498,20.1740565 C14.9692472,20.0253224 14.9418463,19.9047763 14.8641441,19.8157957 C14.7837945,19.7231779 14.6583062,19.6762844 14.4920474,19.6762844 L14.4498209,19.6773236 C14.1813712,19.6891444 13.9499856,19.8261876 13.7626797,20.0858552 L13.5355299,20.3974823 C13.156947,20.9155186 12.7655241,21.4514808 12.4282411,22.0100455 C11.6847096,23.2391475 11.2603261,24.5828203 11.1674013,26.0046921 C11.1157763,26.7723938 11.161974,27.5536049 11.304803,28.3262427 C11.3946834,28.8238848 11.5519409,29.2786604 11.7626765,29.6973241 C11.8688386,29.9086694 11.984399,30.1140393 12.1196828,30.3053802 C12.4042819,30.7063776 12.7508308,31.0643786 13.1654188,31.3719789 C14.4696766,32.3463495 16.0369569,32.872959 17.9560809,32.9828534 C18.1608599,32.9941546 18.3705366,33 18.5790219,33 L18.5792866,33 C19.462735,33 20.3611413,32.9007573 21.3257335,32.6966864 C24.755218,31.9663956 27.6700416,30.2995347 29.9885309,27.743387 C32.4595123,25.0125254 33.8054672,21.6169719 33.9884048,17.6515525 C34.0213653,16.9450331 33.9778151,16.2265631 33.9357209,15.5316048 L33.9199687,15.2671309 C33.8743004,14.4488986 33.7129394,13.5770182 33.4125882,12.5222402 C32.6883829,9.97778338 31.3673139,7.62791485 29.4864452,5.53836343 C26.5734749,2.3008967 22.8529051,0.452177576 18.4274564,0.0432562863 C18.100366,0.0141589646 17.7485222,0 17.3508778,0 C17.0245817,0 16.6981532,0.00896301428 16.3723866,0.017666231" id="Fill-31" fill="#FFFFFF"></path>
                    <g id="分组" transform="translate(1.000000, 0.000000)">
                        <mask id="mask-12" fill="white">
                            <use xlink:href="#path-11"></use>
                        </mask>
                        <g id="Clip-34"></g>
                        <polygon id="Fill-33" fill="#FFFFFF" mask="url(#mask-12)" points="19.7001667 -16.40056 50.4424922 19.0882871 14.2695233 49.3058047 -16.4728023 13.8169576"></polygon>
                    </g>
                    <path d="M23.1423397,18.0008631 C23.0969423,18.0049318 23.0571439,18.0271248 23.0362611,18.0599211 C23.0005485,18.1167598 22.9913177,18.170023 23.0081148,18.2262453 C23.038077,18.3402926 23.0718224,18.4542167 23.1061731,18.5681407 C23.1786576,18.8122637 23.2541685,19.0647707 23.2844334,19.3132089 C23.3366404,19.7267385 23.3696292,20.1498849 23.4011047,20.558606 C23.4269812,20.8895282 23.452555,21.2204504 23.4882676,21.5508795 L23.5050646,21.7163406 C23.5537911,22.1969423 23.6044849,22.6939421 23.7272091,23.1740506 C23.8113456,23.5007809 23.9781052,23.7767138 24.217198,24 C24.2435285,23.975711 24.2718262,23.9515453 24.2986106,23.927133 C24.4762657,23.7668502 24.6514995,23.6061976 24.8234042,23.4424626 C24.8839341,23.3856239 24.9403781,23.3284153 25,23.2716998 C24.9779066,23.2263275 24.958991,23.1802154 24.9447665,23.1328703 C24.8733413,22.9088443 24.8203777,22.6798866 24.787389,22.4517919 C24.741689,22.1518165 24.7021933,21.851348 24.6626975,21.551496 C24.6056482,21.1204587 24.5469343,20.674626 24.4702127,20.2380404 C24.3432514,19.5011096 24.0518003,18.88735 23.579365,18.3616226 C23.5021895,18.2758096 23.417599,18.193449 23.3340679,18.1119513 L23.2611294,18.0403173 C23.2355556,18.0150419 23.1977244,18 23.1583801,18 C23.1530837,18 23.147636,18.0002466 23.1423397,18.0008631" id="Fill-35" fill="#FFFFFF"></path>
                    <g id="分组" transform="translate(23.000000, 17.000000)">
                        <mask id="mask-14" fill="white">
                            <use xlink:href="#path-13"></use>
                        </mask>
                        <g id="Clip-38"></g>
                        <polygon id="Fill-37" fill="#FFFFFF" mask="url(#mask-14)" points="1.14554286 -0.866264 5.37268571 4.003496 0.841542857 7.780976 -3.3856 2.911076"></polygon>
                    </g>
                    <g id="分组" transform="translate(38.000000, 1.000000)" fill="#FFFFFF">
                        <path d="M14.1877598,14.1598599 C14.035131,13.3722 14.3255367,12.7185741 14.8331498,12.7064245 C15.3412933,12.6944041 15.6919017,13.0511388 15.6120733,13.4982204 C15.5330406,13.9459483 15.9934462,14.3020367 16.6357863,14.2900163 C17.2781264,14.2778667 17.7641248,14.0634381 17.7151934,13.8126898 C17.6662621,13.562717 17.9471201,13.3524245 18.3384384,13.3463497 C18.7302871,13.3409211 18.9608877,13.8187646 18.8501622,14.4093156 C18.7395694,14.9998667 17.8610593,15.5035605 16.8978144,15.5282476 L16.217947,15.5458259 C15.254702,15.5710299 14.3410515,14.9473905 14.1877598,14.1598599 Z M10.6392418,15.2228259 C10.6392418,14.5936286 11.1949906,14.094717 11.8626583,14.094717 C12.5080484,14.094717 13.0415195,14.5936286 13.0415195,15.2228259 C13.0415195,15.8301796 12.5080484,16.3067306 11.8626583,16.3067306 C11.1949906,16.3067306 10.6392418,15.8301796 10.6392418,15.2228259 Z M10.0556459,17.8132884 C9.11600468,17.6053224 8.41173791,17.2545333 8.49090328,17.0340299 C8.57073167,16.8128803 9.4164883,16.7429551 10.3703183,16.8773769 L15.4908721,17.6017034 C16.4448346,17.7367714 17.0351934,18.1542544 16.8020733,18.5302476 C16.5702793,18.9063701 15.6107473,19.0429891 14.6705757,18.8351524 L10.0556459,17.8132884 Z M7.50113729,6.11303673 C7.2564805,5.9696966 7.41772855,5.16937007 7.85970203,4.33492109 L9.14570827,1.90473061 C9.58768175,1.07028163 10.3443276,0.533240816 10.8278066,0.712254422 C11.3119485,0.891268027 11.3266677,1.57940408 10.8610905,2.24156054 C10.3961763,2.9032 10.8042028,3.42382585 11.7681108,3.3972 L14.6501544,3.31964898 C15.6139298,3.29302313 16.4021357,3.58888027 16.4021357,3.97702313 C16.4021357,4.36439048 15.9365585,5.17428163 15.3672839,5.77685306 C14.7980094,6.37942449 15.1211685,6.85364898 16.0844134,6.83141769 L16.3192574,6.82598912 C17.2831654,6.80362857 17.9989688,7.55083265 17.909858,8.48609796 L17.7430406,10.2467646 C17.6540624,11.1825469 16.793454,11.9676218 15.8296786,11.9923088 L15.1057863,12.0110503 C14.1425413,12.0357374 12.6787114,12.4527034 11.8535086,12.937785 L8.80199532,14.7310231 C7.9765273,15.2161048 7.15570047,15.4469483 6.97827457,15.2445401 C6.8013791,15.0413565 7.31708112,14.4568803 8.12491264,13.945302 L9.56978003,13.0300707 C10.3782746,12.5178463 10.4135476,12.1140639 9.64828237,12.1321592 C8.88421061,12.1496082 8.14785335,11.5248054 8.01312637,10.7438667 C7.87826677,9.96228163 8.17371139,9.31330884 8.6689922,9.30128844 C9.16480343,9.28913878 9.51090328,9.63630884 9.43677691,10.0713701 C9.36318097,10.5069483 9.95420281,10.8480435 10.7498346,10.8305946 C11.5461295,10.8126286 12.1266755,10.446717 12.0407473,10.0170844 C11.9553495,9.58758095 12.3355289,9.22658095 12.8865039,9.21443129 C13.4372137,9.20254014 13.8378144,9.54958095 13.7765507,9.98464218 C13.7154197,10.4197034 14.3014025,10.7613156 15.0779392,10.7438667 C15.8556693,10.7257714 16.4416521,10.1207442 16.379858,9.39887347 C16.3185944,8.67700272 15.4803963,8.10390068 14.5164883,8.12509796 L10.0988752,8.22216599 C9.13509984,8.24323401 8.34689392,7.97749252 8.34689392,7.63148571 C8.34689392,7.28509116 9.13509984,6.98742449 10.0988752,6.96868299 L11.1789454,6.94890748 C12.1420577,6.93016599 13.2611139,6.44689388 13.6647644,5.8744381 C14.0696084,5.30146531 13.6109267,4.85722721 12.6484774,4.88630884 L11.1220577,4.93193469 C10.1588128,4.96101633 9.37073947,4.84352653 9.37073947,4.67058776 C9.37073947,4.49751973 9.04983463,4.80966259 8.65851638,5.36466939 C8.26719813,5.91902993 7.74605928,6.25598912 7.50113729,6.11303673 Z M2.11842278,13.0227034 C2.05609828,12.0857578 2.44556006,11.3036558 2.9840702,11.2855605 C3.52244774,11.2681116 3.91814197,12.020615 3.86311076,12.9588531 L3.72957722,15.230581 C3.67454602,16.168819 4.19515445,16.7164585 4.88616069,16.4483905 C5.57796256,16.1796762 6.18940562,16.3845401 6.24377379,16.9038735 C6.29880499,17.4226898 5.56191732,17.9433156 4.60543526,18.061581 L4.21053666,18.1101796 C3.25418721,18.2277986 2.42089548,17.5571116 2.35830577,16.620166 L2.11842278,13.0227034 Z M0.279982839,10.5595537 C0.0294914197,10.4521456 -0.0248767551,9.60981224 0.159975039,8.68785986 L1.24614509,3.25631565 C1.43112949,2.33436327 2.02758814,1.69198231 2.57219813,1.82950612 C3.11694072,1.96612517 3.3215507,2.81091429 3.02729953,3.7052068 L2.96298596,3.90102313 C2.66873479,4.79531565 3.2165273,5.51046531 4.18017005,5.48939728 L4.70329797,5.47802313 C5.66694072,5.45747211 6.45527925,5.87986667 6.45527925,6.41626122 C6.45527925,6.9536898 6.24509984,8.12988027 5.98784555,9.03011837 C5.73072387,9.93100272 5.30545866,10.6438259 5.04197192,10.613581 C4.77928081,10.5835946 4.629039,9.85681224 4.70820437,8.9981932 C4.78790016,8.13892789 4.16240094,7.4557034 3.31770515,7.47961497 C2.47327457,7.50326803 1.54729173,8.2496966 1.25914041,9.13856054 C0.971784711,10.0272952 0.53100468,10.6668327 0.279982839,10.5595537 Z" id="Fill-39"></path>
                        <path d="M32.3711295,14.5288088 C32.364897,14.2304959 32.8211919,13.9767748 33.3837036,13.9647544 C33.9468783,13.952734 34.382752,13.518319 34.3518549,12.9995027 C34.3208253,12.4805571 34.6614883,12.0413599 35.1085008,12.0232646 C35.5555133,12.0058156 35.8904743,12.4252374 35.8541404,12.9560741 C35.8168783,13.4869109 36.2626973,13.9117612 36.8437738,13.8997408 C37.4255133,13.8875912 37.9009033,14.1171422 37.9009033,14.4095095 C37.9009033,14.7017476 37.4099984,14.9506864 36.8110203,14.9625776 C36.2113791,14.974598 35.6901076,15.4676932 35.6537738,16.058115 C35.6171747,16.6485367 36.3331108,17.1119041 37.2450374,17.0878633 C38.1563011,17.0643395 38.8697176,16.2768088 38.8294056,15.3380537 L38.708337,12.5264415 C38.668688,11.5875571 37.8465351,10.836217 36.8832902,10.8561218 L32.0872215,10.9566796 C31.1235788,10.9767136 30.3352402,10.6710333 30.3352402,10.2769449 C30.3352402,9.88414898 31.1235788,9.54486327 32.0872215,9.5244415 L38.7304821,9.38226463 C39.69439,9.36171361 40.4448034,10.1125367 40.3983916,11.0514211 L40.1215117,16.6829177 C40.0757629,17.621802 39.249234,18.4070061 38.2854587,18.4280741 L31.8871201,18.5677952 C30.9232122,18.5888633 30.0941638,17.8386864 30.044702,16.9005776 L29.8908799,13.9785844 C29.8414181,13.0403463 30.2116521,12.2631558 30.7130328,12.2510061 C31.2156069,12.2389857 31.5711217,12.9965299 31.5044212,13.9334755 L31.3918393,15.5146116 C31.3250062,16.4515571 32.0255601,17.2035435 32.9503495,17.1855776 C33.8746084,17.1679993 34.5953183,16.6750333 34.5520889,16.0906864 C34.50939,15.5062102 34.003766,15.0374143 33.428259,15.0487884 C32.8532824,15.0608088 32.3778924,14.8271218 32.3711295,14.5288088 M29.3116599,4.67065238 C29.3116599,4.17535986 29.8969797,3.76072041 30.6129158,3.74882925 C31.3293822,3.73667959 31.8765117,2.95935986 31.8300998,2.02112177 L31.8220109,1.87597211 C31.7757317,0.937863265 32.1874711,0.160414286 32.7383136,0.148393878 C33.289156,0.136373469 33.6970499,0.894434694 33.6440078,1.83202653 L33.6359189,1.9779517 C33.5827441,2.91593129 34.2559813,3.6692102 35.1307785,3.65124422 C36.0054431,3.63301973 36.6861061,2.98417619 36.6435398,2.20931224 C36.6007083,1.43380204 37.0211997,0.789482313 37.5782746,0.777461905 C38.1352168,0.765441497 38.5511997,1.38972721 38.5017379,2.16523741 C38.4529392,2.94139388 38.9987426,3.56089728 39.7146786,3.54267279 C40.4306147,3.52457755 41.0160671,3.91517619 41.0160671,4.41046871 C41.0160671,4.90511497 40.4101934,5.32505374 39.6702559,5.34327823 C38.9289922,5.36059796 38.2885086,5.97583605 38.2459423,6.7092102 C38.2031108,7.44323061 37.9076661,8.04812857 37.5894134,8.05407415 C37.2715585,8.06014898 36.9710749,7.4649449 36.9216131,6.73157075 C36.8728144,5.99755034 36.0716131,5.4166932 35.1412543,5.44073401 C34.2120889,5.46490408 33.42017,6.07949592 33.3837036,6.8074415 C33.3471045,7.53474082 33.0566989,8.13485646 32.7383136,8.14093129 C32.4199282,8.14700612 32.125014,7.5564551 32.0816521,6.82915578 C32.0390858,6.1012102 31.3979392,5.52035306 30.6580016,5.53831905 C29.9167379,5.55589728 29.3116599,5.16542789 29.3116599,4.67065238 M22.5137816,14.8542646 C22.3123541,14.7348361 22.5058253,13.952734 22.9452793,13.1163463 L23.2618081,12.5137748 C23.7013947,11.6773871 24.4006225,11.1689109 24.8166053,11.3833395 C25.2325881,11.5984143 25.0818159,12.375217 24.4815117,13.1102714 L23.9720421,13.7345571 C23.3718705,14.4690946 22.7153417,14.9729177 22.5137816,14.8542646 M22.4580874,9.27976803 C22.274429,9.07671361 22.554624,8.32537347 23.0811997,7.6094483 C23.6073775,6.89365238 23.6191794,5.65710136 23.1073229,4.86116939 L22.9878456,4.67556395 C22.4761217,3.87950272 22.3524009,2.9889585 22.7134852,2.69672041 C23.0750998,2.40435306 23.7507239,2.78034626 24.2156381,3.53181565 C24.6812153,4.28315578 25.51822,4.27191088 26.0764883,3.50661156 L26.6718861,2.68999932 C27.2306849,1.92418299 28.0479314,1.52712177 28.488181,1.80785646 C28.928961,2.08807415 28.7730172,2.89861156 28.1424789,3.60897891 L27.0088362,4.88637347 C26.3788284,5.59687007 26.2742028,6.8339381 26.7769095,7.63542789 L27.2615819,8.40835306 C27.764819,9.20932585 28.1463245,10.6331626 28.1090624,11.5719177 L27.9316365,16.0750469 C27.8953027,17.014319 27.0773931,17.8181354 26.1148112,17.8628565 L25.3872059,17.8965912 C24.424624,17.9410537 23.6722215,17.6211558 23.715053,17.1855776 C23.7576193,16.7503871 24.4494212,16.4816728 25.2499594,16.5889517 C26.0518237,16.6962306 26.677986,16.0166252 26.6403261,15.0777408 L26.508649,11.7455027 C26.4709891,10.8066184 26.0604431,9.45322381 25.5948658,8.73742789 C25.1300842,8.02163197 24.3089922,7.93425782 23.7706147,8.54225782 C23.2327676,9.15090408 22.6417457,9.48230544 22.4580874,9.27976803" id="Fill-41"></path>
                        <path d="M60.0339618,13.0104762 C60.0765281,12.5688231 60.4418557,12.2759388 60.8456388,12.3598231 C61.2506154,12.443449 61.5410211,11.7439388 61.4928853,10.8057007 L61.4013877,9.03353061 C61.3531193,8.09542177 60.7529477,7.47410884 60.0672457,7.65247619 C59.3816763,7.83213605 58.7992738,8.74620408 58.7734158,9.68547619 L58.6689228,13.4287347 C58.6429321,14.3674898 58.3856778,15.1405442 58.0976591,15.146619 C57.8101708,15.1526939 57.5523861,14.3892041 57.524539,13.4498027 L57.425085,10.0543605 C57.3972379,9.11547619 56.7747886,8.50334014 56.0396248,8.6942449 C55.3052566,8.8847619 54.6851942,9.80968707 54.6622535,10.7490884 L54.5467543,15.3804354 C54.5238136,16.3193197 55.2929243,17.0742789 56.2566997,17.0574762 L60.2738448,16.988068 C61.2369571,16.9712653 61.9706622,16.4748095 61.9027683,15.8841293 C61.8359353,15.2937075 62.1864111,14.7959592 62.6816919,14.7785102 C63.1775031,14.760415 63.495358,15.5094286 63.3876825,16.4428844 L63.3561225,16.7139252 C63.2485796,17.647381 62.3719259,18.4283197 61.4088136,18.4499048 L55.0993206,18.5891088 C54.1356778,18.6101769 53.3282441,17.859483 53.305436,16.9199524 L53.1662005,11.1606259 C53.1433924,10.2218707 52.7990164,9.53606122 52.4008027,9.63726531 C52.0040476,9.73911565 51.6782363,9.4167619 51.6782363,8.92211565 C51.6782363,8.42682313 51.9934392,7.93876871 52.379188,7.83756463 C52.7650694,7.73623129 53.0636966,6.88420408 53.0431427,5.94544898 L53.0054828,4.19848299 C52.9858573,3.25921088 53.3944142,2.47633333 53.91489,2.4582381 C54.4347028,2.44027211 54.8428619,3.19406803 54.8205842,4.13346939 L54.7890242,5.51155102 C54.7667465,6.45030612 55.3299212,7.06787075 56.0396248,6.88304082 C56.7499914,6.69795238 57.3119727,5.77845578 57.2891646,4.83905442 L57.2160991,1.85566667 C57.193291,0.917040816 57.600124,0.138428571 58.1199368,0.126278912 C58.6404126,0.114904762 59.0435328,0.872965986 59.0163487,1.81236735 L58.9383768,4.44923129 C58.9105296,5.38798639 59.6494064,5.95565986 60.5797652,5.71046939 L61.3130725,5.5174966 C62.2432988,5.27230612 62.9642738,5.83933333 62.914812,6.77744218 L62.6496014,11.8035238 C62.6001396,12.7417619 61.9745078,13.5776327 61.2573783,13.6612585 C60.5414423,13.7444966 59.9912629,13.4516122 60.0339618,13.0104762 M44.7797106,8.18395918 C44.7797106,7.65312245 45.3058885,7.20953061 45.9480959,7.1975102 C46.590436,7.1854898 47.0965905,6.40752381 47.073915,5.46812245 L47.0249836,3.50440136 C47.0021755,2.56551701 47.4083456,1.7822517 47.9281583,1.76415646 C48.4487668,1.74606122 48.8517543,2.49998639 48.8245702,3.43861224 L48.7676825,5.42482313 C48.7404984,6.36422449 49.2091256,7.12280272 49.8087668,7.11065306 C50.409071,7.0987619 50.8998432,7.52348299 50.8998432,8.05380272 C50.8998432,8.58528571 50.3992582,9.02926531 49.7871521,9.04076871 C49.175046,9.05291837 48.6527137,9.8307551 48.6255296,10.7701565 L48.5674485,12.7996667 C48.5401318,13.7384218 49.184461,14.2777891 49.998525,13.9975714 C50.8121911,13.7167075 51.5379399,13.7071429 51.6114033,13.9758571 C51.6849992,14.2440544 51.0488916,14.8242653 50.1975655,15.2647551 L46.5495936,17.153898 C45.6989306,17.5949048 44.8519805,17.4966735 44.6689852,16.9362381 C44.4854594,16.3752857 45.0108417,15.6871497 45.8368401,15.4075782 C46.6627059,15.1267143 47.3185718,14.1288912 47.2933768,13.1901361 L47.2290632,10.813585 C47.203603,9.87470068 46.6424173,9.11612245 45.9813799,9.12814286 C45.3206076,9.13964626 44.7797106,8.71544218 44.7797106,8.18395918" id="Fill-43"></path>
                        <path d="M75.2240055,13.3574653 C75.2240055,12.8151252 75.6913066,12.3812272 76.247851,12.3812272 C76.8041303,12.3812272 77.2720944,12.8151252 77.2720944,13.3574653 C77.2720944,13.8779619 76.8041303,14.3113429 76.247851,14.3113429 C75.6913066,14.3113429 75.2240055,13.8779619 75.2240055,13.3574653 Z M74.1162207,15.5808531 C73.1715406,15.3958939 72.4878276,15.0687578 72.5984204,14.8535537 C72.7091459,14.6391252 73.58328,14.5456762 74.5416186,14.6470095 L78.6891147,15.0825878 C79.647188,15.1837918 80.2413924,15.5785265 80.0082722,15.9599483 C79.7758151,16.3420163 78.8127028,16.5029347 77.8674922,16.3172 L74.1162207,15.5808531 Z M70.7735062,8.74834966 C70.5658463,8.5994517 70.86633,7.86077823 71.4423674,7.10762857 L72.7314236,5.42218639 C73.3069306,4.66890748 74.1736388,4.17426122 74.6565874,4.32315918 C75.1399337,4.47257415 75.1949649,4.94137007 74.7789821,5.36428163 C74.3628666,5.78796871 74.8110725,6.11523401 75.7748479,6.09222721 L79.4359477,6.00356054 C80.3995905,5.98016599 81.187929,6.27834966 81.187929,6.66597551 C81.187929,7.05385986 80.5937246,7.87590068 79.8667824,8.49281905 L78.8825858,9.3286898 C78.1555109,9.94573741 78.318085,10.6657986 79.2435374,10.9284381 L80.4627106,11.2744449 C81.388163,11.5370844 81.9643331,12.0891184 81.7442083,12.5005265 C81.5242161,12.9121932 80.608046,12.9729415 79.7077886,12.6362408 L77.8842005,11.9528871 C76.9839431,11.6159279 75.5251521,11.6484993 74.642929,12.0251388 L72.5126248,12.932615 C71.6304017,13.3092544 70.7871646,13.4321728 70.6401053,13.2055946 C70.4934438,12.9790163 71.0913612,12.4764857 71.9692083,12.0891184 L73.2500429,11.5244177 C74.12789,11.1362748 74.1650195,10.5608463 73.3322582,10.2445673 C72.5008229,9.92880544 71.9295593,9.50408435 72.0644189,9.30154694 C72.1991459,9.09849252 73.0653237,9.15277823 73.9882566,9.42149252 L74.5019696,9.57155374 C75.4250351,9.84026803 76.7497621,9.52812517 77.4452769,8.87734286 L77.743241,8.59777143 C78.4386232,7.94698912 78.2192941,7.42933605 77.2553861,7.4479483 L75.0842395,7.48905034 C74.1212598,7.50766259 73.3322582,7.36664898 73.3322582,7.17574422 C73.3322582,6.98458095 72.841486,7.32154014 72.2425078,7.92411156 C71.642734,8.52668299 70.9819618,8.89724762 70.7735062,8.74834966 Z M67.448163,6.28028844 C67.4167356,5.34140408 67.832188,4.56356735 68.3705655,4.55141769 C68.9090757,4.53939728 69.331291,5.29810476 69.3084828,6.23750612 L69.0802691,15.5538395 C69.056798,16.4932408 69.8271022,17.2458735 70.7902145,17.227132 L81.6391849,17.0138667 C82.6029602,16.9952544 83.3732644,16.2112136 83.3509867,15.2718122 L83.0974454,4.67562857 C83.0753003,3.73622721 82.2690601,2.98475782 81.3052847,3.00517959 L69.7220788,3.25541088 C68.7581708,3.27647891 67.9699649,2.92271701 67.9699649,2.46904354 C67.9699649,2.01588707 68.7581708,1.62774422 69.7220788,1.60732245 L83.2854797,1.31379184 C84.2492551,1.29337007 85.0165094,2.0441932 84.9903861,2.98359456 L84.6171022,16.5733769 C84.5911115,17.5127782 83.7818214,18.2961728 82.8181786,18.315302 L69.6106903,18.5721252 C68.646915,18.5913837 67.8333814,17.8381048 67.8018214,16.8993497 L67.448163,6.28028844 Z" id="Fill-45"></path>
                    </g>
                </g>
            </g>
        </g>
    </g>
</svg>